<svg width="42" height="42" viewBox="0 0 42 42" fill="none" xmlns="http://www.w3.org/2000/svg">
<g clip-path="url(#clip0_0_7198)">
<path d="M41.3718 26.0784C38.566 37.3344 27.1618 44.1768 15.9219 41.3708C4.66559 38.565 -2.1768 27.1613 0.629157 15.9216C3.43495 4.66559 14.8225 -2.1768 26.0789 0.629158C37.3188 3.41855 44.1777 14.8222 41.3718 26.0784Z" fill="url(#paint0_linear_0_7198)"/>
<path d="M30.9977 18.3826C31.4078 15.5936 29.2914 14.0842 26.3711 13.0834L27.3227 9.29355L25.0258 8.71934L24.107 12.4107C23.5 12.2631 22.8766 12.1154 22.2531 11.9842L23.1719 8.27637L20.875 7.70215L19.9398 11.4756C19.4312 11.3607 18.9391 11.2459 18.4633 11.1311V11.1146L15.2805 10.3271L14.6734 12.7881C14.6734 12.7881 16.3797 13.1818 16.3469 13.1982C17.282 13.4279 17.4461 14.0514 17.4133 14.5436L16.3305 18.8584C16.3961 18.8748 16.4781 18.8912 16.5766 18.9404C16.4945 18.924 16.4125 18.9076 16.3305 18.8748L14.8211 24.9123C14.7062 25.1912 14.4109 25.6178 13.7711 25.4537C13.7875 25.4865 12.0977 25.0436 12.0977 25.0436L10.9492 27.685L13.9516 28.4396C14.5094 28.5873 15.0508 28.7186 15.5922 28.8662L14.6406 32.6889L16.9375 33.2631L17.8891 29.4732C18.5125 29.6373 19.1359 29.8014 19.7266 29.949L18.7914 33.7225L21.0883 34.2967L22.0398 30.474C25.9773 31.2123 28.9305 30.917 30.1609 27.3568C31.1617 24.5021 30.1117 22.8451 28.0445 21.7623C29.5703 21.4178 30.7023 20.417 30.9977 18.3826ZM25.7312 25.7654C25.0258 28.6201 20.2023 27.0779 18.6437 26.6842L19.907 21.6146C21.4656 22.0084 26.4859 22.7795 25.7312 25.7654ZM26.4531 18.3334C25.7969 20.942 21.7937 19.6131 20.4977 19.285L21.6461 14.6912C22.9422 15.0193 27.1258 15.6264 26.4531 18.3334Z" fill="white"/>
</g>
<defs>
<linearGradient id="paint0_linear_0_7198" x1="2098.86" y1="-1.008" x2="2098.86" y2="4199.58" gradientUnits="userSpaceOnUse">
<stop stop-color="#F9AA4B"/>
<stop offset="1" stop-color="#F7931A"/>
</linearGradient>
<clipPath id="clip0_0_7198">
<rect width="42" height="42" fill="white"/>
</clipPath>
</defs>
</svg>
