<svg width="22" height="16" viewBox="0 0 22 16" fill="none" xmlns="http://www.w3.org/2000/svg">
<path fill-rule="evenodd" clip-rule="evenodd" d="M14.74 12.8213H9.24C8.826 12.8213 8.49 12.4865 8.49 12.0739C8.49 11.6614 8.826 11.3265 9.24 11.3265H14.74C15.154 11.3265 15.49 11.6614 15.49 12.0739C15.49 12.4865 15.154 12.8213 14.74 12.8213ZM7.5 5.53564C7.5 5.81168 7.275 6.03391 7 6.03391H3C2.723 6.03391 2.5 5.81168 2.5 5.53564V3.04429C2.5 2.77024 2.723 2.54602 3 2.54602H7C7.275 2.54602 7.5 2.77024 7.5 3.04429V5.53564ZM6.24 12.8213H3.24C2.826 12.8213 2.49 12.4865 2.49 12.0739C2.49 11.6614 2.826 11.3265 3.24 11.3265H6.24C6.654 11.3265 6.99 11.6614 6.99 12.0739C6.99 12.4865 6.654 12.8213 6.24 12.8213ZM20.5 0.0546722H1.5C0.672 0.0546722 0 0.724347 0 1.54948V14.5045C0 15.3306 0.672 15.9993 1.5 15.9993H20.5C21.329 15.9993 22 15.3306 22 14.5045V1.54948C22 0.724347 21.329 0.0546722 20.5 0.0546722Z" fill="white"/>
</svg>
