<svg width="18" height="19" viewBox="0 0 18 19" fill="none" xmlns="http://www.w3.org/2000/svg">
<path d="M4 0C3.44772 0 3 0.447715 3 1V2H2C0.895431 2 0 2.89543 0 4V6H18V4C18 2.89543 17.1046 2 16 2H15V1C15 0.447715 14.5523 0 14 0H13C12.4477 0 12 0.447715 12 1V2H6V1C6 0.447715 5.55228 0 5 0H4Z" fill="white"/>
<path fill-rule="evenodd" clip-rule="evenodd" d="M18 8H0V17C0 18.1046 0.89543 19 2 19H16C17.1046 19 18 18.1046 18 17V8ZM3 11C3 10.4477 3.44772 10 4 10H6C6.55228 10 7 10.4477 7 11V12C7 12.5523 6.55228 13 6 13H4C3.44772 13 3 12.5523 3 12V11Z" fill="white"/>
</svg>
