<svg width="24" height="24" viewBox="0 0 24 24" fill="none" xmlns="http://www.w3.org/2000/svg">
<rect x="0.507096" y="1.02077" width="22.2298" height="22.2298" rx="11.1149" fill="#3B4756"/>
<rect x="0.507096" y="1.02077" width="22.2298" height="22.2298" rx="11.1149" stroke="#333D4E" stroke-width="0.889192"/>
<g clip-path="url(#clip0_0_5009)">
<g clip-path="url(#clip1_0_5009)">
<path d="M16.5595 7.52684C15.6385 7.09595 14.6538 6.7828 13.6243 6.60449C13.4979 6.83308 13.3502 7.14054 13.2483 7.38512C12.154 7.22053 11.0697 7.22053 9.9954 7.38512C9.89358 7.14054 9.74252 6.83308 9.61495 6.60449C8.58435 6.7828 7.5985 7.0971 6.67755 7.52912C4.82 10.3361 4.31645 13.0734 4.56823 15.7718C5.80025 16.6919 6.99423 17.2508 8.16807 17.6165C8.45789 17.2176 8.71638 16.7936 8.93906 16.3467C8.51496 16.1856 8.10876 15.9867 7.72495 15.7558C7.82677 15.6804 7.92637 15.6015 8.0226 15.5204C10.3636 16.6153 12.9071 16.6153 15.22 15.5204C15.3174 15.6015 15.417 15.6804 15.5177 15.7558C15.1328 15.9878 14.7254 16.1867 14.3013 16.3479C14.524 16.7936 14.7814 17.2188 15.0723 17.6176C16.2473 17.2519 17.4424 16.693 18.6744 15.7718C18.9698 12.6437 18.1697 9.93153 16.5595 7.52684ZM9.25798 14.1123C8.55525 14.1123 7.97895 13.4563 7.97895 12.6574C7.97895 11.8585 8.54294 11.2013 9.25798 11.2013C9.97304 11.2013 10.5493 11.8573 10.537 12.6574C10.5381 13.4563 9.97304 14.1123 9.25798 14.1123ZM13.9847 14.1123C13.2819 14.1123 12.7056 13.4563 12.7056 12.6574C12.7056 11.8585 13.2696 11.2013 13.9847 11.2013C14.6997 11.2013 15.276 11.8573 15.2637 12.6574C15.2637 13.4563 14.6997 14.1123 13.9847 14.1123Z" fill="white"/>
</g>
</g>
<defs>
<clipPath id="clip0_0_5009">
<rect width="14.2271" height="14.2271" fill="white" transform="translate(4.50781 5.02148)"/>
</clipPath>
<clipPath id="clip1_0_5009">
<rect width="14.2271" height="14.2271" fill="white" transform="translate(4.50781 5.02148)"/>
</clipPath>
</defs>
</svg>
