<svg width="16" height="20" viewBox="0 0 16 20" fill="none" xmlns="http://www.w3.org/2000/svg">
<path fill-rule="evenodd" clip-rule="evenodd" d="M4.37477 5.93128C4.37477 3.93447 6.00049 2.31042 7.99957 2.31042C9.99865 2.31042 11.6244 3.93447 11.6244 5.93128V7.73176H4.37477V5.93128ZM14.343 7.73176H13.4368V5.93129C13.4368 2.93652 10.9982 0.5 7.99958 0.5C5.00096 0.5 2.56238 2.93652 2.56238 5.93129V7.73176H1.65618C0.905842 7.73176 0.296875 8.33976 0.296875 9.08981V18.142C0.296875 18.892 0.905842 19.5 1.65618 19.5H14.343C15.0933 19.5 15.7023 18.892 15.7023 18.142V9.08981C15.7023 8.33976 15.0933 7.73176 14.343 7.73176ZM8.90577 13.8172V15.8791C8.90577 16.3786 8.49979 16.7839 7.99957 16.7839C7.49844 16.7839 7.09337 16.3786 7.09337 15.8791V13.8172C6.55328 13.5041 6.18717 12.9269 6.18717 12.2583C6.18717 11.2585 6.99822 10.4479 7.99957 10.4479C9.00002 10.4479 9.81197 11.2585 9.81197 12.2583C9.81197 12.9269 9.44496 13.5041 8.90577 13.8172Z" fill="white"/>
</svg>
