<svg width="136" height="22" viewBox="0 0 136 22" fill="none" xmlns="http://www.w3.org/2000/svg">
<path d="M19.5556 12.2222V18.3333C19.5556 19.0056 19.0056 19.5556 18.3333 19.5556H3.66667C2.99444 19.5556 2.44444 19.0056 2.44444 18.3333V12.2222C2.44444 11.55 1.89444 11 1.22222 11C0.55 11 0 11.55 0 12.2222V19.5556C0 20.9 1.1 22 2.44444 22H19.5556C20.9 22 22 20.9 22 19.5556V12.2222C22 11.55 21.45 11 20.7778 11C20.1056 11 19.5556 11.55 19.5556 12.2222ZM12.2222 11.8189L14.52 9.52111C14.6332 9.40796 14.7675 9.3182 14.9153 9.25696C15.0632 9.19572 15.2216 9.1642 15.3817 9.1642C15.5417 9.1642 15.7002 9.19572 15.848 9.25696C15.9958 9.3182 16.1302 9.40796 16.2433 9.52111C16.3565 9.63427 16.4462 9.7686 16.5075 9.91645C16.5687 10.0643 16.6002 10.2228 16.6002 10.3828C16.6002 10.5428 16.5687 10.7013 16.5075 10.8491C16.4462 10.997 16.3565 11.1313 16.2433 11.2444L11.8556 15.6322C11.7425 15.7455 11.6082 15.8354 11.4603 15.8968C11.3125 15.9581 11.154 15.9897 10.9939 15.9897C10.8338 15.9897 10.6753 15.9581 10.5275 15.8968C10.3796 15.8354 10.2453 15.7455 10.1322 15.6322L5.74444 11.2444C5.51592 11.0159 5.38753 10.706 5.38753 10.3828C5.38753 10.0596 5.51592 9.74964 5.74444 9.52111C5.97297 9.29258 6.28292 9.1642 6.60611 9.1642C6.9293 9.1642 7.23925 9.29258 7.46778 9.52111L9.77778 11.8189V1.22222C9.77778 0.55 10.3278 0 11 0C11.6722 0 12.2222 0.55 12.2222 1.22222V11.8189Z" fill="#0D59A7"/>
<path d="M45.4716 8.5625C45.4186 8.06629 45.1951 7.67992 44.8011 7.40341C44.411 7.12689 43.9034 6.98864 43.2784 6.98864C42.839 6.98864 42.4621 7.05492 42.1477 7.1875C41.8333 7.32008 41.5928 7.5 41.4261 7.72727C41.2595 7.95455 41.1742 8.21402 41.1705 8.50568C41.1705 8.74811 41.2254 8.95833 41.3352 9.13636C41.4489 9.31439 41.6023 9.46591 41.7955 9.59091C41.9886 9.71212 42.2027 9.81439 42.4375 9.89773C42.6723 9.98106 42.9091 10.0511 43.1477 10.108L44.2386 10.3807C44.678 10.483 45.1004 10.6212 45.5057 10.7955C45.9148 10.9697 46.2803 11.1894 46.6023 11.4545C46.928 11.7197 47.1856 12.0398 47.375 12.4148C47.5644 12.7898 47.6591 13.2292 47.6591 13.733C47.6591 14.4148 47.4848 15.0152 47.1364 15.5341C46.7879 16.0492 46.2841 16.4527 45.625 16.7443C44.9697 17.0322 44.1761 17.1761 43.2443 17.1761C42.339 17.1761 41.553 17.036 40.8864 16.7557C40.2235 16.4754 39.7045 16.0663 39.3295 15.5284C38.9583 14.9905 38.7576 14.3352 38.7273 13.5625H40.8011C40.8314 13.9678 40.9564 14.3049 41.1761 14.5739C41.3958 14.8428 41.6818 15.0436 42.0341 15.1761C42.3902 15.3087 42.7879 15.375 43.2273 15.375C43.6856 15.375 44.0871 15.3068 44.4318 15.1705C44.7803 15.0303 45.053 14.8371 45.25 14.5909C45.447 14.3409 45.5473 14.0492 45.5511 13.7159C45.5473 13.4129 45.4583 13.1629 45.2841 12.9659C45.1098 12.7652 44.8655 12.5985 44.5511 12.4659C44.2405 12.3295 43.8769 12.2083 43.4602 12.1023L42.1364 11.7614C41.178 11.5152 40.4205 11.142 39.8636 10.642C39.3106 10.1383 39.0341 9.4697 39.0341 8.63636C39.0341 7.95076 39.2197 7.35038 39.5909 6.83523C39.9659 6.32008 40.4754 5.92045 41.1193 5.63636C41.7633 5.34848 42.4924 5.20455 43.3068 5.20455C44.1326 5.20455 44.8561 5.34848 45.4773 5.63636C46.1023 5.92045 46.5928 6.31629 46.9489 6.82386C47.3049 7.32765 47.4886 7.9072 47.5 8.5625H45.4716ZM51.9588 17.1761C51.4058 17.1761 50.9077 17.0777 50.4645 16.8807C50.0251 16.6799 49.6766 16.3845 49.419 15.9943C49.1652 15.6042 49.0384 15.1231 49.0384 14.5511C49.0384 14.0587 49.1293 13.6515 49.3111 13.3295C49.4929 13.0076 49.741 12.75 50.0554 12.5568C50.3698 12.3636 50.724 12.2178 51.1179 12.1193C51.5156 12.017 51.9266 11.9432 52.3509 11.8977C52.8622 11.8447 53.277 11.7973 53.5952 11.7557C53.9134 11.7102 54.1444 11.642 54.2884 11.5511C54.4361 11.4564 54.5099 11.3106 54.5099 11.1136V11.0795C54.5099 10.6515 54.383 10.3201 54.1293 10.0852C53.8755 9.85038 53.5099 9.73295 53.0327 9.73295C52.5289 9.73295 52.1293 9.8428 51.8338 10.0625C51.5421 10.2822 51.3452 10.5417 51.2429 10.8409L49.3224 10.5682C49.474 10.0379 49.724 9.5947 50.0724 9.23864C50.4209 8.87879 50.8471 8.60985 51.3509 8.43182C51.8546 8.25 52.4115 8.15909 53.0213 8.15909C53.4418 8.15909 53.8603 8.20833 54.277 8.30682C54.6937 8.4053 55.0743 8.56818 55.419 8.79545C55.7637 9.01894 56.0402 9.32386 56.2486 9.71023C56.4607 10.0966 56.5668 10.5795 56.5668 11.1591V17H54.5895V15.8011H54.5213C54.3963 16.0436 54.2202 16.2708 53.9929 16.483C53.7694 16.6913 53.4872 16.8598 53.1463 16.9886C52.8092 17.1136 52.4134 17.1761 51.9588 17.1761ZM52.4929 15.6648C52.9058 15.6648 53.2637 15.5833 53.5668 15.4205C53.8698 15.2538 54.1027 15.0341 54.2656 14.7614C54.4323 14.4886 54.5156 14.1913 54.5156 13.8693V12.8409C54.4512 12.8939 54.3414 12.9432 54.1861 12.9886C54.0346 13.0341 53.8641 13.0739 53.6747 13.108C53.4853 13.142 53.2978 13.1723 53.1122 13.1989C52.9266 13.2254 52.7656 13.2481 52.6293 13.267C52.3224 13.3087 52.0478 13.3769 51.8054 13.4716C51.563 13.5663 51.3717 13.6989 51.2315 13.8693C51.0914 14.036 51.0213 14.2519 51.0213 14.517C51.0213 14.8958 51.1596 15.1818 51.4361 15.375C51.7126 15.5682 52.0649 15.6648 52.4929 15.6648ZM66.1179 8.27273L63.0099 17H60.7372L57.6293 8.27273H59.8224L61.8281 14.7557H61.919L63.9304 8.27273H66.1179ZM71.108 17.1705C70.233 17.1705 69.4773 16.9886 68.8409 16.625C68.2083 16.2576 67.7216 15.7386 67.3807 15.0682C67.0398 14.3939 66.8693 13.6004 66.8693 12.6875C66.8693 11.7898 67.0398 11.0019 67.3807 10.3239C67.7254 9.64205 68.2064 9.11174 68.8239 8.73295C69.4413 8.35038 70.1667 8.15909 71 8.15909C71.5379 8.15909 72.0455 8.24621 72.5227 8.42045C73.0038 8.59091 73.428 8.85606 73.7955 9.21591C74.1667 9.57576 74.4583 10.0341 74.6705 10.5909C74.8826 11.1439 74.9886 11.803 74.9886 12.5682V13.1989H67.8352V11.8125H73.017C73.0133 11.4186 72.928 11.0682 72.7614 10.7614C72.5947 10.4508 72.3617 10.2064 72.0625 10.0284C71.767 9.85038 71.4223 9.76136 71.0284 9.76136C70.608 9.76136 70.2386 9.86364 69.9205 10.0682C69.6023 10.2689 69.3542 10.5341 69.1761 10.8636C69.0019 11.1894 68.9129 11.5473 68.9091 11.9375V13.1477C68.9091 13.6553 69.0019 14.0909 69.1875 14.4545C69.3731 14.8144 69.6326 15.0909 69.9659 15.2841C70.2992 15.4735 70.6894 15.5682 71.1364 15.5682C71.4356 15.5682 71.7064 15.5265 71.9489 15.4432C72.1913 15.3561 72.4015 15.2292 72.5795 15.0625C72.7576 14.8958 72.892 14.6894 72.983 14.4432L74.9034 14.6591C74.7822 15.1667 74.5511 15.6098 74.2102 15.9886C73.8731 16.3636 73.4413 16.6553 72.9148 16.8636C72.3883 17.0682 71.786 17.1705 71.108 17.1705ZM83.2088 17.1761C82.6558 17.1761 82.1577 17.0777 81.7145 16.8807C81.2751 16.6799 80.9266 16.3845 80.669 15.9943C80.4152 15.6042 80.2884 15.1231 80.2884 14.5511C80.2884 14.0587 80.3793 13.6515 80.5611 13.3295C80.7429 13.0076 80.991 12.75 81.3054 12.5568C81.6198 12.3636 81.974 12.2178 82.3679 12.1193C82.7656 12.017 83.1766 11.9432 83.6009 11.8977C84.1122 11.8447 84.527 11.7973 84.8452 11.7557C85.1634 11.7102 85.3944 11.642 85.5384 11.5511C85.6861 11.4564 85.7599 11.3106 85.7599 11.1136V11.0795C85.7599 10.6515 85.633 10.3201 85.3793 10.0852C85.1255 9.85038 84.7599 9.73295 84.2827 9.73295C83.7789 9.73295 83.3793 9.8428 83.0838 10.0625C82.7921 10.2822 82.5952 10.5417 82.4929 10.8409L80.5724 10.5682C80.724 10.0379 80.974 9.5947 81.3224 9.23864C81.6709 8.87879 82.0971 8.60985 82.6009 8.43182C83.1046 8.25 83.6615 8.15909 84.2713 8.15909C84.6918 8.15909 85.1103 8.20833 85.527 8.30682C85.9437 8.4053 86.3243 8.56818 86.669 8.79545C87.0137 9.01894 87.2902 9.32386 87.4986 9.71023C87.7107 10.0966 87.8168 10.5795 87.8168 11.1591V17H85.8395V15.8011H85.7713C85.6463 16.0436 85.4702 16.2708 85.2429 16.483C85.0194 16.6913 84.7372 16.8598 84.3963 16.9886C84.0592 17.1136 83.6634 17.1761 83.2088 17.1761ZM83.7429 15.6648C84.1558 15.6648 84.5137 15.5833 84.8168 15.4205C85.1198 15.2538 85.3527 15.0341 85.5156 14.7614C85.6823 14.4886 85.7656 14.1913 85.7656 13.8693V12.8409C85.7012 12.8939 85.5914 12.9432 85.4361 12.9886C85.2846 13.0341 85.1141 13.0739 84.9247 13.108C84.7353 13.142 84.5478 13.1723 84.3622 13.1989C84.1766 13.2254 84.0156 13.2481 83.8793 13.267C83.5724 13.3087 83.2978 13.3769 83.0554 13.4716C82.813 13.5663 82.6217 13.6989 82.4815 13.8693C82.3414 14.036 82.2713 14.2519 82.2713 14.517C82.2713 14.8958 82.4096 15.1818 82.6861 15.375C82.9626 15.5682 83.3149 15.6648 83.7429 15.6648ZM96.7827 10.5795L94.9077 10.7841C94.8546 10.5947 94.7618 10.4167 94.6293 10.25C94.5005 10.0833 94.3262 9.94886 94.1065 9.84659C93.8868 9.74432 93.6179 9.69318 93.2997 9.69318C92.8717 9.69318 92.5118 9.78598 92.2202 9.97159C91.9323 10.1572 91.7902 10.3977 91.794 10.6932C91.7902 10.947 91.883 11.1534 92.0724 11.3125C92.2656 11.4716 92.5838 11.6023 93.027 11.7045L94.5156 12.0227C95.3414 12.2008 95.955 12.483 96.3565 12.8693C96.7618 13.2557 96.9664 13.7614 96.9702 14.3864C96.9664 14.9356 96.8054 15.4205 96.4872 15.8409C96.1728 16.2576 95.7353 16.5833 95.1747 16.8182C94.6141 17.053 93.9702 17.1705 93.2429 17.1705C92.1747 17.1705 91.3149 16.947 90.6634 16.5C90.0118 16.0492 89.6236 15.4223 89.4986 14.6193L91.5043 14.4261C91.5952 14.8201 91.7884 15.1174 92.0838 15.3182C92.3793 15.5189 92.7637 15.6193 93.2372 15.6193C93.7259 15.6193 94.1179 15.5189 94.4134 15.3182C94.7126 15.1174 94.8622 14.8693 94.8622 14.5739C94.8622 14.3239 94.7656 14.1174 94.5724 13.9545C94.383 13.7917 94.0876 13.6667 93.6861 13.5795L92.1974 13.267C91.3603 13.0928 90.741 12.7992 90.3395 12.3864C89.938 11.9697 89.7391 11.4432 89.7429 10.8068C89.7391 10.2689 89.8849 9.80303 90.1804 9.40909C90.4796 9.01136 90.8944 8.70455 91.4247 8.48864C91.9588 8.26894 92.5743 8.15909 93.2713 8.15909C94.294 8.15909 95.099 8.37689 95.6861 8.8125C96.277 9.24811 96.6425 9.83712 96.7827 10.5795ZM112.686 9.28977H110.561C110.5 8.94129 110.389 8.63258 110.226 8.36364C110.063 8.09091 109.86 7.85985 109.618 7.67045C109.375 7.48106 109.099 7.33901 108.788 7.24432C108.482 7.14583 108.15 7.09659 107.794 7.09659C107.161 7.09659 106.601 7.25568 106.112 7.57386C105.624 7.88826 105.241 8.35038 104.964 8.96023C104.688 9.56629 104.55 10.3068 104.55 11.1818C104.55 12.072 104.688 12.822 104.964 13.4318C105.245 14.0379 105.627 14.4962 106.112 14.8068C106.601 15.1136 107.16 15.267 107.788 15.267C108.137 15.267 108.463 15.2216 108.766 15.1307C109.072 15.036 109.347 14.8977 109.589 14.7159C109.836 14.5341 110.042 14.3106 110.209 14.0455C110.379 13.7803 110.497 13.4773 110.561 13.1364L112.686 13.1477C112.607 13.7008 112.434 14.2197 112.169 14.7045C111.908 15.1894 111.565 15.6174 111.141 15.9886C110.716 16.3561 110.22 16.6439 109.652 16.8523C109.084 17.0568 108.453 17.1591 107.76 17.1591C106.737 17.1591 105.824 16.9223 105.021 16.4489C104.218 15.9754 103.586 15.2917 103.124 14.3977C102.661 13.5038 102.43 12.4318 102.43 11.1818C102.43 9.92803 102.663 8.85606 103.129 7.96591C103.595 7.07197 104.23 6.38826 105.033 5.91477C105.836 5.44129 106.745 5.20455 107.76 5.20455C108.408 5.20455 109.01 5.29545 109.567 5.47727C110.124 5.65909 110.62 5.92614 111.055 6.27841C111.491 6.62689 111.849 7.05492 112.129 7.5625C112.413 8.06629 112.599 8.64205 112.686 9.28977ZM120.94 8.5625C120.887 8.06629 120.664 7.67992 120.27 7.40341C119.88 7.12689 119.372 6.98864 118.747 6.98864C118.308 6.98864 117.931 7.05492 117.616 7.1875C117.302 7.32008 117.062 7.5 116.895 7.72727C116.728 7.95455 116.643 8.21402 116.639 8.50568C116.639 8.74811 116.694 8.95833 116.804 9.13636C116.918 9.31439 117.071 9.46591 117.264 9.59091C117.457 9.71212 117.671 9.81439 117.906 9.89773C118.141 9.98106 118.378 10.0511 118.616 10.108L119.707 10.3807C120.147 10.483 120.569 10.6212 120.974 10.7955C121.384 10.9697 121.749 11.1894 122.071 11.4545C122.397 11.7197 122.654 12.0398 122.844 12.4148C123.033 12.7898 123.128 13.2292 123.128 13.733C123.128 14.4148 122.954 15.0152 122.605 15.5341C122.257 16.0492 121.753 16.4527 121.094 16.7443C120.438 17.0322 119.645 17.1761 118.713 17.1761C117.808 17.1761 117.022 17.036 116.355 16.7557C115.692 16.4754 115.173 16.0663 114.798 15.5284C114.427 14.9905 114.226 14.3352 114.196 13.5625H116.27C116.3 13.9678 116.425 14.3049 116.645 14.5739C116.865 14.8428 117.151 15.0436 117.503 15.1761C117.859 15.3087 118.257 15.375 118.696 15.375C119.154 15.375 119.556 15.3068 119.901 15.1705C120.249 15.0303 120.522 14.8371 120.719 14.5909C120.916 14.3409 121.016 14.0492 121.02 13.7159C121.016 13.4129 120.927 13.1629 120.753 12.9659C120.579 12.7652 120.334 12.5985 120.02 12.4659C119.709 12.3295 119.346 12.2083 118.929 12.1023L117.605 11.7614C116.647 11.5152 115.889 11.142 115.332 10.642C114.779 10.1383 114.503 9.4697 114.503 8.63636C114.503 7.95076 114.688 7.35038 115.06 6.83523C115.435 6.32008 115.944 5.92045 116.588 5.63636C117.232 5.34848 117.961 5.20455 118.776 5.20455C119.601 5.20455 120.325 5.34848 120.946 5.63636C121.571 5.92045 122.062 6.31629 122.418 6.82386C122.774 7.32765 122.957 7.9072 122.969 8.5625H120.94ZM126.564 5.36364L129.592 14.5227H129.712L132.734 5.36364H135.053L130.95 17H128.348L124.251 5.36364H126.564Z" fill="#0D59A7"/>
</svg>
