<svg width="24" height="24" viewBox="0 0 24 24" fill="none" xmlns="http://www.w3.org/2000/svg">
<rect x="1.17897" y="0.593522" width="22.2298" height="22.2298" rx="11.1149" fill="#3B4756"/>
<rect x="1.17897" y="0.593522" width="22.2298" height="22.2298" rx="11.1149" stroke="#333D4E" stroke-width="0.889192"/>
<g clip-path="url(#clip0_0_5931)">
<g clip-path="url(#clip1_0_5931)">
<path d="M6.44574 8.17527C10.0752 7.62135 12.4928 7.28255 13.708 7.12417C17.1439 6.6673 17.847 6.61371 18.2686 6.70803C18.3553 6.7313 18.5591 6.80451 18.6702 6.94595C18.7511 7.06071 18.7532 7.1916 18.7474 7.28309C18.7414 7.37458 18.7076 7.57029 18.6483 7.72195C18.0046 9.42958 16.1431 13.5287 15.2351 15.3889C14.8554 16.1806 14.4683 16.3748 14.1638 16.3304C13.5072 16.2104 13.1338 15.5891 12.6156 15.0221C11.8152 14.1188 11.3664 13.5705 10.5787 12.6893C9.68001 11.6666 10.4991 11.4579 11.2966 10.9829C11.4994 10.8511 15.0585 9.0311 15.1758 8.80191C15.1852 8.76717 15.2304 8.66761 15.1749 8.5969C15.1194 8.52618 15.0279 8.52027 14.9538 8.51903C14.8449 8.50847 13.0026 9.13172 9.41401 10.3667C8.87867 10.5584 8.44197 10.5903 8.07725 10.4925C7.67778 10.3855 6.97409 9.95496 6.45213 9.61034C5.81791 9.19841 5.29471 8.92791 5.44919 8.55977C5.53512 8.37803 5.86885 8.24407 6.44574 8.17527Z" fill="white"/>
</g>
</g>
<defs>
<clipPath id="clip0_0_5931">
<rect width="14.2271" height="14.2271" fill="white" transform="translate(5.1875 4.59326)"/>
</clipPath>
<clipPath id="clip1_0_5931">
<rect width="14.2271" height="14.2271" fill="white" transform="translate(5.1875 4.59326)"/>
</clipPath>
</defs>
</svg>
