<svg width="28" height="29" viewBox="0 0 28 29" fill="none" xmlns="http://www.w3.org/2000/svg">
<mask id="path-1-inside-1_0_2553" fill="white">
<path d="M0 0.389648H24C26.2091 0.389648 28 2.18051 28 4.38965V24.3896C28 26.5988 26.2091 28.3896 24 28.3896H0V0.389648Z"/>
</mask>
<path d="M0 0.389648H24C26.2091 0.389648 28 2.18051 28 4.38965V24.3896C28 26.5988 26.2091 28.3896 24 28.3896H0V0.389648Z" fill="white"/>
<path d="M0 -0.610352H24C26.7614 -0.610352 29 1.62822 29 4.38965H27C27 2.73279 25.6569 1.38965 24 1.38965H0V-0.610352ZM29 24.3896C29 27.1511 26.7614 29.3896 24 29.3896H0V27.3896H24C25.6569 27.3896 27 26.0465 27 24.3896H29ZM0 28.3896V0.389648V28.3896ZM24 -0.610352C26.7614 -0.610352 29 1.62822 29 4.38965V24.3896C29 27.1511 26.7614 29.3896 24 29.3896V27.3896C25.6569 27.3896 27 26.0465 27 24.3896V4.38965C27 2.73279 25.6569 1.38965 24 1.38965V-0.610352Z" fill="#DEE2E6" mask="url(#path-1-inside-1_0_2553)"/>
<g clip-path="url(#clip0_0_2553)">
<path d="M12 15.8899C12.2444 16.1394 12.5361 16.3376 12.8581 16.4728C13.1801 16.6081 13.5258 16.6778 13.875 16.6778C14.2242 16.6778 14.5699 16.6081 14.8919 16.4728C15.2139 16.3376 15.5056 16.1394 15.75 15.8899L18.75 12.8899C19.2473 12.3927 19.5267 11.7182 19.5267 11.0149C19.5267 10.3117 19.2473 9.63721 18.75 9.13993C18.2527 8.64265 17.5783 8.36328 16.875 8.36328C16.1717 8.36328 15.4973 8.64265 15 9.13993L14.625 9.51493" stroke="#495057" stroke-width="1.125" stroke-linecap="round" stroke-linejoin="round"/>
<path d="M14.9993 12.8894C14.7549 12.64 14.4632 12.4418 14.1412 12.3065C13.8193 12.1712 13.4735 12.1016 13.1243 12.1016C12.7751 12.1016 12.4294 12.1712 12.1074 12.3065C11.7854 12.4418 11.4937 12.64 11.2493 12.8894L8.24931 15.8894C7.75203 16.3867 7.47266 17.0612 7.47266 17.7644C7.47266 18.4677 7.75203 19.1422 8.24931 19.6394C8.74659 20.1367 9.42105 20.4161 10.1243 20.4161C10.8276 20.4161 11.502 20.1367 11.9993 19.6394L12.3743 19.2644" stroke="#495057" stroke-width="1.125" stroke-linecap="round" stroke-linejoin="round"/>
</g>
<defs>
<clipPath id="clip0_0_2553">
<rect width="18" height="18" fill="white" transform="translate(4.5 5.38965)"/>
</clipPath>
</defs>
</svg>
