<svg width="28" height="29" viewBox="0 0 28 29" fill="none" xmlns="http://www.w3.org/2000/svg">
<path d="M0.5 4.38965C0.5 2.45665 2.067 0.889648 4 0.889648H27.5V27.8896H4C2.067 27.8896 0.5 26.3226 0.5 24.3896V4.38965Z" fill="white"/>
<path d="M0.5 4.38965C0.5 2.45665 2.067 0.889648 4 0.889648H27.5V27.8896H4C2.067 27.8896 0.5 26.3226 0.5 24.3896V4.38965Z" stroke="#DEE2E6"/>
<g clip-path="url(#clip0_0_2537)">
<path d="M10.25 9.13965H14.75C15.4462 9.13965 16.1139 9.41621 16.6062 9.90849C17.0984 10.4008 17.375 11.0685 17.375 11.7646C17.375 12.4608 17.0984 13.1285 16.6062 13.6208C16.1139 14.1131 15.4462 14.3896 14.75 14.3896H10.25V9.13965Z" stroke="#495057" stroke-width="1.125" stroke-linecap="round" stroke-linejoin="round"/>
<path d="M14.75 14.3896H15.5C16.1962 14.3896 16.8639 14.6662 17.3562 15.1585C17.8484 15.6508 18.125 16.3185 18.125 17.0146C18.125 17.7108 17.8484 18.3785 17.3562 18.8708C16.8639 19.3631 16.1962 19.6396 15.5 19.6396H10.25V14.3896" stroke="#495057" stroke-width="1.125" stroke-linecap="round" stroke-linejoin="round"/>
</g>
<defs>
<clipPath id="clip0_0_2537">
<rect width="18" height="18" fill="white" transform="translate(5 5.38965)"/>
</clipPath>
</defs>
</svg>
