<svg width="28" height="29" viewBox="0 0 28 29" fill="none" xmlns="http://www.w3.org/2000/svg">
<mask id="path-1-inside-1_0_2581" fill="white">
<path d="M0 0.389648H24C26.2091 0.389648 28 2.18051 28 4.38965V24.3896C28 26.5988 26.2091 28.3896 24 28.3896H0V0.389648Z"/>
</mask>
<path d="M0 0.389648H24C26.2091 0.389648 28 2.18051 28 4.38965V24.3896C28 26.5988 26.2091 28.3896 24 28.3896H0V0.389648Z" fill="white"/>
<path d="M0 -0.610352H24C26.7614 -0.610352 29 1.62822 29 4.38965H27C27 2.73279 25.6569 1.38965 24 1.38965H0V-0.610352ZM29 24.3896C29 27.1511 26.7614 29.3896 24 29.3896H0V27.3896H24C25.6569 27.3896 27 26.0465 27 24.3896H29ZM0 28.3896V0.389648V28.3896ZM24 -0.610352C26.7614 -0.610352 29 1.62822 29 4.38965V24.3896C29 27.1511 26.7614 29.3896 24 29.3896V27.3896C25.6569 27.3896 27 26.0465 27 24.3896V4.38965C27 2.73279 25.6569 1.38965 24 1.38965V-0.610352Z" fill="#DEE2E6" mask="url(#path-1-inside-1_0_2581)"/>
<g clip-path="url(#clip0_0_2581)">
<path d="M9 16.6396H20.25" stroke="#495057" stroke-width="1.125" stroke-linecap="round" stroke-linejoin="round"/>
<path d="M20.25 19.6396H9" stroke="#495057" stroke-width="1.125" stroke-linecap="round" stroke-linejoin="round"/>
<path d="M15.75 13.6396H20.25" stroke="#495057" stroke-width="1.125" stroke-linecap="round" stroke-linejoin="round"/>
<path d="M20.25 10.6396H15.75" stroke="#495057" stroke-width="1.125" stroke-linecap="round" stroke-linejoin="round"/>
<path d="M11.25 12.1396H12C12.1483 12.1396 12.2933 12.1836 12.4167 12.266C12.54 12.3485 12.6361 12.4656 12.6929 12.6026C12.7497 12.7397 12.7645 12.8905 12.7356 13.036C12.7067 13.1815 12.6352 13.3151 12.5303 13.42C12.4254 13.5249 12.2918 13.5963 12.1463 13.6252C12.0008 13.6542 11.85 13.6393 11.713 13.5826C11.5759 13.5258 11.4588 13.4297 11.3764 13.3063C11.294 13.183 11.25 13.038 11.25 12.8896V11.0146C11.25 10.6168 11.408 10.2353 11.6893 9.95399C11.9706 9.67268 12.3522 9.51465 12.75 9.51465" stroke="#495057" stroke-width="1.125" stroke-linecap="round" stroke-linejoin="round"/>
<path d="M6.75 12.1396H7.5C7.64834 12.1396 7.79334 12.1836 7.91668 12.266C8.04001 12.3485 8.13614 12.4656 8.19291 12.6026C8.24968 12.7397 8.26453 12.8905 8.23559 13.036C8.20665 13.1815 8.13522 13.3151 8.03033 13.42C7.92544 13.5249 7.7918 13.5963 7.64632 13.6252C7.50083 13.6542 7.35003 13.6393 7.21299 13.5826C7.07594 13.5258 6.95881 13.4297 6.8764 13.3063C6.79399 13.183 6.75 13.038 6.75 12.8896V11.0146C6.75 10.6168 6.90804 10.2353 7.18934 9.95399C7.47064 9.67268 7.85218 9.51465 8.25 9.51465" stroke="#495057" stroke-width="1.125" stroke-linecap="round" stroke-linejoin="round"/>
</g>
<defs>
<clipPath id="clip0_0_2581">
<rect width="18" height="18" fill="white" transform="translate(4.5 5.38965)"/>
</clipPath>
</defs>
</svg>
