<svg width="44" height="45" viewBox="0 0 44 45" fill="none" xmlns="http://www.w3.org/2000/svg">
<g clip-path="url(#clip0_0_2401)">
<path d="M43.1518 22.3669C43.1518 10.6677 33.6677 1.18359 21.9685 1.18359C10.2693 1.18359 0.785156 10.6677 0.785156 22.3669C0.785156 34.0662 10.2693 43.5503 21.9685 43.5503C33.6677 43.5503 43.1518 34.0662 43.1518 22.3669Z" fill="white"/>
<path d="M26.5833 16.5C26.3402 16.5 26.1071 16.4034 25.9352 16.2315C25.7632 16.0596 25.6667 15.8265 25.6667 15.5833C25.6667 15.3402 25.7632 15.1071 25.9352 14.9352C26.1071 14.7633 26.3402 14.6667 26.5833 14.6667C26.8264 14.6667 27.0596 14.7633 27.2315 14.9352C27.4034 15.1071 27.5 15.3402 27.5 15.5833C27.5 15.8265 27.4034 16.0596 27.2315 16.2315C27.0596 16.4034 26.8264 16.5 26.5833 16.5ZM26.5833 18.3333C27.3127 18.3333 28.0122 18.0436 28.5279 17.5279C29.0436 17.0122 29.3333 16.3127 29.3333 15.5833C29.3333 14.854 29.0436 14.1545 28.5279 13.6388C28.0122 13.1231 27.3127 12.8333 26.5833 12.8333C25.854 12.8333 25.1545 13.1231 24.6388 13.6388C24.1231 14.1545 23.8333 14.854 23.8333 15.5833C23.8333 16.3127 24.1231 17.0122 24.6388 17.5279C25.1545 18.0436 25.854 18.3333 26.5833 18.3333ZM17.4167 13.75C16.4442 13.75 15.5116 14.1363 14.8239 14.824C14.1363 15.5116 13.75 16.4442 13.75 17.4167V19.25H15.5833V17.4167C15.5833 16.9304 15.7765 16.4641 16.1203 16.1203C16.4641 15.7765 16.9304 15.5833 17.4167 15.5833H20.1667V13.75H17.4167ZM26.5833 30.25C27.5558 30.25 28.4884 29.8637 29.1761 29.1761C29.8637 28.4884 30.25 27.5558 30.25 26.5833V24.75H28.4167V26.5833C28.4167 27.0696 28.2235 27.5359 27.8797 27.8797C27.5359 28.2235 27.0696 28.4167 26.5833 28.4167H23.8333V30.25H26.5833ZM18.3333 22.9167C18.3333 22.6736 18.2368 22.4404 18.0648 22.2685C17.8929 22.0966 17.6598 22 17.4167 22C17.1736 22 16.9404 22.0966 16.7685 22.2685C16.5966 22.4404 16.5 22.6736 16.5 22.9167C16.5 23.1598 16.5966 23.3929 16.7685 23.5649C16.9404 23.7368 17.1736 23.8333 17.4167 23.8333C17.6598 23.8333 17.8929 23.7368 18.0648 23.5649C18.2368 23.3929 18.3333 23.1598 18.3333 22.9167ZM20.1667 22.9167C20.1667 23.2778 20.0955 23.6354 19.9573 23.9691C19.8191 24.3027 19.6166 24.6059 19.3612 24.8612C19.1058 25.1166 18.8027 25.3191 18.469 25.4573C18.1354 25.5955 17.7778 25.6667 17.4167 25.6667C17.0555 25.6667 16.6979 25.5955 16.3643 25.4573C16.0306 25.3191 15.7275 25.1166 15.4721 24.8612C15.2168 24.6059 15.0142 24.3027 14.876 23.9691C14.7378 23.6354 14.6667 23.2778 14.6667 22.9167C14.6667 22.1873 14.9564 21.4879 15.4721 20.9721C15.9878 20.4564 16.6873 20.1667 17.4167 20.1667C18.146 20.1667 18.8455 20.4564 19.3612 20.9721C19.8769 21.4879 20.1667 22.1873 20.1667 22.9167ZM26.5833 21.0833C26.0971 21.0833 25.6308 21.2765 25.287 21.6203C24.9432 21.9641 24.75 22.4304 24.75 22.9167H22.9167C22.9167 21.9442 23.303 21.0116 23.9906 20.324C24.6782 19.6363 25.6109 19.25 26.5833 19.25C27.5558 19.25 28.4884 19.6363 29.1761 20.324C29.8637 21.0116 30.25 21.9442 30.25 22.9167H28.4167C28.4167 22.4304 28.2235 21.9641 27.8797 21.6203C27.5359 21.2765 27.0696 21.0833 26.5833 21.0833ZM15.5833 30.25C15.5833 29.7638 15.7765 29.2975 16.1203 28.9536C16.4641 28.6098 16.9304 28.4167 17.4167 28.4167C17.9029 28.4167 18.3692 28.6098 18.713 28.9536C19.0568 29.2975 19.25 29.7638 19.25 30.25H21.0833C21.0833 29.2775 20.697 28.3449 20.0094 27.6573C19.3218 26.9697 18.3891 26.5833 17.4167 26.5833C16.4442 26.5833 15.5116 26.9697 14.8239 27.6573C14.1363 28.3449 13.75 29.2775 13.75 30.25H15.5833Z" fill="black"/>
<path d="M43.1518 22.3669C43.1518 10.6677 33.6677 1.18359 21.9685 1.18359C10.2693 1.18359 0.785156 10.6677 0.785156 22.3669C0.785156 34.0662 10.2693 43.5503 21.9685 43.5503C33.6677 43.5503 43.1518 34.0662 43.1518 22.3669Z" stroke="#E6E6E6" stroke-width="1.36667"/>
</g>
<defs>
<clipPath id="clip0_0_2401">
<rect width="43.7333" height="43.7333" fill="white" transform="translate(0.101562 0.5)"/>
</clipPath>
</defs>
</svg>
