<svg width="49" height="27" viewBox="0 0 49 27" fill="none" xmlns="http://www.w3.org/2000/svg">
<path d="M35.5215 0.597656C42.6063 0.597656 48.3491 6.48116 48.3491 13.7423C48.3491 21.002 42.6063 26.8377 35.5215 26.8377H13.5701C6.48396 26.8377 0.789062 21.002 0.789062 13.7423C0.789062 6.48116 6.48396 0.597656 13.5701 0.597656H35.5215ZM26.3977 13.7423C26.3977 18.9616 30.4266 23.0424 35.5202 23.0424C40.6124 23.0424 44.6427 18.9616 44.6427 13.7423C44.6427 8.52159 40.5673 4.39426 35.5202 4.39426C30.4266 4.39426 26.3977 8.56942 26.3977 13.7423ZM22.7391 13.7423C22.7391 10.0878 24.1741 6.76679 26.4906 4.39426H24.5458C19.4509 4.39426 15.4233 8.56942 15.4233 13.7423C15.4233 18.9137 19.2664 22.8525 24.1755 23.0424H26.492C24.1741 20.6699 22.7391 17.3954 22.7391 13.7423ZM4.44763 13.7423C4.44763 18.9137 8.47656 23.0424 13.5701 23.0424H15.5149C13.1984 20.6699 11.7634 17.3954 11.7634 13.7423C11.7634 10.0878 13.1984 6.76679 15.5149 4.39426H13.5701C8.47519 4.39426 4.44763 8.56942 4.44763 13.7423Z" fill="#141519"/>
</svg>
