<svg width="28" height="29" viewBox="0 0 28 29" fill="none" xmlns="http://www.w3.org/2000/svg">
<mask id="path-1-inside-1_0_2548" fill="white">
<path d="M0 0.389648H28V28.3896H0V0.389648Z"/>
</mask>
<path d="M0 0.389648H28V28.3896H0V0.389648Z" fill="white"/>
<path d="M28 0.389648H29V-0.610352H28V0.389648ZM28 28.3896V29.3896H29V28.3896H28ZM0 1.38965H28V-0.610352H0V1.38965ZM27 0.389648V28.3896H29V0.389648H27ZM28 27.3896H0V29.3896H28V27.3896Z" fill="#DEE2E6" mask="url(#path-1-inside-1_0_2548)"/>
<g clip-path="url(#clip0_0_2548)">
<path d="M9.75 9.13965V12.8896C9.75 13.8842 10.1451 14.838 10.8483 15.5413C11.5516 16.2446 12.5054 16.6396 13.5 16.6396C14.4946 16.6396 15.4484 16.2446 16.1517 15.5413C16.8549 14.838 17.25 13.8842 17.25 12.8896V9.13965" stroke="#495057" stroke-width="1.125" stroke-linecap="round" stroke-linejoin="round"/>
<path d="M8.25 19.6396H18.75" stroke="#495057" stroke-width="1.125" stroke-linecap="round" stroke-linejoin="round"/>
</g>
<defs>
<clipPath id="clip0_0_2548">
<rect width="18" height="18" fill="white" transform="translate(4.5 5.38965)"/>
</clipPath>
</defs>
</svg>
