<svg width="8" height="12" viewBox="0 0 8 12" fill="none" xmlns="http://www.w3.org/2000/svg">
<path fill-rule="evenodd" clip-rule="evenodd" d="M0.919885 3.31832C0.708997 3.52921 0.708997 3.87111 0.919885 4.082C1.13077 4.29288 1.47268 4.29288 1.68357 4.082L4.00172 1.76383L6.31989 4.082C6.53077 4.29288 6.87268 4.29288 7.08358 4.082C7.29442 3.87111 7.29442 3.52921 7.08358 3.31832L4.38357 0.61832C4.28228 0.517052 4.14493 0.460159 4.00172 0.460159C3.85851 0.460159 3.72115 0.517052 3.61988 0.61832L0.919885 3.31832ZM7.08358 8.282C7.29442 8.07111 7.29442 7.72921 7.08358 7.51832C6.87268 7.30744 6.53077 7.30744 6.31989 7.51832L4.00172 9.83649L1.68357 7.51832C1.47268 7.30744 1.13077 7.30744 0.919885 7.51832C0.708997 7.72921 0.708997 8.07111 0.919885 8.282L3.61988 10.982C3.83077 11.1929 4.17268 11.1929 4.38357 10.982L7.08358 8.282Z" fill="#868E96"/>
</svg>
