<svg width="28" height="28" viewBox="0 0 28 28" fill="none" xmlns="http://www.w3.org/2000/svg">
<g clip-path="url(#clip0_0_2341)">
<g clip-path="url(#clip1_0_2341)">
<g clip-path="url(#clip2_0_2341)">
<mask id="mask0_0_2341" style="mask-type:luminance" maskUnits="userSpaceOnUse" x="0" y="0" width="28" height="28">
<path d="M27.5716 0.600586H0.238281V27.9339H27.5716V0.600586Z" fill="white"/>
</mask>
<g mask="url(#mask0_0_2341)">
<path d="M13.9049 27.9339C21.4528 27.9339 27.5716 21.8151 27.5716 14.2673C27.5716 6.71936 21.4528 0.600586 13.9049 0.600586C6.35705 0.600586 0.238281 6.71936 0.238281 14.2673C0.238281 21.8151 6.35705 27.9339 13.9049 27.9339Z" fill="#F0F0F0"/>
<path d="M13.3124 14.2672H27.5732C27.5732 13.0337 27.4088 11.8387 27.1024 10.702H13.3124V14.2672Z" fill="#D80027"/>
<path d="M13.3124 7.13631H25.5673C24.7307 5.77116 23.661 4.56449 22.4138 3.57109H13.3124V7.13631Z" fill="#D80027"/>
<path d="M13.9017 27.9337C17.1181 27.9337 20.0744 26.822 22.409 24.9627H5.39441C7.72898 26.822 10.6853 27.9337 13.9017 27.9337Z" fill="#D80027"/>
<path d="M2.242 21.3969H25.5635C26.2352 20.301 26.756 19.103 27.0986 17.8317H0.706909C1.04948 19.103 1.57036 20.301 2.242 21.3969Z" fill="#D80027"/>
<path d="M6.56894 2.73483H7.81437L6.6559 3.57645L7.09841 4.93826L5.94 4.09664L4.78159 4.93826L5.16383 3.7618C4.14385 4.61143 3.24986 5.60686 2.51314 6.71599H2.9122L2.17478 7.25171C2.0599 7.44337 1.94971 7.63806 1.84411 7.83564L2.19624 8.91942L1.53928 8.4421C1.37598 8.78809 1.22661 9.14188 1.09234 9.50303L1.48029 10.6972H2.9122L1.75373 11.5388L2.19624 12.9006L1.03783 12.059L0.343931 12.5631C0.274477 13.1214 0.238281 13.6901 0.238281 14.2673H13.9049C13.9049 6.71941 13.9049 5.82958 13.9049 0.600586C11.2051 0.600586 8.68839 1.38375 6.56894 2.73483ZM7.09841 12.9006L5.94 12.059L4.78159 12.9006L5.22411 11.5388L4.06564 10.6972H5.49755L5.94 9.33535L6.38246 10.6972H7.81437L6.6559 11.5388L7.09841 12.9006ZM6.6559 7.55761L7.09841 8.91942L5.94 8.0778L4.78159 8.91942L5.22411 7.55761L4.06564 6.71599H5.49755L5.94 5.35418L6.38246 6.71599H7.81437L6.6559 7.55761ZM12.0006 12.9006L10.8422 12.059L9.68376 12.9006L10.1263 11.5388L8.96781 10.6972H10.3997L10.8422 9.33535L11.2846 10.6972H12.7165L11.5581 11.5388L12.0006 12.9006ZM11.5581 7.55761L12.0006 8.91942L10.8422 8.0778L9.68376 8.91942L10.1263 7.55761L8.96781 6.71599H10.3997L10.8422 5.35418L11.2846 6.71599H12.7165L11.5581 7.55761ZM11.5581 3.57645L12.0006 4.93826L10.8422 4.09664L9.68376 4.93826L10.1263 3.57645L8.96781 2.73483H10.3997L10.8422 1.37302L11.2846 2.73483H12.7165L11.5581 3.57645Z" fill="#0052B4"/>
</g>
</g>
</g>
</g>
<defs>
<clipPath id="clip0_0_2341">
<rect width="27.3333" height="27.3333" fill="white" transform="translate(0.234375 0.599609)"/>
</clipPath>
<clipPath id="clip1_0_2341">
<rect width="27.3333" height="27.3333" fill="white" transform="translate(0.234375 0.599609)"/>
</clipPath>
<clipPath id="clip2_0_2341">
<rect width="27.3333" height="27.3333" fill="white" transform="translate(0.234375 0.599609)"/>
</clipPath>
</defs>
</svg>
