<svg width="16" height="16" viewBox="0 0 16 16" fill="none" xmlns="http://www.w3.org/2000/svg">
<path fill-rule="evenodd" clip-rule="evenodd" d="M15.5 3H9.00833C8.75954 2.38381 8.33229 1.85602 7.78142 1.48437C7.23055 1.11271 6.58119 0.914139 5.91667 0.914139C5.25215 0.914139 4.60278 1.11271 4.05191 1.48437C3.50104 1.85602 3.0738 2.38381 2.825 3H0.5V5.5H2.825C3.0738 6.11619 3.50104 6.64398 4.05191 7.01564C4.60278 7.38729 5.25215 7.58586 5.91667 7.58586C6.58119 7.58586 7.23055 7.38729 7.78142 7.01564C8.33229 6.64398 8.75954 6.11619 9.00833 5.5H15.5V3ZM6.99167 10.5H0.5V13H6.99167C7.24046 13.6162 7.66771 14.144 8.21858 14.5156C8.76945 14.8873 9.41881 15.0859 10.0833 15.0859C10.7479 15.0859 11.3972 14.8873 11.9481 14.5156C12.499 14.144 12.9262 13.6162 13.175 13H15.5V10.5H13.175C12.9262 9.88381 12.499 9.35602 11.9481 8.98437C11.3972 8.61271 10.7479 8.41414 10.0833 8.41414C9.41881 8.41414 8.76945 8.61271 8.21858 8.98437C7.66771 9.35602 7.24046 9.88381 6.99167 10.5Z" fill="#EAECEF"/>
</svg>
