<svg width="122" height="134" viewBox="0 0 122 134" fill="none" xmlns="http://www.w3.org/2000/svg">
<path opacity="0.5" d="M96.4492 28H76.4492V8L96.4492 28Z" fill="#AEB4BC"/>
<path opacity="0.2" fill-rule="evenodd" clip-rule="evenodd" d="M36.4492 8H76.4492V28H96.4492V88H36.4492V8ZM46.4492 38H86.4492V42H46.4492V38ZM86.4492 46H46.4492V50H86.4492V46ZM46.4492 54H86.4492V58H46.4492V54Z" fill="#AEB4BC"/>
<path fill-rule="evenodd" clip-rule="evenodd" d="M34.586 64.1055C42.414 69.8865 53.502 69.2325 60.591 62.1425C68.401 54.3325 68.401 41.6685 60.591 33.8585C52.781 26.0485 40.117 26.0485 32.307 33.8585C25.217 40.9485 24.563 52.0355 30.343 59.8635L16.043 74.1635L20.286 78.4065L34.586 64.1055ZM56.349 57.9005C50.882 63.3685 42.018 63.3685 36.55 57.9005C31.083 52.4335 31.083 43.5695 36.55 38.1015C42.018 32.6345 50.882 32.6345 56.35 38.1015C61.817 43.5695 61.817 52.4335 56.35 57.9015L56.349 57.9005Z" fill="#AEB4BC"/>
<path d="M8.79785 118.375V128H7.66992L2.42505 120.443H2.33105V128H1.16553V118.375H2.29346L7.55713 125.951H7.65112V118.375H8.79785ZM13.9123 128.15C13.2606 128.15 12.6888 127.995 12.1969 127.685C11.7081 127.375 11.3259 126.941 11.0502 126.383C10.7776 125.826 10.6413 125.174 10.6413 124.428C10.6413 123.676 10.7776 123.02 11.0502 122.459C11.3259 121.898 11.7081 121.463 12.1969 121.153C12.6888 120.842 13.2606 120.687 13.9123 120.687C14.564 120.687 15.1342 120.842 15.623 121.153C16.1149 121.463 16.4971 121.898 16.7697 122.459C17.0454 123.02 17.1833 123.676 17.1833 124.428C17.1833 125.174 17.0454 125.826 16.7697 126.383C16.4971 126.941 16.1149 127.375 15.623 127.685C15.1342 127.995 14.564 128.15 13.9123 128.15ZM13.9123 127.154C14.4073 127.154 14.8147 127.027 15.1342 126.773C15.4538 126.52 15.6904 126.186 15.8439 125.772C15.9974 125.359 16.0742 124.911 16.0742 124.428C16.0742 123.946 15.9974 123.496 15.8439 123.079C15.6904 122.663 15.4538 122.326 15.1342 122.069C14.8147 121.812 14.4073 121.684 13.9123 121.684C13.4173 121.684 13.01 121.812 12.6904 122.069C12.3708 122.326 12.1343 122.663 11.9807 123.079C11.8272 123.496 11.7504 123.946 11.7504 124.428C11.7504 124.911 11.8272 125.359 11.9807 125.772C12.1343 126.186 12.3708 126.52 12.6904 126.773C13.01 127.027 13.4173 127.154 13.9123 127.154ZM22.5985 130.707V120.781H23.6701V121.928H23.8017C23.8831 121.803 23.9959 121.643 24.14 121.449C24.2873 121.251 24.4972 121.076 24.7698 120.922C25.0455 120.766 25.4184 120.687 25.8883 120.687C26.4962 120.687 27.0319 120.839 27.4956 121.143C27.9593 121.447 28.3212 121.878 28.5813 122.436C28.8413 122.993 28.9713 123.651 28.9713 124.409C28.9713 125.174 28.8413 125.837 28.5813 126.397C28.3212 126.955 27.9609 127.387 27.5003 127.695C27.0398 127.998 26.5087 128.15 25.9071 128.15C25.4434 128.15 25.0722 128.074 24.7933 127.92C24.5145 127.763 24.2998 127.586 24.1494 127.389C23.9991 127.189 23.8831 127.022 23.8017 126.891H23.7077V130.707H22.5985ZM23.6889 124.391C23.6889 124.936 23.7688 125.417 23.9286 125.833C24.0883 126.247 24.3218 126.571 24.6288 126.806C24.9359 127.038 25.3118 127.154 25.7567 127.154C26.2204 127.154 26.6074 127.032 26.9176 126.787C27.2309 126.54 27.4659 126.208 27.6225 125.791C27.7823 125.371 27.8622 124.904 27.8622 124.391C27.8622 123.883 27.7839 123.426 27.6272 123.018C27.4737 122.608 27.2403 122.284 26.927 122.045C26.6168 121.804 26.2267 121.684 25.7567 121.684C25.3056 121.684 24.9265 121.798 24.6194 122.027C24.3124 122.252 24.0805 122.569 23.9239 122.976C23.7672 123.38 23.6889 123.852 23.6889 124.391ZM33.5959 128.15C32.9442 128.15 32.3724 127.995 31.8805 127.685C31.3917 127.375 31.0095 126.941 30.7337 126.383C30.4612 125.826 30.3249 125.174 30.3249 124.428C30.3249 123.676 30.4612 123.02 30.7337 122.459C31.0095 121.898 31.3917 121.463 31.8805 121.153C32.3724 120.842 32.9442 120.687 33.5959 120.687C34.2475 120.687 34.8178 120.842 35.3065 121.153C35.7985 121.463 36.1807 121.898 36.4533 122.459C36.729 123.02 36.8669 123.676 36.8669 124.428C36.8669 125.174 36.729 125.826 36.4533 126.383C36.1807 126.941 35.7985 127.375 35.3065 127.685C34.8178 127.995 34.2475 128.15 33.5959 128.15ZM33.5959 127.154C34.0909 127.154 34.4982 127.027 34.8178 126.773C35.1374 126.52 35.3739 126.186 35.5274 125.772C35.681 125.359 35.7577 124.911 35.7577 124.428C35.7577 123.946 35.681 123.496 35.5274 123.079C35.3739 122.663 35.1374 122.326 34.8178 122.069C34.4982 121.812 34.0909 121.684 33.5959 121.684C33.1008 121.684 32.6935 121.812 32.3739 122.069C32.0544 122.326 31.8178 122.663 31.6643 123.079C31.5108 123.496 31.434 123.946 31.434 124.428C31.434 124.911 31.5108 125.359 31.6643 125.772C31.8178 126.186 32.0544 126.52 32.3739 126.773C32.6935 127.027 33.1008 127.154 33.5959 127.154ZM38.5599 128V120.781H39.6315V121.872H39.7066C39.8382 121.514 40.0764 121.225 40.421 121.002C40.7657 120.78 41.1542 120.668 41.5865 120.668C41.668 120.668 41.7698 120.67 41.892 120.673C42.0142 120.676 42.1066 120.681 42.1693 120.687V121.815C42.1317 121.806 42.0455 121.792 41.9108 121.773C41.7792 121.751 41.6398 121.74 41.4925 121.74C41.1416 121.74 40.8283 121.814 40.5526 121.961C40.28 122.105 40.0638 122.306 39.904 122.562C39.7474 122.816 39.6691 123.106 39.6691 123.432V128H38.5599ZM47.0758 120.781V121.721H43.3348V120.781H47.0758ZM44.4252 119.052H45.5343V125.932C45.5343 126.245 45.5797 126.48 45.6706 126.637C45.7646 126.791 45.8836 126.894 46.0278 126.947C46.175 126.997 46.3301 127.022 46.493 127.022C46.6152 127.022 46.7155 127.016 46.7938 127.004C46.8721 126.988 46.9348 126.975 46.9818 126.966L47.2074 127.962C47.1322 127.991 47.0272 128.019 46.8925 128.047C46.7578 128.078 46.587 128.094 46.3802 128.094C46.0669 128.094 45.7599 128.027 45.4591 127.892C45.1614 127.757 44.9139 127.552 44.7165 127.276C44.5223 127.001 44.4252 126.653 44.4252 126.233V119.052ZM51.9588 120.781V121.721H48.0674V120.781H51.9588ZM49.233 128V119.785C49.233 119.371 49.3301 119.027 49.5243 118.751C49.7186 118.475 49.9708 118.268 50.281 118.131C50.5912 117.993 50.9186 117.924 51.2632 117.924C51.5358 117.924 51.7583 117.946 51.9306 117.99C52.1029 118.033 52.2314 118.074 52.316 118.112L51.9964 119.071C51.94 119.052 51.8617 119.028 51.7614 119C51.6643 118.972 51.5358 118.958 51.376 118.958C51.0094 118.958 50.7447 119.05 50.5818 119.235C50.422 119.42 50.3421 119.691 50.3421 120.048V128H49.233ZM56.1486 128.15C55.4969 128.15 54.9251 127.995 54.4332 127.685C53.9444 127.375 53.5622 126.941 53.2865 126.383C53.0139 125.826 52.8776 125.174 52.8776 124.428C52.8776 123.676 53.0139 123.02 53.2865 122.459C53.5622 121.898 53.9444 121.463 54.4332 121.153C54.9251 120.842 55.4969 120.687 56.1486 120.687C56.8003 120.687 57.3705 120.842 57.8593 121.153C58.3512 121.463 58.7334 121.898 59.006 122.459C59.2817 123.02 59.4196 123.676 59.4196 124.428C59.4196 125.174 59.2817 125.826 59.006 126.383C58.7334 126.941 58.3512 127.375 57.8593 127.685C57.3705 127.995 56.8003 128.15 56.1486 128.15ZM56.1486 127.154C56.6436 127.154 57.0509 127.027 57.3705 126.773C57.6901 126.52 57.9266 126.186 58.0802 125.772C58.2337 125.359 58.3104 124.911 58.3104 124.428C58.3104 123.946 58.2337 123.496 58.0802 123.079C57.9266 122.663 57.6901 122.326 57.3705 122.069C57.0509 121.812 56.6436 121.684 56.1486 121.684C55.6535 121.684 55.2462 121.812 54.9267 122.069C54.6071 122.326 54.3705 122.663 54.217 123.079C54.0635 123.496 53.9867 123.946 53.9867 124.428C53.9867 124.911 54.0635 125.359 54.217 125.772C54.3705 126.186 54.6071 126.52 54.9267 126.773C55.2462 127.027 55.6535 127.154 56.1486 127.154ZM62.2218 118.375V128H61.1126V118.375H62.2218ZM64.2532 128V120.781H65.3624V128H64.2532ZM64.8172 119.578C64.601 119.578 64.4146 119.504 64.2579 119.357C64.1044 119.21 64.0276 119.033 64.0276 118.826C64.0276 118.619 64.1044 118.442 64.2579 118.295C64.4146 118.148 64.601 118.074 64.8172 118.074C65.0334 118.074 65.2182 118.148 65.3717 118.295C65.5284 118.442 65.6067 118.619 65.6067 118.826C65.6067 119.033 65.5284 119.21 65.3717 119.357C65.2182 119.504 65.0334 119.578 64.8172 119.578ZM70.3264 128.15C69.6747 128.15 69.1029 127.995 68.611 127.685C68.1223 127.375 67.74 126.941 67.4643 126.383C67.1917 125.826 67.0554 125.174 67.0554 124.428C67.0554 123.676 67.1917 123.02 67.4643 122.459C67.74 121.898 68.1223 121.463 68.611 121.153C69.1029 120.842 69.6747 120.687 70.3264 120.687C70.9781 120.687 71.5483 120.842 72.0371 121.153C72.529 121.463 72.9113 121.898 73.1838 122.459C73.4596 123.02 73.5974 123.676 73.5974 124.428C73.5974 125.174 73.4596 125.826 73.1838 126.383C72.9113 126.941 72.529 127.375 72.0371 127.685C71.5483 127.995 70.9781 128.15 70.3264 128.15ZM70.3264 127.154C70.8215 127.154 71.2288 127.027 71.5483 126.773C71.8679 126.52 72.1045 126.186 72.258 125.772C72.4115 125.359 72.4883 124.911 72.4883 124.428C72.4883 123.946 72.4115 123.496 72.258 123.079C72.1045 122.663 71.8679 122.326 71.5483 122.069C71.2288 121.812 70.8215 121.684 70.3264 121.684C69.8314 121.684 69.4241 121.812 69.1045 122.069C68.7849 122.326 68.5484 122.663 68.3948 123.079C68.2413 123.496 68.1646 123.946 68.1646 124.428C68.1646 124.911 68.2413 125.359 68.3948 125.772C68.5484 126.186 68.7849 126.52 69.1045 126.773C69.4241 127.027 69.8314 127.154 70.3264 127.154ZM80.4038 122.398L79.4074 122.68C79.3448 122.514 79.2523 122.353 79.1301 122.196C79.0111 122.036 78.8482 121.904 78.6414 121.801C78.4346 121.698 78.1698 121.646 77.8471 121.646C77.4053 121.646 77.0372 121.748 76.7427 121.951C76.4513 122.152 76.3056 122.407 76.3056 122.718C76.3056 122.993 76.4059 123.211 76.6064 123.371C76.8069 123.531 77.1202 123.664 77.5463 123.77L78.6179 124.033C79.2633 124.19 79.7442 124.43 80.0607 124.753C80.3771 125.072 80.5354 125.484 80.5354 125.989C80.5354 126.402 80.4163 126.772 80.1782 127.098C79.9432 127.424 79.6142 127.68 79.1912 127.868C78.7683 128.056 78.2764 128.15 77.7155 128.15C76.9792 128.15 76.3698 127.991 75.8873 127.671C75.4048 127.351 75.0994 126.885 74.9709 126.271L76.0236 126.007C76.1239 126.396 76.3135 126.687 76.5923 126.881C76.8743 127.076 77.2424 127.173 77.6967 127.173C78.2137 127.173 78.6241 127.063 78.9281 126.844C79.2351 126.621 79.3886 126.355 79.3886 126.045C79.3886 125.794 79.3009 125.584 79.1254 125.415C78.95 125.243 78.6805 125.114 78.3171 125.03L77.114 124.748C76.4529 124.591 75.9672 124.348 75.6571 124.019C75.35 123.687 75.1965 123.272 75.1965 122.774C75.1965 122.367 75.3108 122.006 75.5396 121.693C75.7714 121.38 76.0863 121.134 76.4842 120.955C76.8852 120.777 77.3396 120.687 77.8471 120.687C78.5615 120.687 79.1223 120.844 79.5296 121.157C79.9401 121.471 80.2314 121.884 80.4038 122.398ZM89.1417 120.781V121.721H85.2503V120.781H89.1417ZM86.4159 128V119.785C86.4159 119.371 86.513 119.027 86.7072 118.751C86.9015 118.475 87.1537 118.268 87.4639 118.131C87.7741 117.993 88.1015 117.924 88.4461 117.924C88.7187 117.924 88.9412 117.946 89.1135 117.99C89.2858 118.033 89.4143 118.074 89.4989 118.112L89.1793 119.071C89.1229 119.052 89.0446 119.028 88.9443 119C88.8472 118.972 88.7187 118.958 88.5589 118.958C88.1924 118.958 87.9276 119.05 87.7647 119.235C87.6049 119.42 87.525 119.691 87.525 120.048V128H86.4159ZM93.3315 128.15C92.6798 128.15 92.108 127.995 91.6161 127.685C91.1273 127.375 90.7451 126.941 90.4694 126.383C90.1968 125.826 90.0605 125.174 90.0605 124.428C90.0605 123.676 90.1968 123.02 90.4694 122.459C90.7451 121.898 91.1273 121.463 91.6161 121.153C92.108 120.842 92.6798 120.687 93.3315 120.687C93.9832 120.687 94.5534 120.842 95.0422 121.153C95.5341 121.463 95.9163 121.898 96.1889 122.459C96.4646 123.02 96.6025 123.676 96.6025 124.428C96.6025 125.174 96.4646 125.826 96.1889 126.383C95.9163 126.941 95.5341 127.375 95.0422 127.685C94.5534 127.995 93.9832 128.15 93.3315 128.15ZM93.3315 127.154C93.8265 127.154 94.2338 127.027 94.5534 126.773C94.873 126.52 95.1095 126.186 95.2631 125.772C95.4166 125.359 95.4933 124.911 95.4933 124.428C95.4933 123.946 95.4166 123.496 95.2631 123.079C95.1095 122.663 94.873 122.326 94.5534 122.069C94.2338 121.812 93.8265 121.684 93.3315 121.684C92.8364 121.684 92.4291 121.812 92.1096 122.069C91.79 122.326 91.5534 122.663 91.3999 123.079C91.2464 123.496 91.1696 123.946 91.1696 124.428C91.1696 124.911 91.2464 125.359 91.3999 125.772C91.5534 126.186 91.79 126.52 92.1096 126.773C92.4291 127.027 92.8364 127.154 93.3315 127.154ZM102.845 125.049V120.781H103.954V128H102.845V126.778H102.77C102.6 127.145 102.337 127.456 101.98 127.713C101.623 127.967 101.172 128.094 100.627 128.094C100.175 128.094 99.7744 127.995 99.4235 127.798C99.0726 127.597 98.7968 127.297 98.5963 126.896C98.3958 126.491 98.2955 125.982 98.2955 125.368V120.781H99.4047V125.293C99.4047 125.819 99.5519 126.239 99.8465 126.552C100.144 126.866 100.523 127.022 100.984 127.022C101.259 127.022 101.54 126.952 101.825 126.811C102.113 126.67 102.355 126.454 102.549 126.162C102.746 125.871 102.845 125.5 102.845 125.049ZM107.095 123.657V128H105.985V120.781H107.057V121.909H107.151C107.32 121.543 107.577 121.248 107.922 121.026C108.266 120.8 108.711 120.687 109.256 120.687C109.745 120.687 110.173 120.788 110.539 120.988C110.906 121.185 111.191 121.486 111.395 121.89C111.598 122.291 111.7 122.799 111.7 123.413V128H110.591V123.488C110.591 122.921 110.444 122.479 110.149 122.163C109.855 121.843 109.451 121.684 108.937 121.684C108.583 121.684 108.266 121.76 107.988 121.914C107.712 122.067 107.494 122.291 107.334 122.586C107.174 122.88 107.095 123.238 107.095 123.657ZM116.453 128.15C115.851 128.15 115.32 127.998 114.86 127.695C114.399 127.387 114.039 126.955 113.779 126.397C113.519 125.837 113.389 125.174 113.389 124.409C113.389 123.651 113.519 122.993 113.779 122.436C114.039 121.878 114.401 121.447 114.864 121.143C115.328 120.839 115.864 120.687 116.472 120.687C116.942 120.687 117.313 120.766 117.585 120.922C117.861 121.076 118.071 121.251 118.215 121.449C118.363 121.643 118.477 121.803 118.558 121.928H118.652V118.375H119.761V128H118.69V126.891H118.558C118.477 127.022 118.361 127.189 118.211 127.389C118.06 127.586 117.846 127.763 117.567 127.92C117.288 128.074 116.917 128.15 116.453 128.15ZM116.603 127.154C117.048 127.154 117.424 127.038 117.731 126.806C118.038 126.571 118.272 126.247 118.431 125.833C118.591 125.417 118.671 124.936 118.671 124.391C118.671 123.852 118.593 123.38 118.436 122.976C118.279 122.569 118.048 122.252 117.741 122.027C117.434 121.798 117.054 121.684 116.603 121.684C116.133 121.684 115.742 121.804 115.428 122.045C115.118 122.284 114.885 122.608 114.728 123.018C114.575 123.426 114.498 123.883 114.498 124.391C114.498 124.904 114.576 125.371 114.733 125.791C114.893 126.208 115.128 126.54 115.438 126.787C115.751 127.032 116.14 127.154 116.603 127.154Z" fill="#848E9C"/>
</svg>
