<svg width="16" height="16" viewBox="0 0 16 16" fill="none" xmlns="http://www.w3.org/2000/svg">
<path fill-rule="evenodd" clip-rule="evenodd" d="M7.16775 3C8.27282 3 9.33263 3.43899 10.114 4.22039C10.8954 5.00179 11.3344 6.0616 11.3344 7.16667C11.3344 8.27174 10.8954 9.33154 10.114 10.1129C9.33263 10.8943 8.27282 11.3333 7.16775 11.3333C6.06268 11.3333 5.00287 10.8943 4.22147 10.1129C3.44007 9.33154 3.00108 8.27174 3.00108 7.16667C3.00108 6.0616 3.44007 5.00179 4.22147 4.22039C5.00287 3.43899 6.06268 3 7.16775 3ZM7.16775 0.5C8.32499 0.499746 9.46237 0.800734 10.468 1.37336C11.4736 1.94599 12.3129 2.77052 12.9032 3.76587C13.4936 4.76122 13.8146 5.8931 13.8349 7.05016C13.8551 8.20723 13.5738 9.34963 13.0186 10.365L15.5769 12.9233L14.2519 14.2492L12.9261 15.575L10.3677 13.0167C9.47632 13.5039 8.48534 13.7809 7.4705 13.8266C6.45566 13.8723 5.44379 13.6855 4.51218 13.2804C3.58057 12.8753 2.75385 12.2626 2.09517 11.4893C1.43649 10.7159 0.963272 9.80217 0.711648 8.81795C0.460024 7.83373 0.436654 6.80503 0.643323 5.8104C0.849992 4.81577 1.28123 3.88153 1.90411 3.07902C2.52699 2.27652 3.32503 1.62697 4.23728 1.17999C5.14954 0.733015 6.15188 0.50043 7.16775 0.5Z" fill="#EAECEF"/>
</svg>
