<svg width="115" height="22" viewBox="0 0 115 22" fill="none" xmlns="http://www.w3.org/2000/svg">
<path d="M24.515 16L21.7793 6.13636H23.3446L25.2663 13.7749H25.3578L27.3565 6.13636H28.9074L30.9061 13.7797H30.9976L32.9145 6.13636H34.4846L31.7441 16H30.2463L28.1705 8.61191H28.0934L26.0176 16H24.515ZM37.1503 16.1638C36.6816 16.1638 36.2577 16.0771 35.8789 15.9037C35.5 15.7271 35.1998 15.4718 34.9782 15.1379C34.7599 14.804 34.6507 14.3946 34.6507 13.9098C34.6507 13.4924 34.731 13.1488 34.8915 12.8791C35.0521 12.6094 35.2688 12.3959 35.5417 12.2385C35.8146 12.0812 36.1197 11.9624 36.4568 11.8821C36.7939 11.8019 37.1375 11.7408 37.4875 11.6991C37.9306 11.6477 38.2902 11.606 38.5663 11.5739C38.8424 11.5386 39.0431 11.4824 39.1683 11.4053C39.2936 11.3283 39.3562 11.203 39.3562 11.0297V10.9959C39.3562 10.5753 39.2374 10.2494 38.9998 10.0182C38.7654 9.78706 38.4154 9.67148 37.9498 9.67148C37.465 9.67148 37.0829 9.77904 36.8036 9.99416C36.5274 10.2061 36.3364 10.4421 36.2304 10.7021L34.8771 10.3939C35.0376 9.9444 35.272 9.58157 35.5802 9.30544C35.8917 9.0261 36.2497 8.82382 36.6543 8.6986C37.0588 8.57016 37.4843 8.50595 37.9306 8.50595C38.226 8.50595 38.539 8.54127 38.8697 8.61191C39.2037 8.67933 39.5151 8.80455 39.8041 8.98757C40.0963 9.17059 40.3355 9.43227 40.5217 9.77262C40.7079 10.1098 40.801 10.548 40.801 11.0874V16H39.3947V14.9886H39.3369C39.2438 15.1748 39.1041 15.3578 38.9179 15.5376C38.7317 15.7174 38.4925 15.8668 38.2003 15.9856C37.9081 16.1044 37.5581 16.1638 37.1503 16.1638ZM37.4634 15.0079C37.8615 15.0079 38.2019 14.9292 38.4844 14.7719C38.7702 14.6145 38.9869 14.409 39.1346 14.1554C39.2855 13.8985 39.361 13.624 39.361 13.3318V12.3782C39.3096 12.4296 39.2101 12.4777 39.0624 12.5227C38.9179 12.5644 38.7525 12.6013 38.5663 12.6335C38.3801 12.6624 38.1987 12.6896 38.0221 12.7153C37.8455 12.7378 37.6978 12.7571 37.579 12.7731C37.2996 12.8084 37.0444 12.8678 36.8132 12.9513C36.5852 13.0348 36.4022 13.1552 36.2641 13.3125C36.1293 13.4667 36.0619 13.6722 36.0619 13.929C36.0619 14.2854 36.1935 14.5551 36.4568 14.7381C36.7201 14.918 37.0556 15.0079 37.4634 15.0079ZM46.1723 8.60227V9.75817H42.1315V8.60227H46.1723ZM43.2152 6.8299H44.6552V13.8279C44.6552 14.1072 44.697 14.3175 44.7804 14.4588C44.8639 14.5969 44.9715 14.6916 45.1031 14.743C45.238 14.7911 45.3841 14.8152 45.5414 14.8152C45.657 14.8152 45.7581 14.8072 45.8448 14.7911C45.9315 14.7751 45.999 14.7622 46.0471 14.7526L46.3072 15.9422C46.2237 15.9743 46.1049 16.0064 45.9508 16.0385C45.7967 16.0738 45.604 16.0931 45.3728 16.0963C44.994 16.1027 44.6408 16.0353 44.3133 15.894C43.9858 15.7528 43.7209 15.5344 43.5186 15.239C43.3163 14.9436 43.2152 14.5728 43.2152 14.1265V6.8299ZM50.8019 16.1493C50.0859 16.1493 49.4694 15.9872 48.9525 15.6629C48.4388 15.3354 48.0438 14.8842 47.7677 14.3095C47.4916 13.7348 47.3535 13.0765 47.3535 12.3348C47.3535 11.5835 47.4948 10.9205 47.7773 10.3457C48.0599 9.7678 48.458 9.31668 48.9718 8.99239C49.4855 8.66809 50.0907 8.50595 50.7875 8.50595C51.3494 8.50595 51.8503 8.6103 52.2902 8.819C52.73 9.0245 53.0848 9.31347 53.3545 9.68592C53.6275 10.0584 53.7896 10.4934 53.841 10.9911H52.4395C52.3624 10.6444 52.1858 10.3457 51.9097 10.0953C51.6367 9.84486 51.2707 9.71964 50.8116 9.71964C50.4102 9.71964 50.0586 9.82559 49.7568 10.0375C49.4582 10.2462 49.2254 10.5448 49.0585 10.9333C48.8915 11.3186 48.808 11.7746 48.808 12.3011C48.808 12.8406 48.8899 13.3061 49.0536 13.6978C49.2174 14.0896 49.4486 14.393 49.7472 14.6081C50.049 14.8232 50.4038 14.9308 50.8116 14.9308C51.0845 14.9308 51.3317 14.881 51.5533 14.7815C51.778 14.6787 51.9659 14.5327 52.1168 14.3432C52.2709 14.1538 52.3784 13.9258 52.4395 13.6593H53.841C53.7896 14.1377 53.6339 14.5648 53.3738 14.9404C53.1137 15.3161 52.7654 15.6115 52.3287 15.8266C51.8952 16.0417 51.3863 16.1493 50.8019 16.1493ZM56.821 11.6076V16H55.381V6.13636H56.8018V9.80633H56.8933C57.0666 9.40819 57.3315 9.09192 57.6879 8.85753C58.0443 8.62314 58.5099 8.50595 59.0846 8.50595C59.592 8.50595 60.035 8.6103 60.4139 8.819C60.796 9.02771 61.0914 9.33916 61.3001 9.75335C61.512 10.1643 61.618 10.6781 61.618 11.2945V16H60.1779V11.4679C60.1779 10.9253 60.0383 10.5047 59.7589 10.2061C59.4796 9.90426 59.0911 9.75335 58.5934 9.75335C58.253 9.75335 57.948 9.82559 57.6783 9.97008C57.4118 10.1146 57.2015 10.3265 57.0474 10.6058C56.8965 10.882 56.821 11.2159 56.821 11.6076ZM66.7581 7.41748V6.13636H74.3918V7.41748H71.3143V16H69.8309V7.41748H66.7581ZM79.6427 12.9321V8.60227H81.0876V16H79.6716V14.7189H79.5946C79.4244 15.1138 79.1515 15.4429 78.7758 15.7062C78.4033 15.9663 77.9394 16.0963 77.3839 16.0963C76.9087 16.0963 76.4881 15.992 76.1221 15.7833C75.7592 15.5714 75.4735 15.2583 75.2648 14.8441C75.0593 14.4299 74.9565 13.9178 74.9565 13.3077V8.60227H76.3966V13.1343C76.3966 13.6384 76.5362 14.0398 76.8156 14.3384C77.0949 14.637 77.4578 14.7863 77.9041 14.7863C78.1738 14.7863 78.4419 14.7189 78.7084 14.584C78.9781 14.4492 79.2012 14.2453 79.3778 13.9724C79.5576 13.6994 79.6459 13.3527 79.6427 12.9321ZM86.4757 8.60227V9.75817H82.4349V8.60227H86.4757ZM83.5186 6.8299H84.9586V13.8279C84.9586 14.1072 85.0004 14.3175 85.0839 14.4588C85.1673 14.5969 85.2749 14.6916 85.4065 14.743C85.5414 14.7911 85.6875 14.8152 85.8448 14.8152C85.9604 14.8152 86.0615 14.8072 86.1482 14.7911C86.2349 14.7751 86.3024 14.7622 86.3505 14.7526L86.6106 15.9422C86.5271 15.9743 86.4083 16.0064 86.2542 16.0385C86.1001 16.0738 85.9074 16.0931 85.6762 16.0963C85.2974 16.1027 84.9442 16.0353 84.6167 15.894C84.2892 15.7528 84.0243 15.5344 83.822 15.239C83.6197 14.9436 83.5186 14.5728 83.5186 14.1265V6.8299ZM91.1053 16.1493C90.4118 16.1493 89.8066 15.9904 89.2896 15.6725C88.7727 15.3546 88.3713 14.9099 88.0856 14.3384C87.7998 13.7669 87.6569 13.099 87.6569 12.3348C87.6569 11.5675 87.7998 10.8964 88.0856 10.3217C88.3713 9.74693 88.7727 9.30063 89.2896 8.98275C89.8066 8.66488 90.4118 8.50595 91.1053 8.50595C91.7989 8.50595 92.4041 8.66488 92.9211 8.98275C93.438 9.30063 93.8394 9.74693 94.1251 10.3217C94.4109 10.8964 94.5538 11.5675 94.5538 12.3348C94.5538 13.099 94.4109 13.7669 94.1251 14.3384C93.8394 14.9099 93.438 15.3546 92.9211 15.6725C92.4041 15.9904 91.7989 16.1493 91.1053 16.1493ZM91.1102 14.9404C91.5597 14.9404 91.9321 14.8216 92.2275 14.584C92.5229 14.3464 92.7413 14.0302 92.8825 13.6352C93.027 13.2403 93.0993 12.8052 93.0993 12.33C93.0993 11.858 93.027 11.4246 92.8825 11.0297C92.7413 10.6315 92.5229 10.312 92.2275 10.0712C91.9321 9.83041 91.5597 9.71 91.1102 9.71C90.6574 9.71 90.2818 9.83041 89.9832 10.0712C89.6878 10.312 89.4678 10.6315 89.3233 11.0297C89.1821 11.4246 89.1114 11.858 89.1114 12.33C89.1114 12.8052 89.1821 13.2403 89.3233 13.6352C89.4678 14.0302 89.6878 14.3464 89.9832 14.584C90.2818 14.8216 90.6574 14.9404 91.1102 14.9404ZM96.1612 16V8.60227H97.5531V9.77743H97.6301C97.765 9.37929 98.0026 9.06624 98.3429 8.83827C98.6865 8.60709 99.075 8.4915 99.5085 8.4915C99.5984 8.4915 99.7043 8.49471 99.8263 8.50113C99.9515 8.50755 100.049 8.51558 100.12 8.52521V9.90265C100.062 9.8866 99.9596 9.86894 99.8119 9.84968C99.6642 9.8272 99.5165 9.81596 99.3688 9.81596C99.0284 9.81596 98.725 9.88821 98.4585 10.0327C98.1952 10.174 97.9865 10.3714 97.8324 10.6251C97.6783 10.8755 97.6012 11.1613 97.6012 11.4824V16H96.1612ZM101.366 16V8.60227H102.806V16H101.366ZM102.094 7.46083C101.843 7.46083 101.628 7.37734 101.448 7.21038C101.272 7.04021 101.183 6.83793 101.183 6.60354C101.183 6.36594 101.272 6.16366 101.448 5.99669C101.628 5.82652 101.843 5.74143 102.094 5.74143C102.344 5.74143 102.558 5.82652 102.734 5.99669C102.914 6.16366 103.004 6.36594 103.004 6.60354C103.004 6.83793 102.914 7.04021 102.734 7.21038C102.558 7.37734 102.344 7.46083 102.094 7.46083ZM106.897 16.1638C106.428 16.1638 106.004 16.0771 105.625 15.9037C105.246 15.7271 104.946 15.4718 104.724 15.1379C104.506 14.804 104.397 14.3946 104.397 13.9098C104.397 13.4924 104.477 13.1488 104.638 12.8791C104.798 12.6094 105.015 12.3959 105.288 12.2385C105.561 12.0812 105.866 11.9624 106.203 11.8821C106.54 11.8019 106.884 11.7408 107.234 11.6991C107.677 11.6477 108.036 11.606 108.313 11.5739C108.589 11.5386 108.789 11.4824 108.915 11.4053C109.04 11.3283 109.102 11.203 109.102 11.0297V10.9959C109.102 10.5753 108.984 10.2494 108.746 10.0182C108.512 9.78706 108.162 9.67148 107.696 9.67148C107.211 9.67148 106.829 9.77904 106.55 9.99416C106.274 10.2061 106.083 10.4421 105.977 10.7021L104.623 10.3939C104.784 9.9444 105.018 9.58157 105.326 9.30544C105.638 9.0261 105.996 8.82382 106.4 8.6986C106.805 8.57016 107.23 8.50595 107.677 8.50595C107.972 8.50595 108.285 8.54127 108.616 8.61191C108.95 8.67933 109.261 8.80455 109.55 8.98757C109.842 9.17059 110.082 9.43227 110.268 9.77262C110.454 10.1098 110.547 10.548 110.547 11.0874V16H109.141V14.9886H109.083C108.99 15.1748 108.85 15.3578 108.664 15.5376C108.478 15.7174 108.239 15.8668 107.946 15.9856C107.654 16.1044 107.304 16.1638 106.897 16.1638ZM107.21 15.0079C107.608 15.0079 107.948 14.9292 108.231 14.7719C108.516 14.6145 108.733 14.409 108.881 14.1554C109.032 13.8985 109.107 13.624 109.107 13.3318V12.3782C109.056 12.4296 108.956 12.4777 108.809 12.5227C108.664 12.5644 108.499 12.6013 108.313 12.6335C108.126 12.6624 107.945 12.6896 107.768 12.7153C107.592 12.7378 107.444 12.7571 107.325 12.7731C107.046 12.8084 106.791 12.8678 106.559 12.9513C106.331 13.0348 106.148 13.1552 106.01 13.3125C105.876 13.4667 105.808 13.6722 105.808 13.929C105.808 14.2854 105.94 14.5551 106.203 14.7381C106.466 14.918 106.802 15.0079 107.21 15.0079ZM113.905 6.13636V16H112.465V6.13636H113.905Z" fill="#EAECEF"/>
<path fill-rule="evenodd" clip-rule="evenodd" d="M0 10C-1.46764e-08 9.01509 0.193993 8.03982 0.570903 7.12987C0.947814 6.21993 1.50026 5.39314 2.1967 4.6967C2.89314 4.00026 3.71993 3.44781 4.62987 3.0709C5.53982 2.69399 6.51509 2.5 7.5 2.5C8.48491 2.5 9.46018 2.69399 10.3701 3.0709C11.2801 3.44781 12.1069 4.00026 12.8033 4.6967C13.4997 5.39314 14.0522 6.21993 14.4291 7.12987C14.806 8.03982 15 9.01509 15 10C15 11.9891 14.2098 13.8968 12.8033 15.3033C11.3968 16.7098 9.48912 17.5 7.5 17.5C5.51088 17.5 3.60322 16.7098 2.1967 15.3033C0.790176 13.8968 2.96403e-08 11.9891 0 10ZM7.445 12.9167H5.83333V7.08333H7.445L10.8333 10L7.445 12.9167Z" fill="#EAECEF"/>
</svg>
