<svg width="23" height="12" viewBox="0 0 23 12" fill="none" xmlns="http://www.w3.org/2000/svg">
<rect x="0.976562" y="0.219574" width="21.139" height="11.675" rx="1.45937" fill="#3B4756"/>
<path d="M6.73194 3.89267V8.13812H5.83434V4.74466H5.80947L4.83724 5.35412V4.55809L5.88824 3.89267H6.73194ZM9.40556 8.23141C9.04901 8.23002 8.74221 8.14227 8.48516 7.96814C8.22949 7.79401 8.03256 7.5418 7.89436 7.2115C7.75755 6.88121 7.68983 6.48389 7.69121 6.01954C7.69121 5.55658 7.75962 5.16202 7.89644 4.83587C8.03464 4.50972 8.23157 4.26166 8.48723 4.09167C8.74428 3.92031 9.05039 3.83462 9.40556 3.83462C9.76073 3.83462 10.0662 3.92031 10.3218 4.09167C10.5789 4.26304 10.7765 4.5118 10.9147 4.83795C11.0529 5.16271 11.1213 5.55658 11.1199 6.01954C11.1199 6.48527 11.0508 6.88328 10.9126 7.21358C10.7758 7.54387 10.5796 7.79608 10.3239 7.97021C10.0682 8.14434 9.76211 8.23141 9.40556 8.23141ZM9.40556 7.48721C9.64879 7.48721 9.84296 7.3649 9.98807 7.12029C10.1332 6.87568 10.205 6.50876 10.2037 6.01954C10.2037 5.69754 10.1705 5.42943 10.1042 5.21523C10.0392 5.00102 9.94661 4.84002 9.82638 4.73222C9.70753 4.62443 9.56726 4.57053 9.40556 4.57053C9.16372 4.57053 8.97024 4.69145 8.82513 4.9333C8.68002 5.17515 8.60678 5.53723 8.60539 6.01954C8.60539 6.34569 8.63787 6.61794 8.70282 6.83629C8.76916 7.05327 8.86244 7.21634 8.98268 7.32552C9.10291 7.43331 9.24387 7.48721 9.40556 7.48721ZM13.4245 8.23141C13.068 8.23002 12.7612 8.14227 12.5041 7.96814C12.2485 7.79401 12.0515 7.5418 11.9133 7.2115C11.7765 6.88121 11.7088 6.48389 11.7102 6.01954C11.7102 5.55658 11.7786 5.16202 11.9154 4.83587C12.0536 4.50972 12.2505 4.26166 12.5062 4.09167C12.7633 3.92031 13.0694 3.83462 13.4245 3.83462C13.7797 3.83462 14.0851 3.92031 14.3408 4.09167C14.5978 4.26304 14.7955 4.5118 14.9337 4.83795C15.0719 5.16271 15.1403 5.55658 15.1389 6.01954C15.1389 6.48527 15.0698 6.88328 14.9316 7.21358C14.7948 7.54387 14.5985 7.79608 14.3429 7.97021C14.0872 8.14434 13.7811 8.23141 13.4245 8.23141ZM13.4245 7.48721C13.6678 7.48721 13.8619 7.3649 14.0071 7.12029C14.1522 6.87568 14.224 6.50876 14.2226 6.01954C14.2226 5.69754 14.1895 5.42943 14.1231 5.21523C14.0582 5.00102 13.9656 4.84002 13.8454 4.73222C13.7265 4.62443 13.5862 4.57053 13.4245 4.57053C13.1827 4.57053 12.9892 4.69145 12.8441 4.9333C12.699 5.17515 12.6258 5.53723 12.6244 6.01954C12.6244 6.34569 12.6569 6.61794 12.7218 6.83629C12.7881 7.05327 12.8814 7.21634 13.0017 7.32552C13.1219 7.43331 13.2629 7.48721 13.4245 7.48721ZM16.5252 4.95403L17.1098 6.06722L17.7089 4.95403H18.6148L17.6923 6.54608L18.6396 8.13812H17.7379L17.1098 7.03737L16.492 8.13812H15.5799L16.5252 6.54608L15.6131 4.95403H16.5252Z" fill="white"/>
</svg>
