<svg width="11" height="9" viewBox="0 0 11 9" fill="none" xmlns="http://www.w3.org/2000/svg">
<path d="M3.27695 1.09403V8.39661H2.35415V2.24628L0.49359 2.92466V2.09165L3.13229 1.09403H3.27695ZM7.01303 0.734889V8.39661H6.09024V0.734889H7.01303ZM6.79356 5.49353L6.40947 5.47857C6.4128 5.10945 6.46767 4.7686 6.57408 4.45601C6.68049 4.1401 6.83014 3.86575 7.02301 3.63297C7.21588 3.4002 7.44533 3.22062 7.71137 3.09426C7.98072 2.96457 8.27835 2.89972 8.60424 2.89972C8.87027 2.89972 9.1097 2.9363 9.32252 3.00946C9.53535 3.07929 9.71658 3.19236 9.86622 3.34865C10.0192 3.50495 10.1356 3.70779 10.2154 3.9572C10.2952 4.20328 10.3351 4.50423 10.3351 4.86005V8.39661H9.40732V4.85007C9.40732 4.56741 9.36575 4.34128 9.28262 4.17169C9.19948 3.99877 9.07811 3.87406 8.91849 3.79758C8.75887 3.71777 8.56267 3.67787 8.32989 3.67787C8.10044 3.67787 7.89094 3.72608 7.70139 3.82252C7.51517 3.91896 7.35389 4.05197 7.21755 4.22157C7.08453 4.39116 6.97978 4.5857 6.90329 4.80518C6.83014 5.02133 6.79356 5.25078 6.79356 5.49353Z" fill="white"/>
</svg>
