<svg width="22" height="21" viewBox="0 0 22 21" fill="none" xmlns="http://www.w3.org/2000/svg">
<path d="M10.6059 4.39662C8.9609 4.39662 7.38331 5.05008 6.22014 6.21324C5.05698 7.37641 4.40352 8.954 4.40352 10.599C4.40352 12.2439 5.05698 13.8215 6.22014 14.9847C7.38331 16.1478 8.9609 16.8013 10.6059 16.8013C12.2508 16.8013 13.8284 16.1478 14.9916 14.9847C16.1547 13.8215 16.8082 12.2439 16.8082 10.599C16.8082 8.954 16.1547 7.37641 14.9916 6.21324C13.8284 5.05008 12.2508 4.39662 10.6059 4.39662ZM3.67383 10.599C3.67383 8.76047 4.40416 6.99728 5.70417 5.69728C7.00418 4.39727 8.76737 3.66693 10.6059 3.66693C12.4443 3.66693 14.2075 4.39727 15.5075 5.69728C16.8076 6.99728 17.5379 8.76047 17.5379 10.599C17.5379 12.4375 16.8076 14.2006 15.5075 15.5006C14.2075 16.8007 12.4443 17.531 10.6059 17.531C8.76737 17.531 7.00418 16.8007 5.70417 15.5006C4.40416 14.2006 3.67383 12.4375 3.67383 10.599Z" fill="white"/>
<path d="M7.32227 10.2336H10.241V7.31488H10.9707V10.2336H13.8895V10.9633H10.9707V13.8821H10.241V10.9633H7.32227V10.2336Z" fill="white"/>
</svg>
