<svg width="9" height="9" viewBox="0 0 9 9" fill="none" xmlns="http://www.w3.org/2000/svg">
<path d="M5.15018 4.07841C5.08167 4.14691 4.98875 4.1854 4.89187 4.1854C4.79498 4.1854 4.70207 4.14691 4.63356 4.07841C4.56505 4.0099 4.52656 3.91698 4.52656 3.8201C4.52656 3.72321 4.56505 3.63029 4.63356 3.56179L7.55231 0.643037C7.58623 0.609115 7.6265 0.582207 7.67082 0.563848C7.71514 0.54549 7.76265 0.536041 7.81062 0.536041C7.85859 0.536041 7.90609 0.54549 7.95041 0.563848C7.99473 0.582207 8.03501 0.609115 8.06893 0.643037C8.10285 0.676958 8.12976 0.717229 8.14812 0.76155C8.16647 0.805871 8.17592 0.853374 8.17592 0.901346C8.17592 0.949319 8.16647 0.996821 8.14812 1.04114C8.12976 1.08546 8.10285 1.12573 8.06893 1.15966L5.15018 4.07841ZM0.772052 8.45653C0.73813 8.49045 0.697859 8.51736 0.653539 8.53572C0.609218 8.55408 0.561715 8.56353 0.513742 8.56353C0.46577 8.56353 0.418267 8.55408 0.373946 8.53572C0.329625 8.51736 0.289355 8.49045 0.255433 8.45653C0.221511 8.42261 0.194603 8.38234 0.176245 8.33802C0.157886 8.2937 0.148438 8.24619 0.148438 8.19822C0.148438 8.15025 0.157886 8.10275 0.176245 8.05843C0.194603 8.0141 0.221511 7.97383 0.255433 7.93991L3.17418 5.02116C3.24269 4.95265 3.33561 4.91417 3.43249 4.91417C3.52938 4.91417 3.62229 4.95265 3.6908 5.02116C3.75931 5.08967 3.7978 5.18259 3.7978 5.27947C3.7978 5.37636 3.75931 5.46927 3.6908 5.53778L0.772052 8.45653Z" fill="white"/>
<path d="M0.513281 8.56294C0.416519 8.56294 0.323719 8.5245 0.255298 8.45608C0.186876 8.38766 0.148438 8.29486 0.148438 8.1981C0.148438 8.10133 0.186876 8.00853 0.255298 7.94011C0.323719 7.87169 0.416519 7.83325 0.513281 7.83325H3.43203C3.52879 7.83325 3.62159 7.87169 3.69002 7.94011C3.75844 8.00853 3.79688 8.10133 3.79688 8.1981C3.79688 8.29486 3.75844 8.38766 3.69002 8.45608C3.62159 8.5245 3.52879 8.56294 3.43203 8.56294H0.513281Z" fill="white"/>
<path d="M0.878125 8.19825C0.878125 8.29501 0.839686 8.38781 0.771265 8.45623C0.702843 8.52465 0.610044 8.56309 0.513281 8.56309C0.416519 8.56309 0.323719 8.52465 0.255298 8.45623C0.186876 8.38781 0.148438 8.29501 0.148438 8.19825V5.2795C0.148438 5.18274 0.186876 5.08994 0.255298 5.02151C0.323719 4.95309 0.416519 4.91465 0.513281 4.91465C0.610044 4.91465 0.702843 4.95309 0.771265 5.02151C0.839686 5.08994 0.878125 5.18274 0.878125 5.2795V8.19825ZM8.175 3.82012C8.175 3.91689 8.13656 4.00969 8.06814 4.07811C7.99972 4.14653 7.90692 4.18497 7.81016 4.18497C7.71339 4.18497 7.62059 4.14653 7.55217 4.07811C7.48375 4.00969 7.44531 3.91689 7.44531 3.82012V0.901373C7.44531 0.804611 7.48375 0.711811 7.55217 0.64339C7.62059 0.574968 7.71339 0.53653 7.81016 0.53653C7.90692 0.53653 7.99972 0.574968 8.06814 0.64339C8.13656 0.711811 8.175 0.804611 8.175 0.901373V3.82012Z" fill="white"/>
<path d="M4.89219 1.26622C4.79542 1.26622 4.70263 1.22778 4.6342 1.15936C4.56578 1.09094 4.52734 0.998136 4.52734 0.901373C4.52734 0.804611 4.56578 0.711811 4.6342 0.64339C4.70263 0.574968 4.79542 0.53653 4.89219 0.53653H7.81094C7.9077 0.53653 8.0005 0.574968 8.06892 0.64339C8.13734 0.711811 8.17578 0.804611 8.17578 0.901373C8.17578 0.998136 8.13734 1.09094 8.06892 1.15936C8.0005 1.22778 7.9077 1.26622 7.81094 1.26622H4.89219Z" fill="white"/>
</svg>
