<svg width="84" height="43" viewBox="0 0 84 43" fill="none" xmlns="http://www.w3.org/2000/svg">
<rect width="84" height="43" rx="6" fill="#187657"/>
<path d="M19.8166 25V17.5673H22.5385C23.066 17.5673 23.5027 17.6544 23.8487 17.8286C24.1947 18.0004 24.4536 18.2338 24.6254 18.529C24.7971 18.8218 24.883 19.152 24.883 19.5198C24.883 19.8295 24.8262 20.0908 24.7125 20.3037C24.5987 20.5142 24.4463 20.6836 24.2552 20.8118C24.0664 20.9376 23.8584 21.0296 23.6309 21.0877V21.1602C23.8777 21.1723 24.1185 21.2522 24.3532 21.3998C24.5903 21.5449 24.7863 21.7518 24.9411 22.0204C25.0959 22.2889 25.1734 22.6156 25.1734 23.0003C25.1734 23.3801 25.0839 23.7213 24.9048 24.0237C24.7282 24.3237 24.4548 24.5621 24.0846 24.7387C23.7144 24.9129 23.2414 25 22.6656 25H19.8166ZM20.938 24.0382H22.5567C23.0938 24.0382 23.4785 23.9342 23.7108 23.7261C23.9431 23.5181 24.0592 23.258 24.0592 22.9458C24.0592 22.7111 23.9999 22.4958 23.8814 22.2998C23.7628 22.1038 23.5934 21.9478 23.3733 21.8317C23.1555 21.7155 22.8966 21.6575 22.5966 21.6575H20.938V24.0382ZM20.938 20.7828H22.4405C22.6922 20.7828 22.9184 20.7344 23.1192 20.6376C23.3225 20.5408 23.4833 20.4054 23.6019 20.2312C23.7229 20.0545 23.7834 19.8464 23.7834 19.6069C23.7834 19.2996 23.6757 19.042 23.4604 18.8339C23.245 18.6258 22.9148 18.5218 22.4696 18.5218H20.938V20.7828ZM29.4004 22.6882V19.4255H30.4892V25H29.4222V24.0346H29.3641C29.2359 24.3322 29.0302 24.5802 28.7471 24.7786C28.4665 24.9746 28.1169 25.0726 27.6983 25.0726C27.3402 25.0726 27.0232 24.994 26.7474 24.8367C26.474 24.677 26.2587 24.4411 26.1014 24.129C25.9466 23.8169 25.8691 23.4309 25.8691 22.9712V19.4255H26.9543V22.8406C26.9543 23.2205 27.0595 23.5229 27.27 23.7479C27.4805 23.9729 27.7539 24.0854 28.0902 24.0854C28.2935 24.0854 28.4955 24.0346 28.6963 23.933C28.8996 23.8314 29.0677 23.6777 29.2008 23.4721C29.3363 23.2664 29.4028 23.0051 29.4004 22.6882ZM32.0859 27.0905C31.9238 27.0905 31.7762 27.0771 31.6431 27.0505C31.5101 27.0263 31.4109 26.9997 31.3455 26.9707L31.6068 26.0815C31.8052 26.1347 31.9819 26.1577 32.1367 26.1505C32.2916 26.1432 32.4283 26.0851 32.5468 25.9763C32.6678 25.8674 32.7743 25.6896 32.8662 25.4428L33.0005 25.0726L30.9608 19.4255H32.1222L33.534 23.7515H33.592L35.0038 19.4255H36.1688L33.8715 25.744C33.765 26.0343 33.6295 26.2799 33.465 26.4807C33.3005 26.684 33.1045 26.8364 32.8771 26.938C32.6496 27.0396 32.3859 27.0905 32.0859 27.0905ZM40.305 15.172V27.3953H39.3323V15.172H40.305ZM43.9992 25V17.5673H45.1207V24.0346H48.4886V25H43.9992ZM51.4817 25.1125C50.9591 25.1125 50.503 24.9927 50.1135 24.7532C49.7239 24.5137 49.4215 24.1786 49.2062 23.7479C48.9908 23.3172 48.8832 22.814 48.8832 22.2381C48.8832 21.6599 48.9908 21.1542 49.2062 20.7211C49.4215 20.288 49.7239 19.9517 50.1135 19.7122C50.503 19.4726 50.9591 19.3529 51.4817 19.3529C52.0043 19.3529 52.4604 19.4726 52.8499 19.7122C53.2395 19.9517 53.5419 20.288 53.7573 20.7211C53.9726 21.1542 54.0803 21.6599 54.0803 22.2381C54.0803 22.814 53.9726 23.3172 53.7573 23.7479C53.5419 24.1786 53.2395 24.5137 52.8499 24.7532C52.4604 24.9927 52.0043 25.1125 51.4817 25.1125ZM51.4853 24.2016C51.8241 24.2016 52.1047 24.112 52.3273 23.933C52.5499 23.754 52.7145 23.5156 52.8209 23.218C52.9298 22.9204 52.9842 22.5926 52.9842 22.2345C52.9842 21.8788 52.9298 21.5522 52.8209 21.2546C52.7145 20.9546 52.5499 20.7138 52.3273 20.5324C52.1047 20.3509 51.8241 20.2602 51.4853 20.2602C51.1442 20.2602 50.8611 20.3509 50.6361 20.5324C50.4135 20.7138 50.2478 20.9546 50.1389 21.2546C50.0324 21.5522 49.9792 21.8788 49.9792 22.2345C49.9792 22.5926 50.0324 22.9204 50.1389 23.218C50.2478 23.5156 50.4135 23.754 50.6361 23.933C50.8611 24.112 51.1442 24.2016 51.4853 24.2016ZM55.8294 21.6901V25H54.7443V19.4255H55.7859V20.3328H55.8548C55.9831 20.0376 56.1839 19.8005 56.4573 19.6214C56.7331 19.4424 57.0803 19.3529 57.4989 19.3529C57.8787 19.3529 58.2114 19.4327 58.4969 19.5924C58.7824 19.7497 59.0038 19.9844 59.1611 20.2965C59.3183 20.6086 59.397 20.9945 59.397 21.4542V25H58.3118V21.5849C58.3118 21.1808 58.2066 20.8651 57.9961 20.6376C57.7856 20.4078 57.4965 20.2928 57.1287 20.2928C56.8771 20.2928 56.6533 20.3473 56.4573 20.4562C56.2637 20.565 56.1101 20.7247 55.9964 20.9352C55.8851 21.1433 55.8294 21.3949 55.8294 21.6901ZM62.6423 27.2066C62.1995 27.2066 61.8185 27.1485 61.4991 27.0324C61.1821 26.9163 60.9232 26.7626 60.7224 26.5715C60.5216 26.3803 60.3716 26.171 60.2724 25.9436L61.2051 25.5589C61.2704 25.6654 61.3575 25.7779 61.4664 25.8964C61.5777 26.0174 61.7277 26.1202 61.9164 26.2049C62.1076 26.2896 62.3532 26.3319 62.6532 26.3319C63.0645 26.3319 63.4044 26.2315 63.673 26.0307C63.9416 25.8323 64.0759 25.5154 64.0759 25.0798V23.9838H64.0069C63.9416 24.1024 63.8472 24.2342 63.7238 24.3794C63.6028 24.5246 63.4359 24.6504 63.223 24.7568C63.0101 24.8633 62.733 24.9165 62.3919 24.9165C61.9515 24.9165 61.5547 24.8137 61.2015 24.608C60.8506 24.4 60.5724 24.0939 60.3667 23.6898C60.1635 23.2834 60.0619 22.7837 60.0619 22.191C60.0619 21.5982 60.1623 21.0901 60.3631 20.6667C60.5664 20.2432 60.8446 19.919 61.1978 19.694C61.5511 19.4666 61.9515 19.3529 62.3991 19.3529C62.7451 19.3529 63.0246 19.4109 63.2375 19.5271C63.4504 19.6408 63.6161 19.7739 63.7347 19.9263C63.8557 20.0787 63.9488 20.213 64.0142 20.3291H64.094V19.4255H65.1574V25.1234C65.1574 25.6025 65.0461 25.9956 64.8235 26.3029C64.6009 26.6102 64.2997 26.8376 63.9198 26.9852C63.5424 27.1328 63.1165 27.2066 62.6423 27.2066ZM62.6314 24.0165C62.9435 24.0165 63.2073 23.9439 63.4226 23.7987C63.6403 23.6511 63.8049 23.4406 63.9162 23.1672C64.0299 22.8914 64.0867 22.5611 64.0867 22.1764C64.0867 21.8014 64.0311 21.4711 63.9198 21.1856C63.8085 20.9001 63.6452 20.6775 63.4298 20.5179C63.2145 20.3558 62.9484 20.2747 62.6314 20.2747C62.3048 20.2747 62.0326 20.3594 61.8148 20.5287C61.5971 20.6957 61.4325 20.9231 61.3212 21.2111C61.2124 21.499 61.1579 21.8208 61.1579 22.1764C61.1579 22.5418 61.2136 22.8624 61.3249 23.1382C61.4362 23.414 61.6007 23.6293 61.8185 23.7842C62.0386 23.939 62.3096 24.0165 62.6314 24.0165Z" fill="white"/>
<path d="M74 6C73.2089 6 72.4355 6.2346 71.7777 6.67412C71.1199 7.11365 70.6072 7.73836 70.3045 8.46927C70.0017 9.20017 69.9225 10.0044 70.0769 10.7804C70.2312 11.5563 70.6122 12.269 71.1716 12.8284C71.731 13.3878 72.4437 13.7688 73.2196 13.9231C73.9956 14.0775 74.7998 13.9983 75.5307 13.6955C76.2616 13.3928 76.8864 12.8801 77.3259 12.2223C77.7654 11.5645 78 10.7911 78 10C78 9.47471 77.8965 8.95457 77.6955 8.46927C77.4945 7.98396 77.1999 7.54301 76.8284 7.17157C76.457 6.80014 76.016 6.5055 75.5307 6.30448C75.0454 6.10346 74.5253 6 74 6ZM74 12.4C73.9209 12.4 73.8436 12.3765 73.7778 12.3326C73.712 12.2886 73.6607 12.2262 73.6304 12.1531C73.6002 12.08 73.5923 11.9996 73.6077 11.922C73.6231 11.8444 73.6612 11.7731 73.7172 11.7172C73.7731 11.6612 73.8444 11.6231 73.922 11.6077C73.9996 11.5922 74.08 11.6002 74.1531 11.6304C74.2262 11.6607 74.2886 11.712 74.3326 11.7778C74.3765 11.8435 74.4 11.9209 74.4 12C74.4 12.1061 74.3579 12.2078 74.2828 12.2828C74.2078 12.3579 74.1061 12.4 74 12.4ZM74.4 10.336V10.8C74.4 10.9061 74.3579 11.0078 74.2828 11.0828C74.2078 11.1579 74.1061 11.2 74 11.2C73.8939 11.2 73.7922 11.1579 73.7172 11.0828C73.6421 11.0078 73.6 10.9061 73.6 10.8V10C73.6 9.89391 73.6421 9.79217 73.7172 9.71716C73.7922 9.64214 73.8939 9.6 74 9.6C74.1187 9.6 74.2347 9.56481 74.3333 9.49888C74.432 9.43295 74.5089 9.33924 74.5543 9.22961C74.5997 9.11997 74.6116 8.99933 74.5885 8.88294C74.5653 8.76656 74.5082 8.65965 74.4243 8.57574C74.3404 8.49182 74.2334 8.43468 74.1171 8.41153C74.0007 8.38838 73.88 8.40026 73.7704 8.44567C73.6608 8.49108 73.567 8.56799 73.5011 8.66666C73.4352 8.76533 73.4 8.88133 73.4 9C73.4 9.10609 73.3579 9.20783 73.2828 9.28284C73.2078 9.35786 73.1061 9.4 73 9.4C72.8939 9.4 72.7922 9.35786 72.7172 9.28284C72.6421 9.20783 72.6 9.10609 72.6 9C72.599 8.74012 72.6703 8.48508 72.8059 8.26343C72.9416 8.04178 73.1363 7.86227 73.3682 7.745C73.6002 7.62773 73.8601 7.57733 74.1191 7.59944C74.378 7.62155 74.6257 7.71529 74.8344 7.87018C75.0431 8.02507 75.2045 8.23498 75.3007 8.47643C75.3968 8.71787 75.4238 8.98131 75.3788 9.23725C75.3337 9.49319 75.2182 9.73153 75.0454 9.92558C74.8725 10.1196 74.649 10.2617 74.4 10.336Z" fill="white"/>
</svg>
