<svg width="21" height="21" viewBox="0 0 21 21" fill="none" xmlns="http://www.w3.org/2000/svg">
<path fill-rule="evenodd" clip-rule="evenodd" d="M8.37477 4.39662C8.30708 4.39662 8.24071 4.41546 8.18311 4.45103C8.12551 4.48659 8.07893 4.53749 8.0486 4.59801L7.41961 5.85599H4.27539C3.9851 5.85599 3.7067 5.97131 3.50144 6.17657C3.29618 6.38184 3.18086 6.66024 3.18086 6.95052V14.2474C3.18086 14.5377 3.29618 14.8161 3.50144 15.0213C3.7067 15.2266 3.9851 15.3419 4.27539 15.3419H15.9504C16.2407 15.3419 16.5191 15.2266 16.7243 15.0213C16.9296 14.8161 17.0449 14.5377 17.0449 14.2474V6.95052C17.0449 6.66024 16.9296 6.38184 16.7243 6.17657C16.5191 5.97131 16.2407 5.85599 15.9504 5.85599H12.8062L12.1772 4.59801C12.1468 4.53749 12.1003 4.48659 12.0427 4.45103C11.9851 4.41546 11.9187 4.39662 11.851 4.39662H8.37477ZM7.39553 4.27257C7.48638 4.09061 7.62612 3.93756 7.79908 3.83058C7.97205 3.72361 8.1714 3.66694 8.37477 3.66693H11.851C12.0544 3.66694 12.2537 3.72361 12.4267 3.83058C12.5997 3.93756 12.7394 4.09061 12.8302 4.27257L13.2571 5.12631H15.9504C16.19 5.12631 16.4272 5.17349 16.6485 5.26517C16.8698 5.35684 17.0709 5.49121 17.2403 5.66061C17.4097 5.83 17.5441 6.0311 17.6357 6.25243C17.7274 6.47375 17.7746 6.71096 17.7746 6.95052V14.2474C17.7746 14.487 17.7274 14.7242 17.6357 14.9455C17.5441 15.1668 17.4097 15.3679 17.2403 15.5373C17.0709 15.7067 16.8698 15.8411 16.6485 15.9328C16.4272 16.0244 16.19 16.0716 15.9504 16.0716H4.27539C3.79158 16.0716 3.32758 15.8794 2.98547 15.5373C2.64337 15.1952 2.45117 14.7312 2.45117 14.2474V6.95052C2.45117 6.46671 2.64337 6.00271 2.98547 5.66061C3.32758 5.3185 3.79158 5.12631 4.27539 5.12631H6.96867L7.39553 4.27257Z" fill="white"/>
<path fill-rule="evenodd" clip-rule="evenodd" d="M10.1137 13.1524C10.4491 13.1524 10.7812 13.0863 11.091 12.958C11.4009 12.8296 11.6824 12.6415 11.9196 12.4044C12.1567 12.1672 12.3448 11.8857 12.4732 11.5758C12.6015 11.266 12.6676 10.9339 12.6676 10.5985C12.6676 10.2631 12.6015 9.93099 12.4732 9.62114C12.3448 9.31128 12.1567 9.02974 11.9196 8.79259C11.6824 8.55544 11.4009 8.36732 11.091 8.23897C10.7812 8.11063 10.4491 8.04457 10.1137 8.04457C9.43633 8.04457 8.78674 8.31364 8.30779 8.79259C7.82884 9.27154 7.55977 9.92114 7.55977 10.5985C7.55977 11.2758 7.82884 11.9254 8.30779 12.4044C8.78674 12.8833 9.43633 13.1524 10.1137 13.1524ZM10.1137 13.8821C10.9845 13.8821 11.8197 13.5361 12.4355 12.9203C13.0513 12.3045 13.3973 11.4693 13.3973 10.5985C13.3973 9.72761 13.0513 8.89242 12.4355 8.27662C11.8197 7.66083 10.9845 7.31488 10.1137 7.31488C9.24281 7.31488 8.40761 7.66083 7.79182 8.27662C7.17603 8.89242 6.83008 9.72761 6.83008 10.5985C6.83008 11.4693 7.17603 12.3045 7.79182 12.9203C8.40761 13.5361 9.24281 13.8821 10.1137 13.8821Z" fill="white"/>
</svg>
