<svg width="29" height="28" viewBox="0 0 29 28" fill="none" xmlns="http://www.w3.org/2000/svg">
<circle cx="14.5" cy="14" r="13.5" stroke="#D4D4D8"/>
<path fill-rule="evenodd" clip-rule="evenodd" d="M15.1049 7.22656C11.514 7.22656 8.625 10.1155 8.625 13.7065C8.625 16.5684 10.488 18.9984 13.0529 19.8624C13.3769 19.9164 13.4849 19.7274 13.4849 19.5384C13.4849 19.3764 13.4849 18.9714 13.4849 18.4314C11.676 18.8364 11.298 17.5674 11.298 17.5674C11.001 16.8114 10.569 16.6224 10.569 16.6224C9.97498 16.2174 10.623 16.2174 10.623 16.2174C11.271 16.2714 11.622 16.8924 11.622 16.8924C12.1889 17.8914 13.1339 17.5944 13.5119 17.4324C13.5659 17.0004 13.7279 16.7304 13.9169 16.5684C12.4859 16.4064 10.974 15.8394 10.974 13.3555C10.974 12.6535 11.217 12.0595 11.649 11.6275C11.595 11.4655 11.352 10.8175 11.703 9.89952C11.703 9.89952 12.2429 9.73752 13.4849 10.5745C13.9979 10.4395 14.5649 10.3585 15.1049 10.3585C15.6449 10.3585 16.2119 10.4395 16.7249 10.5745C17.9668 9.73752 18.5068 9.89952 18.5068 9.89952C18.8578 10.7905 18.6418 11.4385 18.5608 11.6275C18.9658 12.0865 19.2358 12.6535 19.2358 13.3555C19.2358 15.8394 17.7239 16.3794 16.2659 16.5414C16.5089 16.7304 16.6979 17.1354 16.6979 17.7294C16.6979 18.5934 16.6979 19.2954 16.6979 19.5114C16.6979 19.6734 16.8059 19.8894 17.1569 19.8354C19.7218 18.9984 21.5848 16.5684 21.5848 13.7065C21.5848 10.1155 18.6958 7.22656 15.1049 7.22656Z" fill="white"/>
</svg>
