<svg width="14" height="14" viewBox="0 0 14 14" fill="none" xmlns="http://www.w3.org/2000/svg">
<g clip-path="url(#clip0_0_1976)">
<path d="M13.5953 3.13596V1.94193C13.5953 1.46691 13.4066 1.01135 13.0707 0.675466C12.7348 0.339578 12.2792 0.150879 11.8043 0.150879H2.25199C1.77697 0.150879 1.32141 0.339578 0.985524 0.675466C0.649637 1.01135 0.460938 1.46691 0.460938 1.94193V3.13596H13.5953Z" fill="#A6ADBA"/>
<path d="M0.460938 4.33008V11.4943C0.460938 11.9693 0.649637 12.4249 0.985524 12.7607C1.32141 13.0966 1.77697 13.2853 2.25199 13.2853H4.04304V4.33008H0.460938Z" fill="#A6ADBA"/>
<path d="M5.23633 13.2853H11.8035C12.2785 13.2853 12.7341 13.0966 13.07 12.7607C13.4059 12.4249 13.5946 11.9693 13.5946 11.4943V4.33008H5.23633V13.2853Z" fill="#A6ADBA"/>
</g>
<defs>
<clipPath id="clip0_0_1976">
<rect width="13.1344" height="13.1344" fill="white" transform="translate(0.460938 0.150879)"/>
</clipPath>
</defs>
</svg>
