<svg width="9" height="8" viewBox="0 0 9 8" fill="none" xmlns="http://www.w3.org/2000/svg">
<path d="M1.61684 0.514665L0.898823 1.23268C0.861935 1.26957 0.861935 1.32937 0.898823 1.36626L7.26484 7.73228C7.30173 7.76917 7.36153 7.76917 7.39842 7.73228L8.11644 7.01426C8.15332 6.97738 8.15332 6.91757 8.11644 6.88068L1.75042 0.514665C1.71353 0.477776 1.65372 0.477776 1.61684 0.514665Z" fill="white"/>
<path d="M8.11684 1.23247L7.39882 0.514454C7.36193 0.477566 7.30213 0.477566 7.26524 0.514454L0.899223 6.88047C0.862335 6.91736 0.862335 6.97717 0.899223 7.01405L1.61724 7.73207C1.65412 7.76895 1.71393 7.76896 1.75082 7.73207L8.11684 1.36605C8.15372 1.32916 8.15372 1.26935 8.11684 1.23247Z" fill="white"/>
</svg>
