<svg width="31" height="31" viewBox="0 0 31 31" fill="none" xmlns="http://www.w3.org/2000/svg">
<rect x="0.5" y="0.5" width="30" height="30" rx="3.5" stroke="#333D4E"/>
<path d="M21.9319 11.9984C21.9274 11.8468 21.8642 11.703 21.7556 11.5972L19.4186 9.26456C19.3091 9.15618 19.1614 9.09537 19.0074 9.09537C18.8534 9.09537 18.7056 9.15618 18.5962 9.26456L16.2636 11.5972C16.2035 11.6497 16.1548 11.7141 16.1205 11.7863C16.0863 11.8584 16.0672 11.9368 16.0644 12.0166C16.0616 12.0965 16.0753 12.176 16.1045 12.2503C16.1336 12.3247 16.1778 12.3923 16.2341 12.4489C16.2904 12.5055 16.3577 12.55 16.4319 12.5796C16.5061 12.6091 16.5856 12.6232 16.6654 12.6209C16.7453 12.6185 16.8238 12.5998 16.8961 12.566C16.9684 12.5321 17.033 12.4838 17.086 12.4239L19.0041 10.5036L20.931 12.4217C21.0131 12.5053 21.1185 12.5623 21.2334 12.5853C21.3483 12.6082 21.4675 12.5961 21.5754 12.5505C21.6834 12.5048 21.7751 12.4278 21.8387 12.3293C21.9022 12.2309 21.9347 12.1156 21.9319 11.9984ZM19.5993 12.5893C19.5993 12.4343 19.5378 12.2857 19.4282 12.1762C19.3186 12.0666 19.17 12.005 19.0151 12.005C18.8601 12.005 18.7115 12.0666 18.602 12.1762C18.4924 12.2857 18.4308 12.4343 18.4308 12.5893V20.7578H16.7001C16.5452 20.7578 16.3966 20.8193 16.287 20.9289C16.1774 21.0385 16.1159 21.1871 16.1159 21.342C16.1159 21.497 16.1774 21.6456 16.287 21.7552C16.3966 21.8647 16.5452 21.9263 16.7001 21.9263H18.4308C19.0658 21.9263 19.5993 21.395 19.5993 20.7578V12.5893ZM14.9341 9.66802C14.9312 9.51345 14.8672 9.36633 14.756 9.25888C14.6449 9.15144 14.4957 9.09243 14.3411 9.09479H12.6104C12.3013 9.09767 12.0058 9.2217 11.7873 9.44022C11.5688 9.65874 11.4447 9.95428 11.4419 10.2633V18.4252C11.4419 18.5801 11.5034 18.7287 11.613 18.8383C11.7225 18.9479 11.8712 19.0094 12.0261 19.0094C12.1811 19.0094 12.3297 18.9479 12.4392 18.8383C12.5488 18.7287 12.6104 18.5801 12.6104 18.4252V10.2633H14.3411C14.4193 10.2642 14.4969 10.2494 14.5693 10.2197C14.6417 10.1901 14.7073 10.1462 14.7625 10.0907C14.8176 10.0352 14.861 9.96914 14.8901 9.89654C14.9192 9.82394 14.9356 9.74623 14.9341 9.66802ZM14.9341 19.0028C14.9334 18.8869 14.8982 18.7738 14.8329 18.678C14.7677 18.5821 14.6755 18.5078 14.5679 18.4646C14.4604 18.4213 14.3424 18.411 14.2289 18.435C14.1155 18.459 14.0118 18.5162 13.931 18.5994L12.0107 20.5175L10.0904 18.5994C10.0378 18.5393 9.97341 18.4906 9.90126 18.4563C9.82911 18.4221 9.75071 18.4029 9.67089 18.4002C9.59107 18.3974 9.51153 18.411 9.43718 18.4402C9.36284 18.4694 9.29526 18.5135 9.23864 18.5699C9.18201 18.6262 9.13753 18.6935 9.10795 18.7677C9.07837 18.8419 9.06432 18.9214 9.06666 19.0012C9.069 19.081 9.08768 19.1595 9.12155 19.2319C9.15542 19.3042 9.20376 19.3688 9.26359 19.4217L11.5962 21.7543C11.6504 21.8087 11.7149 21.8518 11.7858 21.8812C11.8568 21.9106 11.9328 21.9257 12.0096 21.9257C12.0864 21.9257 12.1624 21.9106 12.2333 21.8812C12.3043 21.8518 12.3687 21.8087 12.423 21.7543L14.7578 19.4239C14.8137 19.3694 14.8581 19.3043 14.8884 19.2323C14.9186 19.1604 14.9342 19.0809 14.9341 19.0028Z" fill="white"/>
</svg>
