<svg width="78" height="29" viewBox="0 0 78 29" fill="none" xmlns="http://www.w3.org/2000/svg">
<rect width="77.128" height="27.7281" transform="translate(0.560547 0.369751)" fill="#1D2631"/>
<path d="M18.8027 16.4233L15.1543 20.0717M15.1543 16.4233L18.8027 20.0717M10.7762 12.41H15.884M16.9785 9.85608C16.9785 9.37227 16.7863 8.90827 16.4442 8.56616C16.1021 8.22405 15.6381 8.03186 15.1543 8.03186C14.6705 8.03186 14.2065 8.22405 13.8644 8.56616C13.5223 8.90827 13.3301 9.37227 13.3301 9.85608V17.8826C13.3301 18.3665 13.1379 18.8305 12.7958 19.1726C12.4537 19.5147 11.9897 19.7069 11.5059 19.7069C11.022 19.7069 10.558 19.5147 10.2159 19.1726C9.87383 18.8305 9.68164 18.3665 9.68164 17.8826" stroke="white" stroke-width="0.729687"/>
<path d="M27.9312 10.3042V17.3966H26.991V10.3042H27.9312ZM30.4057 13.2512V17.3966H29.5046V12.126H30.357L30.4057 13.2512ZM30.1914 14.5616L29.8163 14.547C29.8196 14.1865 29.8732 13.8536 29.9771 13.5484C30.081 13.2399 30.2271 12.9719 30.4155 12.7446C30.6038 12.5173 30.8279 12.3419 31.0877 12.2185C31.3508 12.0919 31.6414 12.0286 31.9597 12.0286C32.2194 12.0286 32.4533 12.0643 32.6611 12.1357C32.8689 12.2039 33.0459 12.3143 33.1921 12.467C33.3414 12.6196 33.4551 12.8177 33.533 13.0612C33.611 13.3016 33.65 13.5955 33.65 13.9429V17.3966H32.7439V13.9332C32.7439 13.6572 32.7033 13.4363 32.6221 13.2707C32.5409 13.1018 32.4224 12.9801 32.2665 12.9054C32.1107 12.8274 31.9191 12.7885 31.6917 12.7885C31.4677 12.7885 31.2631 12.8355 31.078 12.9297C30.8961 13.0239 30.7386 13.1538 30.6055 13.3194C30.4756 13.485 30.3733 13.675 30.2986 13.8893C30.2271 14.1004 30.1914 14.3245 30.1914 14.5616ZM38.3409 16.3737V9.91446H39.247V17.3966H38.4188L38.3409 16.3737ZM34.7947 14.8197V14.7175C34.7947 14.3148 34.8434 13.9494 34.9408 13.6214C35.0415 13.2902 35.1828 13.006 35.3646 12.769C35.5497 12.5319 35.7689 12.3501 36.0222 12.2234C36.2788 12.0935 36.5645 12.0286 36.8796 12.0286C37.2108 12.0286 37.4998 12.087 37.7466 12.2039C37.9967 12.3176 38.2078 12.4848 38.3799 12.7057C38.5552 12.9232 38.6933 13.1863 38.7939 13.4948C38.8946 13.8033 38.9644 14.1524 39.0034 14.5421V14.9902C38.9677 15.3767 38.8978 15.7242 38.7939 16.0327C38.6933 16.3412 38.5552 16.6042 38.3799 16.8218C38.2078 17.0394 37.9967 17.2066 37.7466 17.3235C37.4966 17.4372 37.2043 17.494 36.8698 17.494C36.5613 17.494 36.2788 17.4275 36.0222 17.2943C35.7689 17.1612 35.5497 16.9744 35.3646 16.7341C35.1828 16.4938 35.0415 16.2113 34.9408 15.8865C34.8434 15.5585 34.7947 15.2029 34.7947 14.8197ZM35.7007 14.7175V14.8197C35.7007 15.0828 35.7267 15.3296 35.7787 15.5602C35.8339 15.7907 35.9183 15.9937 36.032 16.1691C36.1456 16.3444 36.2901 16.4824 36.4655 16.5831C36.6409 16.6805 36.8503 16.7293 37.0939 16.7293C37.3927 16.7293 37.6378 16.6659 37.8294 16.5393C38.0243 16.4126 38.1802 16.2454 38.2971 16.0375C38.414 15.8297 38.5049 15.604 38.5699 15.3604V14.1865C38.5309 14.0079 38.4741 13.8358 38.3994 13.6701C38.3279 13.5013 38.2337 13.3519 38.1168 13.222C38.0032 13.0889 37.8619 12.9833 37.693 12.9054C37.5274 12.8274 37.3309 12.7885 37.1036 12.7885C36.8568 12.7885 36.6441 12.8404 36.4655 12.9443C36.2901 13.045 36.1456 13.1847 36.032 13.3633C35.9183 13.5386 35.8339 13.7432 35.7787 13.977C35.7267 14.2076 35.7007 14.4544 35.7007 14.7175ZM41.629 12.126V17.3966H40.7229V12.126H41.629ZM40.6547 10.7279C40.6547 10.5818 40.6986 10.4584 40.7862 10.3577C40.8772 10.2571 41.0103 10.2067 41.1857 10.2067C41.3578 10.2067 41.4893 10.2571 41.5802 10.3577C41.6744 10.4584 41.7215 10.5818 41.7215 10.7279C41.7215 10.8676 41.6744 10.9877 41.5802 11.0884C41.4893 11.1858 41.3578 11.2346 41.1857 11.2346C41.0103 11.2346 40.8772 11.1858 40.7862 11.0884C40.6986 10.9877 40.6547 10.8676 40.6547 10.7279ZM45.1849 16.7536C45.3993 16.7536 45.5974 16.7098 45.7792 16.6221C45.9611 16.5344 46.1105 16.4142 46.2274 16.2616C46.3443 16.1057 46.4108 15.9288 46.4271 15.7307H47.2844C47.2682 16.0424 47.1626 16.3331 46.9678 16.6026C46.7762 16.8689 46.5245 17.0849 46.2128 17.2505C45.901 17.4128 45.5584 17.494 45.1849 17.494C44.7887 17.494 44.4429 17.4242 44.1474 17.2846C43.8551 17.1449 43.6115 16.9533 43.4167 16.7098C43.2251 16.4662 43.0806 16.1869 42.9832 15.8719C42.889 15.5537 42.8419 15.2176 42.8419 14.8636V14.659C42.8419 14.305 42.889 13.9705 42.9832 13.6555C43.0806 13.3373 43.2251 13.0564 43.4167 12.8128C43.6115 12.5693 43.8551 12.3777 44.1474 12.238C44.4429 12.0984 44.7887 12.0286 45.1849 12.0286C45.5974 12.0286 45.9578 12.113 46.2663 12.2819C46.5748 12.4475 46.8168 12.6748 46.9921 12.9638C47.1708 13.2496 47.2682 13.5743 47.2844 13.9381H46.4271C46.4108 13.7205 46.3491 13.524 46.242 13.3486C46.1381 13.1733 45.9952 13.0336 45.8133 12.9297C45.6347 12.8226 45.4252 12.769 45.1849 12.769C44.9089 12.769 44.6767 12.8242 44.4883 12.9346C44.3032 13.0418 44.1555 13.1879 44.0451 13.373C43.9379 13.5549 43.86 13.7578 43.8113 13.9819C43.7658 14.2027 43.7431 14.4284 43.7431 14.659V14.8636C43.7431 15.0942 43.7658 15.3215 43.8113 15.5456C43.8567 15.7696 43.933 15.9726 44.0402 16.1545C44.1506 16.3363 44.2984 16.4824 44.4835 16.5929C44.6718 16.7 44.9056 16.7536 45.1849 16.7536ZM51.4054 16.4954V13.7822C51.4054 13.5743 51.3632 13.3941 51.2788 13.2415C51.1976 13.0856 51.0742 12.9654 50.9086 12.881C50.743 12.7966 50.5384 12.7544 50.2948 12.7544C50.0675 12.7544 49.8678 12.7933 49.6957 12.8713C49.5268 12.9492 49.3936 13.0515 49.2962 13.1782C49.202 13.3048 49.1549 13.4412 49.1549 13.5873H48.2538C48.2538 13.399 48.3025 13.2123 48.3999 13.0271C48.4973 12.842 48.637 12.6748 48.8188 12.5254C49.0039 12.3728 49.2248 12.2526 49.4813 12.1649C49.7411 12.074 50.0301 12.0286 50.3484 12.0286C50.7316 12.0286 51.0693 12.0935 51.3616 12.2234C51.6571 12.3533 51.8877 12.5498 52.0533 12.8128C52.2222 13.0726 52.3066 13.399 52.3066 13.7919V16.247C52.3066 16.4224 52.3212 16.6091 52.3505 16.8072C52.3829 17.0053 52.43 17.1758 52.4917 17.3187V17.3966H51.5516C51.5061 17.2927 51.4704 17.1547 51.4444 16.9826C51.4184 16.8072 51.4054 16.6448 51.4054 16.4954ZM51.5613 14.2011L51.5711 14.8344H50.6601C50.4036 14.8344 50.1747 14.8555 49.9733 14.8977C49.772 14.9367 49.6031 14.9967 49.4667 15.0779C49.3303 15.1591 49.2264 15.2614 49.1549 15.3848C49.0835 15.505 49.0478 15.6462 49.0478 15.8086C49.0478 15.9742 49.0851 16.1252 49.1598 16.2616C49.2345 16.398 49.3465 16.5068 49.4959 16.588C49.6486 16.6659 49.8353 16.7049 50.0561 16.7049C50.3322 16.7049 50.5757 16.6464 50.7868 16.5295C50.9979 16.4126 51.1651 16.2697 51.2885 16.1009C51.4152 15.932 51.4834 15.768 51.4931 15.6089L51.8779 16.0424C51.8552 16.1788 51.7935 16.3298 51.6928 16.4954C51.5922 16.6611 51.4574 16.8202 51.2885 16.9728C51.1229 17.1222 50.9248 17.2472 50.6942 17.3479C50.4669 17.4453 50.2104 17.494 49.9246 17.494C49.5674 17.494 49.254 17.4242 48.9845 17.2846C48.7182 17.1449 48.5103 16.9582 48.3609 16.7244C48.2148 16.4873 48.1417 16.2226 48.1417 15.9304C48.1417 15.6478 48.1969 15.3994 48.3074 15.1851C48.4178 14.9675 48.5769 14.7873 48.7847 14.6444C48.9926 14.4982 49.2426 14.3878 49.5349 14.3131C49.8272 14.2385 50.1535 14.2011 50.514 14.2011H51.5613ZM55.9308 12.126V12.8177H53.0811V12.126H55.9308ZM54.0456 10.8449H54.9468V16.0911C54.9468 16.2697 54.9744 16.4045 55.0296 16.4954C55.0848 16.5864 55.1563 16.6464 55.2439 16.6757C55.3316 16.7049 55.4258 16.7195 55.5265 16.7195C55.6012 16.7195 55.6791 16.713 55.7603 16.7C55.8447 16.6838 55.908 16.6708 55.9503 16.6611L55.9551 17.3966C55.8837 17.4193 55.7895 17.4404 55.6726 17.4599C55.5589 17.4827 55.4209 17.494 55.2586 17.494C55.0377 17.494 54.8348 17.4502 54.6497 17.3625C54.4645 17.2748 54.3168 17.1287 54.2064 16.9241C54.0992 16.7163 54.0456 16.437 54.0456 16.0863V10.8449ZM56.6517 14.8197V14.7077C56.6517 14.3278 56.7069 13.9754 56.8173 13.6507C56.9277 13.3227 57.0869 13.0385 57.2947 12.7982C57.5025 12.5546 57.7542 12.3663 58.0497 12.2331C58.3453 12.0968 58.6765 12.0286 59.0435 12.0286C59.4137 12.0286 59.7465 12.0968 60.0421 12.2331C60.3408 12.3663 60.5941 12.5546 60.802 12.7982C61.013 13.0385 61.1738 13.3227 61.2842 13.6507C61.3946 13.9754 61.4498 14.3278 61.4498 14.7077V14.8197C61.4498 15.1997 61.3946 15.552 61.2842 15.8768C61.1738 16.2015 61.013 16.4857 60.802 16.7293C60.5941 16.9696 60.3424 17.1579 60.0469 17.2943C59.7547 17.4275 59.4234 17.494 59.0532 17.494C58.683 17.494 58.3501 17.4275 58.0546 17.2943C57.7591 17.1579 57.5058 16.9696 57.2947 16.7293C57.0869 16.4857 56.9277 16.2015 56.8173 15.8768C56.7069 15.552 56.6517 15.1997 56.6517 14.8197ZM57.5529 14.7077V14.8197C57.5529 15.0828 57.5837 15.3312 57.6454 15.565C57.7071 15.7956 57.7997 16.0002 57.9231 16.1788C58.0497 16.3574 58.2072 16.4987 58.3956 16.6026C58.5839 16.7033 58.8032 16.7536 59.0532 16.7536C59.3 16.7536 59.516 16.7033 59.7011 16.6026C59.8894 16.4987 60.0453 16.3574 60.1687 16.1788C60.2921 16.0002 60.3847 15.7956 60.4464 15.565C60.5113 15.3312 60.5438 15.0828 60.5438 14.8197V14.7077C60.5438 14.4479 60.5113 14.2027 60.4464 13.9722C60.3847 13.7383 60.2905 13.5321 60.1638 13.3535C60.0404 13.1717 59.8846 13.0288 59.6962 12.9249C59.5111 12.8209 59.2935 12.769 59.0435 12.769C58.7967 12.769 58.5791 12.8209 58.3907 12.9249C58.2056 13.0288 58.0497 13.1717 57.9231 13.3535C57.7997 13.5321 57.7071 13.7383 57.6454 13.9722C57.5837 14.2027 57.5529 14.4479 57.5529 14.7077ZM63.4811 12.9541V17.3966H62.5799V12.126H63.4568L63.4811 12.9541ZM65.1276 12.0968L65.1227 12.9346C65.048 12.9184 64.9766 12.9086 64.9084 12.9054C64.8434 12.8989 64.7687 12.8956 64.6843 12.8956C64.4765 12.8956 64.293 12.9281 64.1339 12.9931C63.9747 13.058 63.84 13.1489 63.7296 13.2658C63.6191 13.3827 63.5315 13.5224 63.4665 13.6848C63.4048 13.8439 63.3642 14.0192 63.3447 14.2108L63.0914 14.357C63.0914 14.0387 63.1223 13.74 63.184 13.4607C63.2489 13.1814 63.348 12.9346 63.4811 12.7203C63.6143 12.5027 63.7831 12.3338 63.9877 12.2137C64.1956 12.0903 64.4424 12.0286 64.7281 12.0286C64.7931 12.0286 64.8678 12.0367 64.9522 12.0529C65.0367 12.0659 65.0951 12.0805 65.1276 12.0968ZM69.0294 15.9986C69.0294 15.8687 69.0002 15.7485 68.9417 15.6381C68.8865 15.5244 68.7712 15.4222 68.5959 15.3312C68.4238 15.237 68.164 15.1559 67.8165 15.0877C67.5242 15.026 67.2595 14.9529 67.0225 14.8685C66.7887 14.784 66.5889 14.6817 66.4233 14.5616C66.2609 14.4414 66.1359 14.3002 66.0482 14.1378C65.9606 13.9754 65.9167 13.7854 65.9167 13.5679C65.9167 13.36 65.9622 13.1635 66.0531 12.9784C66.1473 12.7933 66.2788 12.6293 66.4477 12.4864C66.6198 12.3436 66.826 12.2315 67.0663 12.1503C67.3066 12.0691 67.5745 12.0286 67.8701 12.0286C68.2922 12.0286 68.6527 12.1032 68.9515 12.2526C69.2502 12.402 69.4792 12.6017 69.6383 12.8518C69.7974 13.0986 69.877 13.373 69.877 13.675H68.9758C68.9758 13.5289 68.932 13.3876 68.8443 13.2512C68.7599 13.1116 68.6348 12.9963 68.4692 12.9054C68.3068 12.8144 68.1071 12.769 67.8701 12.769C67.62 12.769 67.417 12.8079 67.2612 12.8859C67.1085 12.9606 66.9965 13.0564 66.925 13.1733C66.8569 13.2902 66.8228 13.4136 66.8228 13.5435C66.8228 13.6409 66.839 13.7286 66.8715 13.8065C66.9072 13.8812 66.9689 13.9511 67.0566 14.016C67.1443 14.0777 67.2677 14.1362 67.4268 14.1914C67.5859 14.2466 67.7889 14.3018 68.0357 14.357C68.4676 14.4544 68.8232 14.5713 69.1025 14.7077C69.3818 14.8441 69.5896 15.0113 69.726 15.2094C69.8624 15.4075 69.9306 15.6478 69.9306 15.9304C69.9306 16.1609 69.8819 16.372 69.7844 16.5636C69.6903 16.7552 69.5522 16.9209 69.3704 17.0605C69.1918 17.1969 68.9774 17.3041 68.7274 17.382C68.4806 17.4567 68.2029 17.494 67.8944 17.494C67.43 17.494 67.0371 17.4112 66.7156 17.2456C66.3941 17.08 66.1505 16.8656 65.9849 16.6026C65.8193 16.3396 65.7365 16.0619 65.7365 15.7696H66.6425C66.6555 16.0164 66.727 16.2129 66.8569 16.359C66.9868 16.5019 67.1459 16.6042 67.3342 16.6659C67.5226 16.7244 67.7093 16.7536 67.8944 16.7536C68.1412 16.7536 68.3474 16.7211 68.5131 16.6562C68.6819 16.5912 68.8102 16.5019 68.8979 16.3883C68.9856 16.2746 69.0294 16.1447 69.0294 15.9986Z" fill="white"/>
</svg>
