<svg width="13" height="12" viewBox="0 0 13 12" fill="none" xmlns="http://www.w3.org/2000/svg">
<g clip-path="url(#clip0_0_1998)">
<path d="M7.09833 9.28371V8.2413C7.09833 8.18042 7.07873 8.13052 7.03954 8.09161C7.00034 8.05269 6.95045 8.03309 6.88985 8.03281H6.2644V4.6971C6.2644 4.63622 6.2448 4.58633 6.20561 4.54741C6.16641 4.50849 6.11652 4.4889 6.05592 4.48862H3.9711C3.91022 4.48862 3.86032 4.50822 3.82141 4.54741C3.78249 4.5866 3.76289 4.6365 3.76262 4.6971V5.73951C3.76262 5.80039 3.78221 5.85028 3.82141 5.8892C3.8606 5.92812 3.9105 5.94772 3.9711 5.94799H4.59654V8.03281H3.9711C3.91022 8.03281 3.86032 8.05241 3.82141 8.09161C3.78249 8.1308 3.76289 8.1807 3.76262 8.2413V9.28371C3.76262 9.34458 3.78221 9.39448 3.82141 9.4334C3.8606 9.47231 3.9105 9.49191 3.9711 9.49219H6.88985C6.95072 9.49219 7.00062 9.47259 7.03954 9.4334C7.07845 9.3942 7.09805 9.34431 7.09833 9.28371ZM6.2644 3.44621V2.4038C6.2644 2.34292 6.2448 2.29302 6.20561 2.25411C6.16641 2.21519 6.11652 2.19559 6.05592 2.19531H4.80503C4.74415 2.19531 4.69425 2.21491 4.65534 2.25411C4.61642 2.2933 4.59682 2.3432 4.59654 2.4038V3.44621C4.59654 3.50708 4.61614 3.55698 4.65534 3.5959C4.69453 3.63481 4.74443 3.65441 4.80503 3.65469H6.05592C6.1168 3.65469 6.16669 3.63509 6.20561 3.5959C6.24453 3.5567 6.26412 3.50681 6.2644 3.44621ZM10.434 6.15648C10.434 7.06435 10.2104 7.90147 9.76315 8.66785C9.31588 9.43423 8.70892 10.0412 7.94227 10.4887C7.17561 10.9363 6.33848 11.1599 5.43089 11.1596C4.5233 11.1594 3.68617 10.9357 2.91951 10.4887C2.15285 10.0417 1.54589 9.43479 1.09863 8.66785C0.651366 7.90092 0.427734 7.06379 0.427734 6.15648C0.427734 5.24916 0.651366 4.41204 1.09863 3.6451C1.54589 2.87816 2.15285 2.2712 2.91951 1.82422C3.68617 1.37723 4.5233 1.1536 5.43089 1.15332C6.33848 1.15304 7.17561 1.37667 7.94227 1.82422C8.70892 2.27176 9.31588 2.87872 9.76315 3.6451C10.2104 4.41148 10.434 5.24861 10.434 6.15648Z" fill="white"/>
</g>
<defs>
<clipPath id="clip0_0_1998">
<rect width="11.675" height="11.675" fill="white" transform="translate(0.425781 0.318848)"/>
</clipPath>
</defs>
</svg>
