<svg width="29" height="28" viewBox="0 0 29 28" fill="none" xmlns="http://www.w3.org/2000/svg">
<circle cx="14.5" cy="14" r="13.5" stroke="#D4D4D8"/>
<path d="M14.5008 8.44721C16.3095 8.44721 16.5237 8.45398 17.2382 8.48656C17.6678 8.49182 18.0933 8.5707 18.4962 8.71979C18.7884 8.83248 19.0538 9.00511 19.2753 9.22656C19.4967 9.44802 19.6694 9.71339 19.782 10.0056C19.9311 10.4085 20.01 10.8341 20.0153 11.2637C20.0475 11.9782 20.0546 12.1924 20.0546 14.0011C20.0546 15.8098 20.0479 16.024 20.0153 16.7385C20.01 17.1681 19.9311 17.5936 19.782 17.9966C19.6694 18.2888 19.4967 18.5541 19.2753 18.7756C19.0538 18.997 18.7884 19.1697 18.4962 19.2824C18.0933 19.4315 17.6678 19.5103 17.2382 19.5156C16.524 19.5479 16.3098 19.5549 14.5008 19.5549C12.6917 19.5549 12.4775 19.5482 11.7633 19.5156C11.3337 19.5103 10.9082 19.4315 10.5053 19.2824C10.2131 19.1697 9.94769 18.997 9.72624 18.7756C9.50479 18.5541 9.33216 18.2888 9.21947 17.9966C9.07038 17.5936 8.9915 17.1681 8.98624 16.7385C8.95398 16.024 8.94689 15.8098 8.94689 14.0011C8.94689 12.1924 8.95366 11.9782 8.98624 11.2637C8.9915 10.8341 9.07038 10.4085 9.21947 10.0056C9.33216 9.71339 9.50479 9.44802 9.72624 9.22656C9.94769 9.00511 10.2131 8.83248 10.5053 8.71979C10.9082 8.5707 11.3337 8.49182 11.7633 8.48656C12.4779 8.4543 12.692 8.44721 14.5008 8.44721ZM14.5008 7.22656C12.662 7.22656 12.4304 7.2343 11.7079 7.26721C11.1456 7.27839 10.5893 7.38485 10.0627 7.58205C9.61092 7.75226 9.20172 8.019 8.86366 8.36366C8.51869 8.70184 8.25172 9.11127 8.0814 9.56334C7.8842 10.09 7.77775 10.6463 7.76656 11.2085C7.7343 11.9304 7.72656 12.162 7.72656 14.0008C7.72656 15.8395 7.7343 16.0711 7.76721 16.7937C7.77839 17.3559 7.88485 17.9122 8.08205 18.4388C8.25218 18.8908 8.51892 19.3002 8.86366 19.6385C9.20191 19.9832 9.61133 20.25 10.0633 20.4201C10.59 20.6173 11.1463 20.7238 11.7085 20.7349C12.4311 20.7672 12.6617 20.7756 14.5014 20.7756C16.3411 20.7756 16.5717 20.7679 17.2943 20.7349C17.8565 20.7238 18.4128 20.6173 18.9395 20.4201C19.3893 20.2457 19.7978 19.9794 20.1389 19.6381C20.48 19.2968 20.746 18.8882 20.9201 18.4382C21.1173 17.9115 21.2238 17.3553 21.235 16.793C21.2672 16.0711 21.275 15.8395 21.275 14.0008C21.275 12.162 21.2672 11.9304 21.2343 11.2079C21.2231 10.6456 21.1167 10.0893 20.9195 9.56269C20.7493 9.11068 20.4826 8.70126 20.1379 8.36301C19.7996 8.01828 19.3902 7.75153 18.9382 7.5814C18.4115 7.3842 17.8553 7.27775 17.293 7.26656C16.5711 7.2343 16.3395 7.22656 14.5008 7.22656Z" fill="white"/>
<path d="M14.5021 10.5234C13.8141 10.5234 13.1416 10.7275 12.5695 11.1097C11.9974 11.492 11.5515 12.0353 11.2882 12.6709C11.0249 13.3066 10.9561 14.006 11.0903 14.6808C11.2245 15.3556 11.5558 15.9755 12.0423 16.462C12.5288 16.9485 13.1487 17.2798 13.8235 17.414C14.4983 17.5482 15.1977 17.4794 15.8334 17.2161C16.469 16.9528 17.0123 16.5069 17.3946 15.9348C17.7768 15.3627 17.9809 14.6902 17.9809 14.0021C17.9809 13.0795 17.6144 12.1947 16.962 11.5423C16.3096 10.8899 15.4248 10.5234 14.5021 10.5234ZM14.5021 16.2602C14.0555 16.2602 13.619 16.1278 13.2476 15.8797C12.8763 15.6315 12.5869 15.2789 12.416 14.8663C12.2451 14.4537 12.2003 13.9996 12.2875 13.5616C12.3746 13.1236 12.5897 12.7213 12.9055 12.4055C13.2213 12.0897 13.6236 11.8746 14.0616 11.7875C14.4996 11.7003 14.9537 11.7451 15.3663 11.916C15.7789 12.0869 16.1315 12.3763 16.3797 12.7476C16.6278 13.119 16.7602 13.5555 16.7602 14.0021C16.7602 14.601 16.5223 15.1754 16.0988 15.5988C15.6754 16.0223 15.101 16.2602 14.5021 16.2602Z" fill="white"/>
<path d="M18.1176 11.1981C18.5665 11.1981 18.9305 10.8341 18.9305 10.3852C18.9305 9.93621 18.5665 9.57227 18.1176 9.57227C17.6686 9.57227 17.3047 9.93621 17.3047 10.3852C17.3047 10.8341 17.6686 11.1981 18.1176 11.1981Z" fill="white"/>
</svg>
