<svg width="10" height="9" viewBox="0 0 10 9" fill="none" xmlns="http://www.w3.org/2000/svg">
<g clip-path="url(#clip0_0_1816)">
<path d="M8.01561 0.202957H1.4596C1.28024 0.202954 1.10262 0.238265 0.936909 0.306874C0.771195 0.375483 0.620623 0.476047 0.493791 0.602823C0.36696 0.729599 0.266352 0.880104 0.197712 1.04575C0.129073 1.21139 0.0937466 1.38892 0.09375 1.56821V7.57523C0.0937568 7.93731 0.237661 8.28457 0.493806 8.5406C0.749952 8.79663 1.09736 8.94047 1.4596 8.94048H8.01561C8.19498 8.94048 8.37259 8.90517 8.5383 8.83656C8.70402 8.76795 8.85459 8.66739 8.98141 8.54061C9.10824 8.41384 9.20885 8.26333 9.27749 8.09769C9.34612 7.93205 9.38145 7.75451 9.38144 7.57523V1.56821C9.38144 1.38892 9.34612 1.21139 9.27748 1.04575C9.20884 0.880112 9.10824 0.729608 8.98141 0.602832C8.85458 0.476056 8.70401 0.375492 8.5383 0.306881C8.37259 0.238271 8.19498 0.202957 8.01561 0.202957ZM5.96686 0.749068V8.39437H3.50836V0.749068H5.96686ZM0.640101 7.57523V1.56821C0.640101 1.35096 0.726441 1.14261 0.880128 0.988989C1.03381 0.83537 1.24226 0.749068 1.4596 0.749068H2.962V8.39437H1.4596C1.24226 8.39437 1.03381 8.30807 0.880128 8.15445C0.726441 8.00083 0.640101 7.79248 0.640101 7.57523ZM8.83511 7.57523C8.8351 7.79247 8.74876 8.00082 8.59507 8.15443C8.44139 8.30805 8.23295 8.39435 8.01561 8.39437H6.51319V0.749068H8.01561C8.12323 0.749065 8.2298 0.77025 8.32923 0.811415C8.42865 0.852579 8.519 0.912917 8.5951 0.988982C8.67119 1.06505 8.73156 1.15535 8.77274 1.25473C8.81392 1.35412 8.83512 1.46064 8.83511 1.56821V7.57523Z" fill="white"/>
</g>
<defs>
<clipPath id="clip0_0_1816">
<rect width="9.29622" height="8.75625" fill="white" transform="translate(0.0859375 0.193466)"/>
</clipPath>
</defs>
</svg>
