<svg width="84" height="46" viewBox="0 0 84 46" fill="none" xmlns="http://www.w3.org/2000/svg">
<rect x="0.910156" y="0.5" width="82.17" height="45" rx="7.5" stroke="white"/>
<path d="M22.2951 27.5V17.3182H24.4478V25.7251H28.8129V27.5H22.2951ZM33.649 27.6491C32.8767 27.6491 32.2089 27.4851 31.6454 27.157C31.0853 26.8255 30.6528 26.3648 30.3478 25.7749C30.0429 25.1816 29.8904 24.4938 29.8904 23.7116C29.8904 22.9228 30.0429 22.2334 30.3478 21.6435C30.6528 21.0502 31.0853 20.5895 31.6454 20.2614C32.2089 19.9299 32.8767 19.7642 33.649 19.7642C34.4212 19.7642 35.0874 19.9299 35.6475 20.2614C36.211 20.5895 36.6452 21.0502 36.9501 21.6435C37.255 22.2334 37.4075 22.9228 37.4075 23.7116C37.4075 24.4938 37.255 25.1816 36.9501 25.7749C36.6452 26.3648 36.211 26.8255 35.6475 27.157C35.0874 27.4851 34.4212 27.6491 33.649 27.6491ZM33.6589 26.0085C34.0102 26.0085 34.3036 25.9091 34.5389 25.7102C34.7742 25.508 34.9515 25.233 35.0708 24.8849C35.1935 24.5369 35.2548 24.1409 35.2548 23.6967C35.2548 23.2526 35.1935 22.8565 35.0708 22.5085C34.9515 22.1605 34.7742 21.8854 34.5389 21.6832C34.3036 21.4811 34.0102 21.38 33.6589 21.38C33.3043 21.38 33.006 21.4811 32.764 21.6832C32.5254 21.8854 32.3448 22.1605 32.2221 22.5085C32.1028 22.8565 32.0431 23.2526 32.0431 23.6967C32.0431 24.1409 32.1028 24.5369 32.2221 24.8849C32.3448 25.233 32.5254 25.508 32.764 25.7102C33.006 25.9091 33.3043 26.0085 33.6589 26.0085ZM42.225 30.5227C41.5389 30.5227 40.9506 30.4283 40.46 30.2393C39.9728 30.0537 39.585 29.8002 39.2967 29.4787C39.0083 29.1572 38.8211 28.7959 38.7349 28.3949L40.6937 28.1314C40.7534 28.2839 40.8478 28.4264 40.9771 28.5589C41.1064 28.6915 41.277 28.7976 41.4892 28.8771C41.7046 28.96 41.9664 29.0014 42.2747 29.0014C42.7354 29.0014 43.1149 28.8887 43.4132 28.6634C43.7148 28.4413 43.8656 28.0684 43.8656 27.5447V26.1477H43.7761C43.6833 26.3598 43.5441 26.5604 43.3585 26.7493C43.1729 26.9382 42.9342 27.0923 42.6426 27.2116C42.3509 27.331 42.0029 27.3906 41.5985 27.3906C41.0252 27.3906 40.5031 27.258 40.0325 26.9929C39.5652 26.7244 39.1923 26.3151 38.9139 25.7649C38.6388 25.2114 38.5012 24.5121 38.5012 23.6669C38.5012 22.8018 38.6421 22.0793 38.9238 21.4993C39.2056 20.9193 39.5801 20.4851 40.0474 20.1967C40.5181 19.9084 41.0334 19.7642 41.5936 19.7642C42.0211 19.7642 42.3791 19.8371 42.6674 19.983C42.9558 20.1255 43.1878 20.3045 43.3635 20.5199C43.5424 20.732 43.68 20.9408 43.7761 21.1463H43.8556V19.8636H45.9586V27.5746C45.9586 28.2242 45.7995 28.7678 45.4814 29.2053C45.1632 29.6428 44.7224 29.9709 44.1589 30.1896C43.5988 30.4117 42.9541 30.5227 42.225 30.5227ZM42.2697 25.7997C42.6111 25.7997 42.8994 25.7152 43.1348 25.5462C43.3734 25.3738 43.5557 25.1286 43.6816 24.8104C43.8109 24.4889 43.8755 24.1044 43.8755 23.657C43.8755 23.2095 43.8126 22.8217 43.6866 22.4936C43.5607 22.1622 43.3784 21.9053 43.1397 21.723C42.9011 21.5407 42.6111 21.4496 42.2697 21.4496C41.9217 21.4496 41.6284 21.544 41.3897 21.733C41.1511 21.9186 40.9705 22.1771 40.8478 22.5085C40.7252 22.84 40.6639 23.2228 40.6639 23.657C40.6639 24.0978 40.7252 24.4789 40.8478 24.8004C40.9738 25.1186 41.1544 25.3655 41.3897 25.5412C41.6284 25.7135 41.9217 25.7997 42.2697 25.7997ZM50.8842 27.5V19.8636H53.0021V27.5H50.8842ZM51.9482 18.8793C51.6333 18.8793 51.3632 18.7749 51.1378 18.5661C50.9157 18.3539 50.8047 18.1004 50.8047 17.8054C50.8047 17.5137 50.9157 17.2635 51.1378 17.0547C51.3632 16.8426 51.6333 16.7365 51.9482 16.7365C52.263 16.7365 52.5315 16.8426 52.7536 17.0547C52.9789 17.2635 53.0916 17.5137 53.0916 17.8054C53.0916 18.1004 52.9789 18.3539 52.7536 18.5661C52.5315 18.7749 52.263 18.8793 51.9482 18.8793ZM56.8166 23.0852V27.5H54.6987V19.8636H56.7172V21.2109H56.8066C56.9757 20.7668 57.2591 20.4155 57.6568 20.157C58.0545 19.8951 58.5368 19.7642 59.1035 19.7642C59.6338 19.7642 60.0962 19.8802 60.4906 20.1122C60.885 20.3442 61.1916 20.6757 61.4103 21.1065C61.6291 21.5341 61.7385 22.0445 61.7385 22.6378V27.5H59.6206V23.0156C59.6239 22.5483 59.5046 22.1837 59.2626 21.9219C59.0207 21.6567 58.6876 21.5241 58.2633 21.5241C57.9783 21.5241 57.7264 21.5855 57.5076 21.7081C57.2922 21.8307 57.1232 22.0097 57.0005 22.245C56.8812 22.477 56.8199 22.7571 56.8166 23.0852Z" fill="white"/>
</svg>
