<svg width="49" height="24" viewBox="0 0 49 24" fill="none" xmlns="http://www.w3.org/2000/svg">
<rect x="0.0722656" y="0.480957" width="48.5899" height="23.35" rx="2.91875" fill="#3B4756"/>
<path d="M10.4075 15.6836V8.25405H11.5284V14.7186H14.895V15.6836H10.4075ZM18.4338 15.7961C17.9114 15.7961 17.4555 15.6763 17.0661 15.4369C16.6768 15.1975 16.3745 14.8625 16.1592 14.432C15.944 14.0015 15.8363 13.4985 15.8363 12.9229C15.8363 12.3449 15.944 11.8394 16.1592 11.4065C16.3745 10.9736 16.6768 10.6375 17.0661 10.398C17.4555 10.1586 17.9114 10.0389 18.4338 10.0389C18.9562 10.0389 19.4121 10.1586 19.8014 10.398C20.1908 10.6375 20.4931 10.9736 20.7084 11.4065C20.9236 11.8394 21.0312 12.3449 21.0312 12.9229C21.0312 13.4985 20.9236 14.0015 20.7084 14.432C20.4931 14.8625 20.1908 15.1975 19.8014 15.4369C19.4121 15.6763 18.9562 15.7961 18.4338 15.7961ZM18.4374 14.8855C18.776 14.8855 19.0565 14.796 19.279 14.617C19.5015 14.4381 19.666 14.1999 19.7724 13.9024C19.8812 13.6049 19.9357 13.2772 19.9357 12.9193C19.9357 12.5638 19.8812 12.2373 19.7724 11.9398C19.666 11.6399 19.5015 11.3993 19.279 11.2179C19.0565 11.0365 18.776 10.9458 18.4374 10.9458C18.0964 10.9458 17.8134 11.0365 17.5885 11.2179C17.366 11.3993 17.2004 11.6399 17.0915 11.9398C16.9851 12.2373 16.9319 12.5638 16.9319 12.9193C16.9319 13.2772 16.9851 13.6049 17.0915 13.9024C17.2004 14.1999 17.366 14.4381 17.5885 14.617C17.8134 14.796 18.0964 14.8855 18.4374 14.8855ZM24.5782 17.8892C24.1356 17.8892 23.7547 17.8312 23.4355 17.7151C23.1187 17.599 22.8599 17.4455 22.6592 17.2544C22.4584 17.0633 22.3085 16.8541 22.2093 16.6268L23.1416 16.2423C23.2069 16.3487 23.294 16.4611 23.4028 16.5796C23.5141 16.7006 23.664 16.8033 23.8527 16.888C24.0437 16.9726 24.2892 17.015 24.5891 17.015C25.0002 17.015 25.34 16.9146 25.6085 16.7139C25.8769 16.5155 26.0112 16.1987 26.0112 15.7634V14.6678H25.9422C25.8769 14.7863 25.7826 14.9181 25.6593 15.0633C25.5383 15.2084 25.3715 15.3341 25.1586 15.4405C24.9458 15.547 24.6689 15.6002 24.3279 15.6002C23.8877 15.6002 23.4911 15.4974 23.138 15.2918C22.7873 15.0838 22.5092 14.7779 22.3036 14.374C22.1005 13.9677 21.9989 13.4683 21.9989 12.8757C21.9989 12.2832 22.0993 11.7753 22.3 11.3521C22.5032 10.9289 22.7813 10.6048 23.1344 10.3799C23.4875 10.1525 23.8877 10.0389 24.3352 10.0389C24.681 10.0389 24.9603 10.0969 25.1732 10.213C25.386 10.3267 25.5516 10.4597 25.6702 10.6121C25.7911 10.7644 25.8842 10.8986 25.9495 11.0147H26.0293V10.1114H27.0922V15.8069C27.0922 16.2858 26.981 16.6788 26.7585 16.9859C26.536 17.2931 26.2349 17.5204 25.8552 17.6679C25.4779 17.8155 25.0522 17.8892 24.5782 17.8892ZM24.5673 14.7005C24.8793 14.7005 25.1429 14.6279 25.3582 14.4828C25.5758 14.3353 25.7403 14.1249 25.8515 13.8516C25.9652 13.5759 26.022 13.2458 26.022 12.8612C26.022 12.4864 25.9664 12.1563 25.8552 11.8709C25.7439 11.5855 25.5807 11.363 25.3654 11.2034C25.1502 11.0413 24.8842 10.9603 24.5673 10.9603C24.2408 10.9603 23.9688 11.045 23.7511 11.2143C23.5334 11.3811 23.369 11.6085 23.2577 11.8963C23.1489 12.1841 23.0945 12.5057 23.0945 12.8612C23.0945 13.2264 23.1501 13.5469 23.2614 13.8226C23.3726 14.0983 23.5371 14.3135 23.7547 14.4683C23.9748 14.6231 24.2457 14.7005 24.5673 14.7005ZM32.4585 8.25405V15.6836H31.3375V8.25405H32.4585ZM35.0886 12.3751V15.6836H34.0039V10.1114H35.0451V11.0184H35.114C35.2422 10.7233 35.4429 10.4863 35.7162 10.3073C35.9919 10.1284 36.3389 10.0389 36.7573 10.0389C37.137 10.0389 37.4696 10.1187 37.755 10.2783C38.0403 10.4355 38.2616 10.6701 38.4188 10.9821C38.576 11.2941 38.6546 11.6798 38.6546 12.1393V15.6836H37.5699V12.2699C37.5699 11.866 37.4647 11.5504 37.2543 11.3231C37.0439 11.0933 36.7549 10.9785 36.3873 10.9785C36.1358 10.9785 35.9121 11.0329 35.7162 11.1417C35.5227 11.2505 35.3691 11.4102 35.2555 11.6206C35.1442 11.8286 35.0886 12.0801 35.0886 12.3751Z" fill="white"/>
</svg>
