<svg width="118" height="30" viewBox="0 0 118 30" fill="none" xmlns="http://www.w3.org/2000/svg">
<path d="M43.6822 10.191V7.90903H54.4336V10.191H50.4258V20.9999H47.69V10.191H43.6822ZM56.2042 20.9999V7.90903H61.369C62.3576 7.90903 63.2013 8.08588 63.9002 8.43957C64.6033 8.789 65.1381 9.28545 65.5046 9.92892C65.8754 10.5681 66.0607 11.3203 66.0607 12.1853C66.0607 13.0546 65.8732 13.8025 65.4982 14.4289C65.1232 15.0511 64.5799 15.5283 63.8683 15.8607C63.1609 16.1931 62.3043 16.3593 61.2987 16.3593H57.8406V14.1349H60.8512C61.3796 14.1349 61.8185 14.0624 62.168 13.9176C62.5174 13.7727 62.7773 13.5553 62.9478 13.2656C63.1225 12.9758 63.2099 12.6157 63.2099 12.1853C63.2099 11.7506 63.1225 11.3842 62.9478 11.0859C62.7773 10.7876 62.5153 10.5617 62.1616 10.4083C61.8121 10.2506 61.3711 10.1718 60.8384 10.1718H58.9719V20.9999H56.2042ZM63.2738 15.0426L66.5273 20.9999H63.4719L60.2887 15.0426H63.2738ZM70.2731 20.9999H67.3072L71.8263 7.90903H75.3931L79.9059 20.9999H76.94L73.6609 10.9005H73.5586L70.2731 20.9999ZM70.0877 15.8543H77.0934V18.0149H70.0877V15.8543ZM86.1222 20.9999H81.4815V7.90903H86.1605C87.4773 7.90903 88.6108 8.1711 89.5611 8.69525C90.5114 9.21514 91.2422 9.96301 91.7536 10.9389C92.2692 11.9147 92.527 13.0823 92.527 14.4417C92.527 15.8053 92.2692 16.9772 91.7536 17.9573C91.2422 18.9374 90.5071 19.6896 89.5483 20.2137C88.5938 20.7379 87.4517 20.9999 86.1222 20.9999ZM84.2493 18.6285H86.0071C86.8253 18.6285 87.5135 18.4836 88.0717 18.1938C88.6342 17.8998 89.0561 17.446 89.3374 16.8323C89.6229 16.2144 89.7656 15.4176 89.7656 14.4417C89.7656 13.4744 89.6229 12.6839 89.3374 12.0703C89.0561 11.4566 88.6364 11.0049 88.0781 10.7151C87.5199 10.4254 86.8317 10.2805 86.0135 10.2805H84.2493V18.6285ZM94.5772 20.9999V7.90903H103.398V10.191H97.345V13.3103H102.944V15.5923H97.345V18.718H103.424V20.9999H94.5772ZM112.7 11.6739C112.649 11.1583 112.43 10.7578 112.042 10.4722C111.654 10.1867 111.128 10.044 110.463 10.044C110.011 10.044 109.63 10.1079 109.319 10.2357C109.008 10.3593 108.769 10.5319 108.603 10.7535C108.441 10.9751 108.36 11.2265 108.36 11.5078C108.352 11.7421 108.401 11.9467 108.507 12.1214C108.618 12.2961 108.769 12.4474 108.961 12.5752C109.153 12.6988 109.374 12.8075 109.626 12.9012C109.877 12.9907 110.146 13.0674 110.431 13.1313L111.607 13.4126C112.178 13.5404 112.702 13.7109 113.18 13.9239C113.657 14.137 114.07 14.3991 114.42 14.7102C114.769 15.0212 115.04 15.3877 115.232 15.8096C115.428 16.2315 115.528 16.7151 115.532 17.2606C115.528 18.0617 115.323 18.7563 114.918 19.3444C114.518 19.9282 113.938 20.382 113.18 20.7059C112.425 21.0255 111.516 21.1853 110.45 21.1853C109.393 21.1853 108.473 21.0234 107.689 20.6995C106.909 20.3756 106.3 19.8962 105.861 19.2613C105.426 18.6221 105.198 17.8316 105.177 16.8899H107.855C107.885 17.3288 108.011 17.6953 108.232 17.9893C108.458 18.2791 108.759 18.4985 109.134 18.6477C109.513 18.7926 109.941 18.865 110.418 18.865C110.887 18.865 111.294 18.7968 111.639 18.6605C111.989 18.5241 112.259 18.3345 112.451 18.0916C112.643 17.8487 112.739 17.5695 112.739 17.2542C112.739 16.9602 112.651 16.713 112.477 16.5127C112.306 16.3124 112.055 16.142 111.722 16.0014C111.394 15.8607 110.991 15.7329 110.514 15.6178L109.089 15.2599C107.985 14.9914 107.114 14.5717 106.474 14.0006C105.835 13.4296 105.518 12.6604 105.522 11.6931C105.518 10.9005 105.729 10.208 106.155 9.61571C106.585 9.02338 107.175 8.56102 107.925 8.22863C108.675 7.89625 109.528 7.73005 110.482 7.73005C111.454 7.73005 112.302 7.89625 113.026 8.22863C113.755 8.56102 114.322 9.02338 114.727 9.61571C115.131 10.208 115.34 10.8941 115.353 11.6739H112.7Z" fill="white"/>
<path d="M11.492 19.8849C11.2155 20.1614 9.44259 21.1373 7.66965 21.9831L6.23828 22.6663L7.24674 23.6259C7.79977 24.1464 8.32027 24.5693 8.4016 24.5693C8.48293 24.5693 8.66185 24.6832 8.80824 24.8296C8.95463 24.9597 9.16608 25.041 9.2962 24.9922C9.42633 24.9434 9.47512 24.976 9.42633 25.0573C9.32873 25.22 10.386 25.773 11.3294 26.0495L11.8011 26.1796L11.7848 22.9265C11.7686 21.1536 11.736 19.6897 11.7198 19.6897C11.7035 19.6897 11.5896 19.7873 11.492 19.8849Z" fill="white"/>
<path d="M13.724 0.0716639C13.6915 0.104195 13.2198 0.185522 12.683 0.234319C12.1463 0.283115 11.3655 0.429505 10.9264 0.559629C10.5035 0.689754 10.1619 0.754816 10.1619 0.722284C10.1619 0.673489 9.99922 0.73855 9.80404 0.852409C9.42993 1.0476 9.33234 1.08013 9.00703 1.12892C8.9257 1.12892 8.89317 1.22652 8.95823 1.34037C9.02329 1.43797 9.00703 1.4705 8.9257 1.4217C8.69798 1.29158 7.70578 1.81208 7.83591 2.00726C7.88471 2.10486 7.85217 2.12112 7.75458 2.05606C7.5106 1.90967 5.65633 3.04826 5.33102 3.53622C5.20089 3.73141 4.94064 3.94286 4.76172 4.00792C4.5828 4.05672 4.48521 4.13805 4.53401 4.20311C4.5828 4.25191 4.40388 4.43083 4.12737 4.59348C3.72073 4.85373 3.65567 4.93506 3.83459 5.14651C3.99724 5.3417 3.98098 5.35796 3.78579 5.2929C3.54181 5.19531 2.79359 6.07365 2.79359 6.44775C2.79359 6.56161 2.72853 6.62667 2.66347 6.57788C2.50081 6.48028 1.54115 8.04178 1.29716 8.78999C1.2809 8.83879 1.15077 9.14783 1.00438 9.47314C0.841728 9.81472 0.72787 10.1888 0.72787 10.3027C0.72787 10.4328 0.679073 10.5792 0.614011 10.6443C0.548949 10.6931 0.483887 10.8394 0.467621 10.9533C0.451356 11.0672 0.418825 11.2624 0.386293 11.3925C0.337497 11.5877 0.516418 11.6365 1.34596 11.6039C2.43575 11.5714 2.51708 11.5551 2.58214 11.1973C2.59841 11.0834 2.696 10.8394 2.79359 10.6605C2.87492 10.4816 2.92372 10.2376 2.89119 10.1238C2.84239 10.0262 2.89119 9.92858 2.98878 9.92858C3.08637 9.92858 3.1677 9.78219 3.1677 9.60327C3.1677 9.42435 3.23276 9.27796 3.31409 9.27796C3.47675 9.27796 3.73699 8.48094 3.67193 8.2207C3.6394 8.1231 3.6882 8.10684 3.73699 8.1719C3.83459 8.26949 4.79425 7.14717 4.79425 6.95198C4.79425 6.85439 6.76238 4.88626 6.85998 4.88626C6.90877 4.88626 7.08769 4.73987 7.25035 4.54469C7.39674 4.36576 7.57566 4.21938 7.62446 4.21938C7.90097 4.23564 8.19375 4.02419 8.09616 3.86153C8.04736 3.76394 8.07989 3.74767 8.17748 3.81274C8.29134 3.8778 8.68172 3.74767 9.05582 3.51996C11.4957 2.10486 15.9361 1.63315 18.4736 2.54402C18.8477 2.65788 19.3194 2.77174 19.5308 2.77174C19.7423 2.77174 19.9212 2.86934 19.9212 2.96693C19.9212 3.08079 20.2465 2.82054 20.6532 2.38137C21.4502 1.5193 21.564 1.22652 21.0598 1.35664C20.8809 1.40544 20.767 1.37291 20.8158 1.29158C20.9297 1.11266 19.9049 0.689754 19.2055 0.608426C18.929 0.575895 18.62 0.510833 18.5386 0.462036C18.441 0.413239 18.0832 0.315646 17.7254 0.250585C17.3675 0.185522 16.9446 0.104195 16.7657 0.055398C16.5542 -0.00966454 16.5054 0.0391321 16.5868 0.169256C16.6844 0.315646 16.6356 0.315646 16.3753 0.185522C16.0663 0.0228672 13.8867 -0.0747261 13.724 0.0716639Z" fill="white"/>
<path d="M19.8472 4.83112C19.2077 5.53999 18.7416 6.15636 18.8086 6.18469C18.8756 6.21303 18.8269 6.21613 18.7112 6.19088C18.5966 6.18187 18.3147 6.36277 18.0857 6.6055C17.8566 6.84824 17.439 7.20075 17.1743 7.39685C16.8935 7.59398 16.6644 7.83671 16.6696 7.91787C16.6758 8.01527 16.6129 8.05186 16.5276 7.99209C16.4271 7.94958 16.3035 8.05523 16.2154 8.20752C16.1283 8.37603 16.0523 8.46236 16.0482 8.39742C16.044 8.33249 15.6658 8.53581 15.2288 8.84066C14.0415 9.64954 12.7548 10.4321 12.7486 10.3347C12.7466 10.3023 12.4464 10.4517 12.0854 10.6703C11.7082 10.8898 11.3452 11.0759 11.2488 11.0983C10.844 11.1403 9.80257 11.6792 9.62222 11.9188C9.50164 12.0731 9.45397 12.0925 9.51168 11.9747C9.62607 11.723 9.6423 11.7219 8.68691 12.076C7.63514 12.4525 4.09797 13.2152 2.15933 13.4851L0.575734 13.6998L0.679929 15.3393L0.785156 16.9951L2.01059 16.7868C4.5903 16.3458 10.8612 13.9751 10.8282 13.4557C10.823 13.3745 10.9032 13.3531 10.9874 13.3967C11.0879 13.4392 11.1518 13.4188 11.1456 13.3214C11.1394 13.224 11.326 13.0818 11.5826 13.0166C11.822 12.9362 12.405 12.622 12.8755 12.3314C13.8154 11.7338 16.4491 9.57802 16.4378 9.39946C16.4347 9.35076 16.6506 9.15776 16.9173 8.99412C17.1981 8.79699 17.3329 8.60915 17.2607 8.49964C17.1886 8.39014 17.2027 8.35664 17.3195 8.39812C17.556 8.52977 19.9758 5.57267 19.8446 5.30394C19.7877 5.17717 19.8333 5.12538 19.9348 5.18412C20.1196 5.27016 20.6454 4.56851 20.5498 4.34641C20.5295 4.28251 20.5751 4.23072 20.6725 4.22453C20.7536 4.21937 20.8904 4.06399 20.9765 3.87924C21.0625 3.69449 21.1019 3.5453 21.0532 3.5484C21.0208 3.55046 20.4704 4.12328 19.8472 4.83112Z" fill="#FF4158"/>
<path d="M23.3871 7.42325C23.4359 7.48831 23.3057 7.76482 23.0943 8.0576C22.8666 8.33412 22.6876 8.65943 22.6876 8.75702C22.6876 8.87088 22.6226 8.95221 22.5413 8.95221C22.4599 8.95221 22.3135 9.17993 22.1997 9.44018C22.0858 9.71669 21.7442 10.2209 21.4515 10.5462L20.8984 11.1481V18.0121C20.8984 24.4858 20.9147 24.8762 21.1912 24.7786C21.6629 24.6159 22.525 23.9165 22.4762 23.7213C22.4599 23.64 22.5738 23.5261 22.7364 23.5099C22.9154 23.4773 23.0618 23.4285 23.078 23.396C23.0943 23.3635 23.4196 23.0056 23.7937 22.5665C24.1841 22.1436 24.4443 21.7207 24.3793 21.6068C24.3142 21.4929 24.3305 21.4767 24.4443 21.5417C24.5582 21.6068 24.6395 21.5743 24.6395 21.4767C24.6395 21.3791 24.7534 21.1839 24.8998 21.0375C25.0299 20.8911 25.1112 20.6797 25.0624 20.5495C25.0136 20.4194 25.0299 20.3706 25.1275 20.4194C25.3064 20.5333 25.648 19.9477 25.5016 19.7851C25.4528 19.7363 25.4853 19.6875 25.5829 19.6875C25.6805 19.6875 25.7293 19.5736 25.6805 19.4435C25.6154 19.3134 25.6642 19.1995 25.7618 19.1995C25.8594 19.1995 25.9408 19.0694 25.9408 18.9067C25.9408 18.7441 26.0221 18.5326 26.1359 18.4187C26.2498 18.3049 26.2823 18.2236 26.2335 18.2236C26.1847 18.2236 26.2335 17.8007 26.3311 17.2802C26.5426 16.3042 26.5426 13.0023 26.3311 12.6608C26.2661 12.5469 26.1847 12.3192 26.1522 12.124C26.0709 11.4896 26.0546 11.4734 25.3877 9.84681C25.2413 9.50524 25.0624 9.16366 24.9974 9.11486C24.916 9.06607 24.6232 8.64316 24.3142 8.17146C24.0214 7.71603 23.6636 7.32565 23.5335 7.32565C23.3871 7.32565 23.322 7.37445 23.3871 7.42325Z" fill="white"/>
<path d="M18.9425 13.6533C18.9425 13.9786 14.3556 18.1263 13.7375 18.354C13.6562 18.3865 13.5911 20.2246 13.5749 22.4367L13.5586 26.4705L14.2743 26.5681C14.6647 26.6332 15.2339 26.6332 15.543 26.6006C15.852 26.5518 16.3888 26.4868 16.7466 26.4543C17.5274 26.3567 17.7063 26.3241 18.5033 26.0476L19.1051 25.8362V19.6715C19.1051 16.2883 19.0726 13.5069 19.0238 13.5069C18.975 13.5069 18.9425 13.5719 18.9425 13.6533Z" fill="white"/>
<path d="M24.3802 1.07982C24.2338 1.42139 23.9736 1.90936 23.8109 2.13708C23.6483 2.36479 23.5507 2.60878 23.6158 2.67384C23.6646 2.72264 23.6483 2.77143 23.5507 2.77143C23.323 2.77143 22.5097 4.31666 22.6561 4.47931C22.7212 4.56064 22.6886 4.56064 22.591 4.51184C22.4772 4.44678 22.2169 4.69077 21.9567 5.0974C20.6392 7.09806 18.1668 9.8632 16.2149 11.506C15.4342 12.1566 14.751 12.6934 14.6697 12.6934C14.6047 12.6934 14.5884 12.7747 14.6372 12.8561C14.7022 12.9537 14.686 13.0025 14.6047 12.9862C14.4095 12.9211 12.7666 13.9947 12.7666 14.1898C12.7666 14.2712 12.7016 14.3037 12.6203 14.2386C12.5389 14.1898 12.3437 14.2712 12.2136 14.4176C12.0672 14.5477 11.9534 14.629 11.9534 14.5639C11.9534 14.4338 10.4244 15.3284 10.3593 15.4911C10.3268 15.5724 10.2292 15.5887 10.1479 15.5236C10.0666 15.4748 10.0015 15.5236 10.0015 15.6375C10.0015 15.7513 9.95271 15.8001 9.90391 15.7513C9.85512 15.6863 9.43221 15.8164 8.94425 16.0278C8.47254 16.2393 7.56167 16.5646 6.92732 16.7598C6.29296 16.955 5.77247 17.1664 5.77247 17.2315C5.77247 17.2966 5.64234 17.3454 5.49595 17.3454C5.21944 17.3291 2.24284 17.9797 1.70608 18.1749C1.57596 18.2237 1.21812 18.2888 0.90907 18.3213C0.616291 18.3538 0.339777 18.4026 0.323511 18.4189C0.242183 18.5002 0.876539 20.3382 1.33197 21.3629C1.70608 22.2413 2.55189 23.6726 2.8284 23.9166C2.8772 23.9654 3.20251 24.3395 3.54409 24.7624C3.88566 25.2016 4.24351 25.5432 4.32483 25.5432C4.42243 25.5432 4.43869 25.4619 4.37363 25.348C4.30857 25.2341 4.32483 25.2179 4.43869 25.2829C4.53628 25.348 4.58508 25.4944 4.53628 25.6082C4.37363 26.0474 7.25263 28.1619 8.78159 28.715C9.23703 28.8776 9.67619 29.0728 9.75752 29.1379C9.85512 29.2029 10.522 29.4306 11.2214 29.6258C12.2624 29.9186 12.9456 29.9999 14.7185 29.9999C15.9222 29.9999 17.2234 29.9511 17.5975 29.9023C18.5409 29.7397 20.4928 29.0728 21.7778 28.471C23.079 27.8529 24.8519 26.5516 24.7543 26.2751C24.7055 26.1775 24.7706 26.0799 24.9007 26.0799C25.0146 26.0799 25.0634 26.1613 25.0146 26.2589C24.7218 26.7794 26.1044 25.2829 26.9665 24.1606C28.9834 21.4768 30.122 18.1098 30.0406 14.9706C30.0244 14.5639 30.0244 13.9784 30.0244 13.6531C30.0081 12.8723 29.6015 11.1157 29.1298 9.8632C28.2026 7.40711 27.1454 5.84562 25.0959 3.89375L23.9736 2.83649L24.3965 1.71417C24.8357 0.543055 24.8194 0.00629044 24.3802 1.07982ZM23.7296 5.48778C23.8597 5.56911 24.3152 6.02454 24.7381 6.5125C25.161 7.00047 25.5514 7.39084 25.6164 7.37458C25.6815 7.35831 25.7303 7.43964 25.7303 7.53723C25.7303 7.65109 25.8604 7.96014 26.0393 8.22039C26.202 8.48063 26.5436 9.11499 26.7713 9.63549C26.999 10.156 27.243 10.5301 27.3243 10.465C27.3894 10.3837 27.4056 10.4162 27.3406 10.5301C27.2918 10.6277 27.3894 11.2946 27.5845 11.994C28.105 13.8157 28.0725 16.3206 27.5358 18.305C27.308 19.102 27.0966 19.8828 27.0641 20.0129C27.0315 20.143 26.9502 20.2894 26.9014 20.3382C26.8363 20.387 26.6086 20.7936 26.3809 21.2328C25.9417 22.1112 24.0224 24.5673 23.7947 24.5673C23.7134 24.5673 23.6971 24.6486 23.7459 24.7299C23.8109 24.8275 23.7784 24.8763 23.6971 24.86C23.4206 24.7787 21.8591 26.0311 21.9729 26.2263C22.038 26.3239 22.0217 26.3565 21.9241 26.3077C21.8265 26.2426 21.1597 26.4541 20.444 26.7631C19.7283 27.0721 18.6385 27.4462 18.0204 27.6089C17.4186 27.7553 16.8005 27.9017 16.6704 27.9342C16.3451 28.0318 13.5637 28.0318 13.2546 27.9342C13.1245 27.9017 12.604 27.7716 12.116 27.6577C10.8636 27.3812 8.94425 26.6004 8.09844 26.0311C7.70806 25.7546 7.35022 25.5432 7.30143 25.5432C7.04118 25.5432 4.14591 22.3877 4.14591 22.0949C4.14591 22.0298 4.40616 21.8672 4.71521 21.737C5.02425 21.6069 5.2845 21.3955 5.2845 21.2816C5.2845 21.1352 5.3333 21.1352 5.44715 21.3141C5.57728 21.5256 5.60981 21.5093 5.69114 21.2979C5.73993 21.1515 5.88632 21.0376 6.00018 21.0376C6.35802 21.0376 9.35088 19.5249 9.35088 19.346C9.35088 19.2484 9.41595 19.2159 9.49727 19.281C9.5786 19.3297 9.69246 19.2972 9.75752 19.1996C9.80632 19.102 10.1479 18.8906 10.5057 18.6954C10.8636 18.5165 11.1076 18.305 11.0588 18.2237C11.01 18.1261 11.075 18.1098 11.2052 18.1586C11.3515 18.2074 11.4654 18.1912 11.4654 18.1261C11.4654 18.0448 11.6931 17.8821 11.9534 17.7683C12.2299 17.6381 12.3925 17.4755 12.3437 17.3779C12.2787 17.264 12.3112 17.2478 12.4088 17.3128C12.5064 17.3779 12.7341 17.2803 12.9293 17.0851C13.1082 16.9062 13.3034 16.7598 13.3522 16.7598C13.7588 16.7598 17.5162 13.1976 17.3698 12.9699C17.321 12.8723 17.3373 12.8561 17.4349 12.9049C17.874 13.1814 22.3796 6.85408 22.2332 6.1384C22.2169 6.07334 22.2657 6.02454 22.347 6.02454C22.4284 6.02454 22.5748 5.78056 22.7049 5.48778C22.9651 4.82089 23.2254 4.65823 23.3718 5.04861C23.4368 5.21126 23.5995 5.40645 23.7296 5.48778Z" fill="#37FF7B"/>
</svg>
