<svg width="24" height="19" viewBox="0 0 24 19" fill="none" xmlns="http://www.w3.org/2000/svg">
<g clip-path="url(#clip0_0_1986)">
<g clip-path="url(#clip1_0_1986)">
<path d="M12.3755 4.31885C14.6176 4.31885 16.443 6.1034 16.5086 8.32962L16.5104 8.45374V11.1161L17.4833 12.1346V14.048L13.5743 14.0482C13.5858 14.1283 13.5917 14.2095 13.5917 14.2912C13.5917 15.2316 12.8294 15.9938 11.8891 15.9938C10.9487 15.9938 10.1865 15.2316 10.1865 14.2912C10.1865 14.2095 10.1923 14.1283 10.2038 14.0482L6.78125 14.048V12.1277L7.75417 11.1332V8.45374C7.75417 6.25314 9.47323 4.45406 11.6417 4.32612L11.7649 4.32068L11.8891 4.31885H12.3755ZM12.577 14.0474H11.2011C11.174 14.1243 11.1594 14.2061 11.1594 14.2912C11.1594 14.6705 11.4488 14.9822 11.8188 15.0176L11.8891 15.0209L11.9593 15.0176C12.3294 14.9822 12.6188 14.6705 12.6188 14.2912C12.6188 14.2057 12.604 14.1236 12.577 14.0474ZM16.5104 13.0751V12.5246L15.5375 11.5063V8.45374C15.5375 6.74539 14.1827 5.35347 12.4889 5.29376L12.3755 5.29176H11.8891C10.1807 5.29176 8.78879 6.64655 8.72908 8.34033L8.72708 8.45374V11.5306L7.75417 12.5246V13.0751H16.5104Z" fill="white"/>
</g>
</g>
<rect x="11.2676" y="0.67041" width="10.0989" height="9.48594" rx="4.74297" fill="#00DA85"/>
<path d="M16.1725 8.19469C15.8989 8.19469 15.6524 8.14028 15.4332 8.03145C15.214 7.92262 15.0383 7.77336 14.9062 7.58368C14.774 7.39401 14.7017 7.1779 14.6893 6.93536H15.249C15.2707 7.15147 15.3687 7.33026 15.5428 7.47174C15.7185 7.61167 15.9284 7.68163 16.1725 7.68163C16.3684 7.68163 16.5425 7.63577 16.6949 7.54404C16.8488 7.45231 16.9693 7.32638 17.0564 7.16624C17.145 7.00455 17.1893 6.82187 17.1893 6.6182C17.1893 6.40986 17.1434 6.22407 17.0517 6.06082C16.9615 5.89602 16.8371 5.7662 16.6786 5.67136C16.52 5.57652 16.3389 5.52833 16.1352 5.52677C15.989 5.52522 15.839 5.54776 15.6851 5.5944C15.5312 5.63949 15.4045 5.69779 15.305 5.76931L14.7639 5.70401L15.0531 3.35326H17.5344V3.86632H15.5382L15.3703 5.27491H15.3982C15.4962 5.19717 15.619 5.13265 15.7667 5.08134C15.9144 5.03004 16.0683 5.00438 16.2285 5.00438C16.5208 5.00438 16.7812 5.07435 17.0097 5.21427C17.2398 5.35264 17.4202 5.54232 17.5508 5.7833C17.6829 6.02429 17.749 6.29948 17.749 6.60887C17.749 6.91359 17.6806 7.18567 17.5438 7.4251C17.4085 7.66297 17.2219 7.8511 16.9841 7.98947C16.7462 8.12629 16.4757 8.19469 16.1725 8.19469Z" fill="white"/>
<defs>
<clipPath id="clip0_0_1986">
<rect width="11.675" height="11.675" fill="white" transform="translate(6.05078 4.31885)"/>
</clipPath>
<clipPath id="clip1_0_1986">
<rect width="11.675" height="11.675" fill="white" transform="translate(6.05078 4.31885)"/>
</clipPath>
</defs>
</svg>
