<svg width="8" height="8" viewBox="0 0 8 8" fill="none" xmlns="http://www.w3.org/2000/svg">
<path d="M4 0C3.20888 0 2.43552 0.234596 1.77772 0.674121C1.11992 1.11365 0.607234 1.73836 0.304484 2.46927C0.00173312 3.20017 -0.0774802 4.00444 0.0768607 4.78036C0.231202 5.55628 0.612164 6.26902 1.17157 6.82843C1.73098 7.38784 2.44372 7.7688 3.21964 7.92314C3.99556 8.07748 4.79983 7.99827 5.53073 7.69552C6.26164 7.39277 6.88635 6.88008 7.32588 6.22228C7.7654 5.56448 8 4.79112 8 4C8 3.47471 7.89654 2.95457 7.69552 2.46927C7.4945 1.98396 7.19986 1.54301 6.82843 1.17157C6.45699 0.800138 6.01604 0.505501 5.53073 0.304482C5.04543 0.103463 4.52529 0 4 0ZM4 6.4C3.92089 6.4 3.84355 6.37654 3.77777 6.33259C3.71199 6.28863 3.66072 6.22616 3.63045 6.15307C3.60017 6.07998 3.59225 5.99955 3.60769 5.92196C3.62312 5.84437 3.66122 5.7731 3.71716 5.71716C3.7731 5.66121 3.84437 5.62312 3.92197 5.60768C3.99956 5.59225 4.07998 5.60017 4.15307 5.63045C4.22617 5.66072 4.28864 5.71199 4.33259 5.77777C4.37654 5.84355 4.4 5.92089 4.4 6C4.4 6.10608 4.35786 6.20783 4.28284 6.28284C4.20783 6.35786 4.10609 6.4 4 6.4ZM4.4 4.336V4.8C4.4 4.90609 4.35786 5.00783 4.28284 5.08284C4.20783 5.15786 4.10609 5.2 4 5.2C3.89391 5.2 3.79217 5.15786 3.71716 5.08284C3.64214 5.00783 3.6 4.90609 3.6 4.8V4C3.6 3.89391 3.64214 3.79217 3.71716 3.71716C3.79217 3.64214 3.89391 3.6 4 3.6C4.11867 3.6 4.23467 3.56481 4.33334 3.49888C4.43201 3.43295 4.50892 3.33924 4.55433 3.22961C4.59974 3.11997 4.61162 2.99933 4.58847 2.88294C4.56532 2.76656 4.50818 2.65965 4.42427 2.57574C4.34035 2.49182 4.23344 2.43468 4.11706 2.41153C4.00067 2.38838 3.88003 2.40026 3.77039 2.44567C3.66076 2.49108 3.56705 2.56799 3.50112 2.66666C3.43519 2.76533 3.4 2.88133 3.4 3C3.4 3.10609 3.35786 3.20783 3.28284 3.28284C3.20783 3.35786 3.10609 3.4 3 3.4C2.89391 3.4 2.79217 3.35786 2.71716 3.28284C2.64214 3.20783 2.6 3.10609 2.6 3C2.59895 2.74012 2.67026 2.48508 2.80595 2.26343C2.94163 2.04178 3.13633 1.86227 3.36825 1.745C3.60017 1.62773 3.86015 1.57733 4.11909 1.59944C4.37803 1.62155 4.6257 1.71529 4.83438 1.87018C5.04307 2.02507 5.20452 2.23498 5.30066 2.47643C5.3968 2.71787 5.42385 2.98131 5.37876 3.23725C5.33367 3.49319 5.21824 3.73153 5.04537 3.92558C4.87251 4.11964 4.64905 4.26174 4.4 4.336Z" fill="white"/>
</svg>
