<svg width="157" height="46" viewBox="0 0 157 46" fill="none" xmlns="http://www.w3.org/2000/svg">
<rect x="0.578125" width="156.42" height="46" rx="8" fill="#1D2631"/>
<path d="M29.2784 21.4375H26.7898C26.7443 21.1155 26.6515 20.8295 26.5114 20.5795C26.3712 20.3258 26.1913 20.1098 25.9716 19.9318C25.7519 19.7538 25.4981 19.6174 25.2102 19.5227C24.9261 19.428 24.6174 19.3807 24.2841 19.3807C23.6818 19.3807 23.1572 19.5303 22.7102 19.8295C22.2633 20.125 21.9167 20.5568 21.6705 21.125C21.4242 21.6894 21.3011 22.375 21.3011 23.1818C21.3011 24.0114 21.4242 24.7083 21.6705 25.2727C21.9205 25.8371 22.2689 26.2633 22.7159 26.5511C23.1629 26.839 23.6799 26.983 24.267 26.983C24.5966 26.983 24.9015 26.9394 25.1818 26.8523C25.4659 26.7652 25.7178 26.6383 25.9375 26.4716C26.1572 26.3011 26.339 26.0947 26.483 25.8523C26.6307 25.6098 26.733 25.3333 26.7898 25.0227L29.2784 25.0341C29.214 25.5682 29.053 26.0833 28.7955 26.5795C28.5417 27.072 28.1989 27.5133 27.767 27.9034C27.339 28.2898 26.8277 28.5966 26.233 28.8239C25.642 29.0473 24.9735 29.1591 24.2273 29.1591C23.1894 29.1591 22.2614 28.9242 21.4432 28.4545C20.6288 27.9848 19.9848 27.3049 19.5114 26.4148C19.0417 25.5246 18.8068 24.447 18.8068 23.1818C18.8068 21.9129 19.0455 20.8333 19.5227 19.9432C20 19.053 20.6477 18.375 21.4659 17.9091C22.2841 17.4394 23.2045 17.2045 24.2273 17.2045C24.9015 17.2045 25.5265 17.2992 26.1023 17.4886C26.6818 17.678 27.1951 17.9545 27.642 18.3182C28.089 18.678 28.4527 19.1193 28.733 19.642C29.017 20.1648 29.1989 20.7633 29.2784 21.4375ZM30.9972 29V20.2727H33.3438V21.7955H33.4347C33.5938 21.2538 33.8608 20.8447 34.2358 20.5682C34.6108 20.2879 35.0426 20.1477 35.5312 20.1477C35.6525 20.1477 35.7831 20.1553 35.9233 20.1705C36.0634 20.1856 36.1866 20.2064 36.2926 20.233V22.3807C36.179 22.3466 36.0218 22.3163 35.821 22.2898C35.6203 22.2633 35.4366 22.25 35.2699 22.25C34.9138 22.25 34.5956 22.3277 34.3153 22.483C34.0388 22.6345 33.8191 22.8466 33.6562 23.1193C33.4972 23.392 33.4176 23.7064 33.4176 24.0625V29H30.9972ZM41.1151 29.1705C40.2173 29.1705 39.4446 28.9886 38.7969 28.625C38.1529 28.2576 37.6567 27.7386 37.3082 27.0682C36.9598 26.3939 36.7855 25.5966 36.7855 24.6761C36.7855 23.7784 36.9598 22.9905 37.3082 22.3125C37.6567 21.6345 38.1473 21.1061 38.7798 20.7273C39.4162 20.3485 40.1624 20.1591 41.0185 20.1591C41.5942 20.1591 42.1302 20.2519 42.6264 20.4375C43.1264 20.6193 43.562 20.8939 43.9332 21.2614C44.3082 21.6288 44.5999 22.0909 44.8082 22.6477C45.0166 23.2008 45.1207 23.8485 45.1207 24.5909V25.2557H37.7514V23.7557H42.8423C42.8423 23.4072 42.7666 23.0985 42.6151 22.8295C42.4635 22.5606 42.2533 22.3504 41.9844 22.1989C41.7192 22.0436 41.4105 21.9659 41.0582 21.9659C40.6908 21.9659 40.3651 22.0511 40.081 22.2216C39.8007 22.3883 39.581 22.6136 39.4219 22.8977C39.2628 23.178 39.1813 23.4905 39.1776 23.8352V25.2614C39.1776 25.6932 39.2571 26.0663 39.4162 26.3807C39.5791 26.6951 39.8082 26.9375 40.1037 27.108C40.3991 27.2784 40.7495 27.3636 41.1548 27.3636C41.4238 27.3636 41.67 27.3258 41.8935 27.25C42.117 27.1742 42.3082 27.0606 42.4673 26.9091C42.6264 26.7576 42.7476 26.572 42.831 26.3523L45.0696 26.5C44.956 27.0379 44.723 27.5076 44.3707 27.9091C44.0223 28.3068 43.5715 28.6174 43.0185 28.8409C42.4692 29.0606 41.8348 29.1705 41.1151 29.1705ZM49.1889 29.1648C48.6321 29.1648 48.1359 29.0682 47.7003 28.875C47.2647 28.678 46.92 28.3883 46.6662 28.0057C46.4162 27.6193 46.2912 27.1383 46.2912 26.5625C46.2912 26.0777 46.3802 25.6705 46.5582 25.3409C46.7363 25.0114 46.9787 24.7462 47.2855 24.5455C47.5923 24.3447 47.9408 24.1932 48.331 24.0909C48.7249 23.9886 49.1378 23.9167 49.5696 23.875C50.0772 23.822 50.4863 23.7727 50.7969 23.7273C51.1075 23.678 51.3329 23.6061 51.473 23.5114C51.6132 23.4167 51.6832 23.2765 51.6832 23.0909V23.0568C51.6832 22.697 51.5696 22.4186 51.3423 22.2216C51.1188 22.0246 50.8007 21.9261 50.3878 21.9261C49.9522 21.9261 49.6056 22.0227 49.348 22.2159C49.0904 22.4053 48.92 22.6439 48.8366 22.9318L46.598 22.75C46.7116 22.2197 46.9351 21.7614 47.2685 21.375C47.6018 20.9848 48.0317 20.6856 48.5582 20.4773C49.0885 20.2652 49.7022 20.1591 50.3991 20.1591C50.884 20.1591 51.348 20.2159 51.7912 20.3295C52.2382 20.4432 52.634 20.6193 52.9787 20.858C53.3272 21.0966 53.6018 21.4034 53.8026 21.7784C54.0033 22.1496 54.1037 22.5947 54.1037 23.1136V29H51.8082V27.7898H51.7401C51.5999 28.0625 51.4124 28.303 51.1776 28.5114C50.9427 28.7159 50.6605 28.8769 50.331 28.9943C50.0014 29.108 49.6207 29.1648 49.1889 29.1648ZM49.8821 27.4943C50.2382 27.4943 50.5526 27.4242 50.8253 27.2841C51.098 27.1402 51.312 26.947 51.4673 26.7045C51.6226 26.4621 51.7003 26.1875 51.7003 25.8807V24.9545C51.6245 25.0038 51.5204 25.0492 51.3878 25.0909C51.259 25.1288 51.1132 25.1648 50.9503 25.1989C50.7874 25.2292 50.6245 25.2576 50.4616 25.2841C50.2988 25.3068 50.151 25.3277 50.0185 25.3466C49.7344 25.3883 49.4863 25.4545 49.2741 25.5455C49.062 25.6364 48.8973 25.7595 48.7798 25.9148C48.6624 26.0663 48.6037 26.2557 48.6037 26.483C48.6037 26.8125 48.723 27.0644 48.9616 27.2386C49.2041 27.4091 49.5109 27.4943 49.8821 27.4943ZM60.6236 20.2727V22.0909H55.3679V20.2727H60.6236ZM56.5611 18.1818H58.9815V26.3182C58.9815 26.5417 59.0156 26.7159 59.0838 26.8409C59.152 26.9621 59.2467 27.0473 59.3679 27.0966C59.4929 27.1458 59.6368 27.1705 59.7997 27.1705C59.9134 27.1705 60.027 27.161 60.1406 27.142C60.2543 27.1193 60.3414 27.1023 60.402 27.0909L60.7827 28.892C60.6615 28.9299 60.491 28.9735 60.2713 29.0227C60.0516 29.0758 59.7846 29.108 59.4702 29.1193C58.8868 29.142 58.3755 29.0644 57.9361 28.8864C57.5005 28.7083 57.1615 28.4318 56.919 28.0568C56.6766 27.6818 56.5573 27.2083 56.5611 26.6364V18.1818ZM66.0838 29.1705C65.1861 29.1705 64.4134 28.9886 63.7656 28.625C63.1217 28.2576 62.6255 27.7386 62.277 27.0682C61.9285 26.3939 61.7543 25.5966 61.7543 24.6761C61.7543 23.7784 61.9285 22.9905 62.277 22.3125C62.6255 21.6345 63.116 21.1061 63.7486 20.7273C64.3849 20.3485 65.1312 20.1591 65.9872 20.1591C66.563 20.1591 67.099 20.2519 67.5952 20.4375C68.0952 20.6193 68.5308 20.8939 68.902 21.2614C69.277 21.6288 69.5687 22.0909 69.777 22.6477C69.9853 23.2008 70.0895 23.8485 70.0895 24.5909V25.2557H62.7202V23.7557H67.8111C67.8111 23.4072 67.7353 23.0985 67.5838 22.8295C67.4323 22.5606 67.2221 22.3504 66.9531 22.1989C66.688 22.0436 66.3793 21.9659 66.027 21.9659C65.6596 21.9659 65.3338 22.0511 65.0497 22.2216C64.7694 22.3883 64.5497 22.6136 64.3906 22.8977C64.2315 23.178 64.1501 23.4905 64.1463 23.8352V25.2614C64.1463 25.6932 64.2259 26.0663 64.3849 26.3807C64.5478 26.6951 64.777 26.9375 65.0724 27.108C65.3679 27.2784 65.7183 27.3636 66.1236 27.3636C66.3925 27.3636 66.6387 27.3258 66.8622 27.25C67.0857 27.1742 67.277 27.0606 67.4361 26.9091C67.5952 26.7576 67.7164 26.572 67.7997 26.3523L70.0384 26.5C69.9247 27.0379 69.6918 27.5076 69.3395 27.9091C68.991 28.3068 68.5402 28.6174 67.9872 28.8409C67.438 29.0606 66.8035 29.1705 66.0838 29.1705ZM77.8608 29.1648C77.304 29.1648 76.8078 29.0682 76.3722 28.875C75.9366 28.678 75.5919 28.3883 75.3381 28.0057C75.0881 27.6193 74.9631 27.1383 74.9631 26.5625C74.9631 26.0777 75.0521 25.6705 75.2301 25.3409C75.4081 25.0114 75.6506 24.7462 75.9574 24.5455C76.2642 24.3447 76.6127 24.1932 77.0028 24.0909C77.3968 23.9886 77.8097 23.9167 78.2415 23.875C78.7491 23.822 79.1581 23.7727 79.4688 23.7273C79.7794 23.678 80.0047 23.6061 80.1449 23.5114C80.285 23.4167 80.3551 23.2765 80.3551 23.0909V23.0568C80.3551 22.697 80.2415 22.4186 80.0142 22.2216C79.7907 22.0246 79.4725 21.9261 79.0597 21.9261C78.6241 21.9261 78.2775 22.0227 78.0199 22.2159C77.7623 22.4053 77.5919 22.6439 77.5085 22.9318L75.2699 22.75C75.3835 22.2197 75.607 21.7614 75.9403 21.375C76.2737 20.9848 76.7036 20.6856 77.2301 20.4773C77.7604 20.2652 78.3741 20.1591 79.071 20.1591C79.5559 20.1591 80.0199 20.2159 80.4631 20.3295C80.91 20.4432 81.3059 20.6193 81.6506 20.858C81.9991 21.0966 82.2737 21.4034 82.4744 21.7784C82.6752 22.1496 82.7756 22.5947 82.7756 23.1136V29H80.4801V27.7898H80.4119C80.2718 28.0625 80.0843 28.303 79.8494 28.5114C79.6146 28.7159 79.3324 28.8769 79.0028 28.9943C78.6733 29.108 78.2926 29.1648 77.8608 29.1648ZM78.554 27.4943C78.91 27.4943 79.2244 27.4242 79.4972 27.2841C79.7699 27.1402 79.9839 26.947 80.1392 26.7045C80.2945 26.4621 80.3722 26.1875 80.3722 25.8807V24.9545C80.2964 25.0038 80.1922 25.0492 80.0597 25.0909C79.9309 25.1288 79.785 25.1648 79.6222 25.1989C79.4593 25.2292 79.2964 25.2576 79.1335 25.2841C78.9706 25.3068 78.8229 25.3277 78.6903 25.3466C78.4063 25.3883 78.1581 25.4545 77.946 25.5455C77.7339 25.6364 77.5691 25.7595 77.4517 25.9148C77.3343 26.0663 77.2756 26.2557 77.2756 26.483C77.2756 26.8125 77.3949 27.0644 77.6335 27.2386C77.8759 27.4091 78.1828 27.4943 78.554 27.4943ZM88.5966 29.1705C87.7027 29.1705 86.9337 28.9811 86.2898 28.6023C85.6496 28.2197 85.1572 27.6894 84.8125 27.0114C84.4716 26.3333 84.3011 25.553 84.3011 24.6705C84.3011 23.7765 84.4735 22.9924 84.8182 22.3182C85.1667 21.6402 85.661 21.1117 86.3011 20.733C86.9413 20.3504 87.7027 20.1591 88.5852 20.1591C89.3466 20.1591 90.0133 20.2973 90.5852 20.5739C91.1572 20.8504 91.6098 21.2386 91.9432 21.7386C92.2765 22.2386 92.4602 22.8258 92.4943 23.5H90.2102C90.1458 23.0644 89.9754 22.714 89.6989 22.4489C89.4261 22.1799 89.0682 22.0455 88.625 22.0455C88.25 22.0455 87.9223 22.1477 87.642 22.3523C87.3655 22.553 87.1496 22.8466 86.9943 23.233C86.839 23.6193 86.7614 24.0871 86.7614 24.6364C86.7614 25.1932 86.8371 25.6667 86.9886 26.0568C87.1439 26.447 87.3617 26.7443 87.642 26.9489C87.9223 27.1534 88.25 27.2557 88.625 27.2557C88.9015 27.2557 89.1496 27.1989 89.3693 27.0852C89.5928 26.9716 89.7765 26.8068 89.9205 26.5909C90.0682 26.3712 90.1648 26.108 90.2102 25.8011H92.4943C92.4564 26.4678 92.2746 27.0549 91.9489 27.5625C91.6269 28.0663 91.1818 28.4602 90.6136 28.7443C90.0455 29.0284 89.3731 29.1705 88.5966 29.1705ZM97.9872 29.1705C97.0933 29.1705 96.3243 28.9811 95.6804 28.6023C95.0402 28.2197 94.5478 27.6894 94.2031 27.0114C93.8622 26.3333 93.6918 25.553 93.6918 24.6705C93.6918 23.7765 93.8641 22.9924 94.2088 22.3182C94.5573 21.6402 95.0516 21.1117 95.6918 20.733C96.3319 20.3504 97.0933 20.1591 97.9759 20.1591C98.7372 20.1591 99.4039 20.2973 99.9759 20.5739C100.548 20.8504 101 21.2386 101.334 21.7386C101.667 22.2386 101.851 22.8258 101.885 23.5H99.6009C99.5365 23.0644 99.366 22.714 99.0895 22.4489C98.8168 22.1799 98.4588 22.0455 98.0156 22.0455C97.6406 22.0455 97.313 22.1477 97.0327 22.3523C96.7562 22.553 96.5402 22.8466 96.3849 23.233C96.2296 23.6193 96.152 24.0871 96.152 24.6364C96.152 25.1932 96.2277 25.6667 96.3793 26.0568C96.5346 26.447 96.7524 26.7443 97.0327 26.9489C97.313 27.1534 97.6406 27.2557 98.0156 27.2557C98.2921 27.2557 98.5402 27.1989 98.7599 27.0852C98.9834 26.9716 99.1671 26.8068 99.3111 26.5909C99.4588 26.3712 99.5554 26.108 99.6009 25.8011H101.885C101.847 26.4678 101.665 27.0549 101.339 27.5625C101.018 28.0663 100.572 28.4602 100.004 28.7443C99.4361 29.0284 98.7637 29.1705 97.9872 29.1705ZM107.378 29.1705C106.495 29.1705 105.732 28.983 105.088 28.608C104.448 28.2292 103.954 27.7027 103.605 27.0284C103.257 26.3504 103.082 25.5644 103.082 24.6705C103.082 23.7689 103.257 22.9811 103.605 22.3068C103.954 21.6288 104.448 21.1023 105.088 20.7273C105.732 20.3485 106.495 20.1591 107.378 20.1591C108.26 20.1591 109.022 20.3485 109.662 20.7273C110.306 21.1023 110.802 21.6288 111.151 22.3068C111.499 22.9811 111.673 23.7689 111.673 24.6705C111.673 25.5644 111.499 26.3504 111.151 27.0284C110.802 27.7027 110.306 28.2292 109.662 28.608C109.022 28.983 108.26 29.1705 107.378 29.1705ZM107.389 27.2955C107.791 27.2955 108.126 27.1818 108.395 26.9545C108.664 26.7235 108.866 26.4091 109.003 26.0114C109.143 25.6136 109.213 25.161 109.213 24.6534C109.213 24.1458 109.143 23.6932 109.003 23.2955C108.866 22.8977 108.664 22.5833 108.395 22.3523C108.126 22.1212 107.791 22.0057 107.389 22.0057C106.984 22.0057 106.643 22.1212 106.366 22.3523C106.094 22.5833 105.887 22.8977 105.747 23.2955C105.611 23.6932 105.543 24.1458 105.543 24.6534C105.543 25.161 105.611 25.6136 105.747 26.0114C105.887 26.4091 106.094 26.7235 106.366 26.9545C106.643 27.1818 106.984 27.2955 107.389 27.2955ZM118.844 25.2841V20.2727H121.264V29H118.94V27.4148H118.849C118.652 27.9261 118.325 28.3371 117.866 28.6477C117.412 28.9583 116.857 29.1136 116.202 29.1136C115.618 29.1136 115.105 28.9811 114.662 28.7159C114.219 28.4508 113.872 28.0739 113.622 27.5852C113.376 27.0966 113.251 26.5114 113.247 25.8295V20.2727H115.668V25.3977C115.671 25.9129 115.81 26.3201 116.082 26.6193C116.355 26.9186 116.721 27.0682 117.179 27.0682C117.471 27.0682 117.743 27.0019 117.997 26.8693C118.251 26.733 118.455 26.5322 118.611 26.267C118.77 26.0019 118.848 25.6742 118.844 25.2841ZM125.621 23.9545V29H123.2V20.2727H125.507V21.8125H125.609C125.803 21.3049 126.126 20.9034 126.581 20.608C127.036 20.3087 127.587 20.1591 128.234 20.1591C128.84 20.1591 129.369 20.2917 129.82 20.5568C130.27 20.822 130.621 21.2008 130.871 21.6932C131.121 22.1818 131.246 22.7652 131.246 23.4432V29H128.825V23.875C128.829 23.3409 128.693 22.9242 128.416 22.625C128.14 22.322 127.759 22.1705 127.274 22.1705C126.948 22.1705 126.661 22.2405 126.411 22.3807C126.164 22.5208 125.971 22.7254 125.831 22.9943C125.695 23.2595 125.625 23.5795 125.621 23.9545ZM137.795 20.2727V22.0909H132.54V20.2727H137.795ZM133.733 18.1818H136.153V26.3182C136.153 26.5417 136.188 26.7159 136.256 26.8409C136.324 26.9621 136.419 27.0473 136.54 27.0966C136.665 27.1458 136.809 27.1705 136.972 27.1705C137.085 27.1705 137.199 27.161 137.312 27.142C137.426 27.1193 137.513 27.1023 137.574 27.0909L137.955 28.892C137.833 28.9299 137.663 28.9735 137.443 29.0227C137.223 29.0758 136.956 29.108 136.642 29.1193C136.059 29.142 135.547 29.0644 135.108 28.8864C134.672 28.7083 134.333 28.4318 134.091 28.0568C133.848 27.6818 133.729 27.2083 133.733 26.6364V18.1818Z" fill="white"/>
</svg>
