<svg width="60" height="24" viewBox="0 0 60 24" fill="none" xmlns="http://www.w3.org/2000/svg">
<rect x="0.958984" y="0.480957" width="58.7982" height="23.35" rx="2.91875" fill="#1D59F2"/>
<path d="M11.3064 15.6836V8.25405H13.9547C14.5303 8.25405 15.0079 8.35321 15.3876 8.55152C15.7697 8.74984 16.0551 9.02433 16.2438 9.37501C16.4324 9.72327 16.5267 10.1259 16.5267 10.583C16.5267 11.0377 16.4312 11.438 16.2401 11.7838C16.0515 12.1272 15.7661 12.3945 15.384 12.5855C15.0043 12.7766 14.5266 12.8721 13.951 12.8721H11.9449V11.9072H13.8495C14.2122 11.9072 14.5073 11.8552 14.7346 11.7512C14.9644 11.6472 15.1325 11.496 15.2389 11.2977C15.3453 11.0994 15.3985 10.8612 15.3985 10.583C15.3985 10.3025 15.3441 10.0594 15.2352 9.85387C15.1288 9.6483 14.9608 9.4911 14.731 9.38227C14.5037 9.27102 14.205 9.21539 13.835 9.21539H12.4274V15.6836H11.3064ZM14.9741 12.3316L16.8097 15.6836H15.5327L13.7334 12.3316H14.9741ZM20.1354 15.7961C19.5864 15.7961 19.1136 15.6788 18.7169 15.4442C18.3227 15.2072 18.018 14.8746 17.8028 14.4465C17.5899 14.0161 17.4835 13.5118 17.4835 12.9338C17.4835 12.363 17.5899 11.86 17.8028 11.4247C18.018 10.9893 18.3179 10.6495 18.7024 10.4053C19.0894 10.161 19.5416 10.0389 20.0592 10.0389C20.3736 10.0389 20.6783 10.0909 20.9734 10.1949C21.2684 10.2989 21.5333 10.4621 21.7678 10.6846C22.0024 10.9071 22.1874 11.1961 22.3229 11.5516C22.4583 11.9047 22.526 12.334 22.526 12.8395V13.224H18.0966V12.4114H21.4631C21.4631 12.126 21.4051 11.8733 21.289 11.6532C21.1729 11.4307 21.0097 11.2554 20.7992 11.1272C20.5913 10.999 20.347 10.9349 20.0664 10.9349C19.7617 10.9349 19.4957 11.0099 19.2684 11.1598C19.0434 11.3074 18.8693 11.5008 18.746 11.7403C18.625 11.9773 18.5646 12.2349 18.5646 12.513V13.1478C18.5646 13.5203 18.6299 13.8371 18.7605 14.0983C18.8935 14.3595 19.0785 14.559 19.3155 14.6969C19.5525 14.8323 19.8294 14.9 20.1463 14.9C20.3518 14.9 20.5393 14.871 20.7086 14.8129C20.8778 14.7525 21.0242 14.663 21.1475 14.5445C21.2708 14.426 21.3652 14.2797 21.4305 14.1055L22.4571 14.2906C22.3749 14.5929 22.2274 14.8577 22.0145 15.085C21.8041 15.3099 21.5393 15.4853 21.2201 15.611C20.9032 15.7344 20.5417 15.7961 20.1354 15.7961ZM26.0658 17.8892C25.6232 17.8892 25.2423 17.8312 24.923 17.7151C24.6062 17.599 24.3474 17.4455 24.1467 17.2544C23.946 17.0633 23.796 16.8541 23.6969 16.6268L24.6292 16.2423C24.6945 16.3487 24.7816 16.4611 24.8904 16.5796C25.0016 16.7006 25.1516 16.8033 25.3402 16.888C25.5313 16.9726 25.7768 17.015 26.0767 17.015C26.4878 17.015 26.8276 16.9146 27.096 16.7139C27.3645 16.5155 27.4987 16.1987 27.4987 15.7634V14.6678H27.4298C27.3645 14.7863 27.2702 14.9181 27.1468 15.0633C27.0259 15.2084 26.859 15.3341 26.6462 15.4405C26.4334 15.547 26.1565 15.6002 25.8155 15.6002C25.3753 15.6002 24.9787 15.4974 24.6256 15.2918C24.2749 15.0838 23.9968 14.7779 23.7912 14.374C23.588 13.9677 23.4865 13.4683 23.4865 12.8757C23.4865 12.2832 23.5868 11.7753 23.7876 11.3521C23.9907 10.9289 24.2688 10.6048 24.6219 10.3799C24.975 10.1525 25.3753 10.0389 25.8227 10.0389C26.1686 10.0389 26.4479 10.0969 26.6607 10.213C26.8735 10.3267 27.0392 10.4597 27.1577 10.6121C27.2786 10.7644 27.3717 10.8986 27.437 11.0147H27.5169V10.1114H28.5798V15.8069C28.5798 16.2858 28.4685 16.6788 28.246 16.9859C28.0235 17.2931 27.7224 17.5204 27.3427 17.6679C26.9654 17.8155 26.5398 17.8892 26.0658 17.8892ZM26.0549 14.7005C26.3669 14.7005 26.6305 14.6279 26.8457 14.4828C27.0634 14.3353 27.2278 14.1249 27.3391 13.8516C27.4528 13.5759 27.5096 13.2458 27.5096 12.8612C27.5096 12.4864 27.454 12.1563 27.3427 11.8709C27.2315 11.5855 27.0682 11.363 26.853 11.2034C26.6377 11.0413 26.3717 10.9603 26.0549 10.9603C25.7284 10.9603 25.4563 11.045 25.2387 11.2143C25.021 11.3811 24.8565 11.6085 24.7453 11.8963C24.6365 12.1841 24.582 12.5057 24.582 12.8612C24.582 13.2264 24.6377 13.5469 24.7489 13.8226C24.8602 14.0983 25.0246 14.3135 25.2423 14.4683C25.4624 14.6231 25.7332 14.7005 26.0549 14.7005ZM30.0345 15.6836V10.1114H31.1192V15.6836H30.0345ZM30.5823 9.25167C30.3936 9.25167 30.2316 9.18879 30.0962 9.06303C29.9631 8.93485 29.8966 8.78248 29.8966 8.60594C29.8966 8.42697 29.9631 8.27461 30.0962 8.14885C30.2316 8.02067 30.3936 7.95658 30.5823 7.95658C30.7709 7.95658 30.9317 8.02067 31.0647 8.14885C31.2002 8.27461 31.2679 8.42697 31.2679 8.60594C31.2679 8.78248 31.2002 8.93485 31.0647 9.06303C30.9317 9.18879 30.7709 9.25167 30.5823 9.25167ZM36.7539 11.4718L35.7708 11.646C35.7297 11.5202 35.6644 11.4005 35.5749 11.2868C35.4878 11.1731 35.3693 11.08 35.2194 11.0075C35.0694 10.9349 34.882 10.8986 34.6571 10.8986C34.3499 10.8986 34.0936 10.9676 33.888 11.1054C33.6824 11.2409 33.5797 11.4162 33.5797 11.6314C33.5797 11.8177 33.6486 11.9676 33.7864 12.0813C33.9243 12.1949 34.1468 12.2881 34.4539 12.3606L35.3391 12.5638C35.8518 12.6823 36.2339 12.8649 36.4855 13.1115C36.737 13.3582 36.8627 13.6787 36.8627 14.0729C36.8627 14.4066 36.766 14.7041 36.5725 14.9653C36.3815 15.2241 36.1142 15.4272 35.7708 15.5748C35.4298 15.7223 35.0344 15.7961 34.5845 15.7961C33.9606 15.7961 33.4515 15.663 33.0573 15.397C32.6631 15.1286 32.4212 14.7476 32.3317 14.2543L33.3801 14.0947C33.4454 14.3679 33.5797 14.5747 33.7828 14.715C33.986 14.8528 34.2508 14.9218 34.5773 14.9218C34.9328 14.9218 35.217 14.848 35.4298 14.7005C35.6426 14.5505 35.749 14.3679 35.749 14.1527C35.749 13.9786 35.6837 13.8323 35.5531 13.7137C35.425 13.5952 35.2278 13.5058 34.9618 13.4453L34.0186 13.2385C33.4986 13.12 33.1141 12.9314 32.865 12.6726C32.6183 12.4138 32.495 12.0861 32.495 11.6895C32.495 11.3606 32.5869 11.0728 32.7707 10.8261C32.9545 10.5794 33.2084 10.3871 33.5325 10.2493C33.8566 10.109 34.2278 10.0389 34.6462 10.0389C35.2484 10.0389 35.7224 10.1695 36.0683 10.4307C36.4141 10.6894 36.6427 11.0365 36.7539 11.4718ZM40.6564 10.1114V10.9821H37.6128V10.1114H40.6564ZM38.429 8.77644H39.5137V14.0475C39.5137 14.2579 39.5451 14.4163 39.608 14.5227C39.6709 14.6267 39.7519 14.6981 39.8511 14.7368C39.9526 14.773 40.0627 14.7912 40.1812 14.7912C40.2682 14.7912 40.3444 14.7851 40.4097 14.773C40.475 14.7609 40.5258 14.7513 40.5621 14.744L40.758 15.6401C40.6951 15.6642 40.6056 15.6884 40.4895 15.7126C40.3734 15.7392 40.2283 15.7537 40.0542 15.7561C39.7688 15.761 39.5028 15.7102 39.2561 15.6038C39.0094 15.4974 38.8099 15.3329 38.6575 15.1104C38.5052 14.8879 38.429 14.6086 38.429 14.2724V8.77644ZM44.198 15.7961C43.649 15.7961 43.1762 15.6788 42.7795 15.4442C42.3853 15.2072 42.0806 14.8746 41.8653 14.4465C41.6525 14.0161 41.5461 13.5118 41.5461 12.9338C41.5461 12.363 41.6525 11.86 41.8653 11.4247C42.0806 10.9893 42.3805 10.6495 42.765 10.4053C43.152 10.161 43.6042 10.0389 44.1218 10.0389C44.4362 10.0389 44.7409 10.0909 45.036 10.1949C45.331 10.2989 45.5958 10.4621 45.8304 10.6846C46.065 10.9071 46.25 11.1961 46.3855 11.5516C46.5209 11.9047 46.5886 12.334 46.5886 12.8395V13.224H42.1592V12.4114H45.5257C45.5257 12.126 45.4677 11.8733 45.3516 11.6532C45.2355 11.4307 45.0722 11.2554 44.8618 11.1272C44.6538 10.999 44.4096 10.9349 44.129 10.9349C43.8243 10.9349 43.5583 11.0099 43.3309 11.1598C43.106 11.3074 42.9319 11.5008 42.8085 11.7403C42.6876 11.9773 42.6272 12.2349 42.6272 12.513V13.1478C42.6272 13.5203 42.6925 13.8371 42.8231 14.0983C42.9561 14.3595 43.1411 14.559 43.3781 14.6969C43.6151 14.8323 43.892 14.9 44.2088 14.9C44.4144 14.9 44.6018 14.871 44.7711 14.8129C44.9404 14.7525 45.0867 14.663 45.2101 14.5445C45.3334 14.426 45.4277 14.2797 45.493 14.1055L46.5197 14.2906C46.4375 14.5929 46.2899 14.8577 46.0771 15.085C45.8667 15.3099 45.6019 15.4853 45.2826 15.611C44.9658 15.7344 44.6043 15.7961 44.198 15.7961ZM47.7921 15.6836V10.1114H48.8405V10.9966H48.8986C49.0001 10.6967 49.1791 10.4609 49.4355 10.2892C49.6942 10.1151 49.9869 10.028 50.3134 10.028C50.3811 10.028 50.4609 10.0304 50.5528 10.0353C50.6471 10.0401 50.7209 10.0461 50.7741 10.0534V11.0909C50.7306 11.0788 50.6532 11.0655 50.5419 11.051C50.4307 11.0341 50.3194 11.0256 50.2082 11.0256C49.9518 11.0256 49.7233 11.08 49.5225 11.1889C49.3242 11.2953 49.167 11.444 49.0509 11.6351C48.9348 11.8237 48.8768 12.039 48.8768 12.2808V15.6836H47.7921Z" fill="white"/>
</svg>
