<svg width="84" height="43" viewBox="0 0 84 43" fill="none" xmlns="http://www.w3.org/2000/svg">
<rect width="84" height="43" rx="6" fill="#8E3444"/>
<path d="M22.8705 19.5198C22.8318 19.1762 22.6721 18.9101 22.3914 18.7214C22.1107 18.5302 21.7575 18.4347 21.3317 18.4347C21.0268 18.4347 20.7631 18.4831 20.5405 18.5798C20.3179 18.6742 20.1449 18.8049 20.0215 18.9718C19.9005 19.1363 19.84 19.3238 19.84 19.5343C19.84 19.711 19.8812 19.8634 19.9634 19.9916C20.0481 20.1199 20.1582 20.2275 20.2937 20.3146C20.4316 20.3993 20.5792 20.4707 20.7365 20.5287C20.8937 20.5844 21.045 20.6304 21.1901 20.6667L21.916 20.8554C22.1531 20.9135 22.3962 20.9921 22.6455 21.0913C22.8947 21.1905 23.1257 21.3211 23.3386 21.4832C23.5516 21.6454 23.7233 21.8462 23.854 22.0857C23.9871 22.3252 24.0536 22.6119 24.0536 22.9458C24.0536 23.3668 23.9447 23.7406 23.727 24.0673C23.5116 24.3939 23.1983 24.6516 22.787 24.8403C22.3781 25.029 21.8833 25.1234 21.3026 25.1234C20.7461 25.1234 20.2647 25.0351 19.8582 24.8585C19.4517 24.6818 19.1335 24.4314 18.9037 24.1072C18.6738 23.7806 18.5468 23.3934 18.5226 22.9458H19.6477C19.6695 23.2144 19.7566 23.4382 19.909 23.6173C20.0638 23.7939 20.261 23.9257 20.5006 24.0128C20.7425 24.0975 21.0074 24.1399 21.2954 24.1399C21.6123 24.1399 21.8942 24.0903 22.141 23.9911C22.3902 23.8894 22.5862 23.7491 22.7289 23.5701C22.8717 23.3886 22.9431 23.1769 22.9431 22.935C22.9431 22.7148 22.8801 22.5345 22.7543 22.3942C22.6309 22.2539 22.4628 22.1377 22.2499 22.0458C22.0394 21.9538 21.801 21.8728 21.5349 21.8026L20.6566 21.5631C20.0614 21.401 19.5896 21.1627 19.2412 20.8481C18.8952 20.5336 18.7222 20.1174 18.7222 19.5997C18.7222 19.1714 18.8384 18.7976 19.0706 18.4782C19.3029 18.1588 19.6174 17.9108 20.0142 17.7342C20.411 17.5552 20.8586 17.4657 21.3571 17.4657C21.8603 17.4657 22.3043 17.554 22.689 17.7306C23.0761 17.9072 23.381 18.1504 23.6036 18.4601C23.8262 18.7673 23.9423 19.1206 23.952 19.5198H22.8705ZM27.1619 25.1125C26.6127 25.1125 26.1397 24.9952 25.7429 24.7605C25.3485 24.5234 25.0436 24.1907 24.8283 23.7624C24.6154 23.3317 24.5089 22.8273 24.5089 22.249C24.5089 21.678 24.6154 21.1748 24.8283 20.7392C25.0436 20.3037 25.3437 19.9638 25.7284 19.7194C26.1155 19.4751 26.5679 19.3529 27.0857 19.3529C27.4002 19.3529 27.7051 19.4049 28.0003 19.5089C28.2955 19.613 28.5604 19.7763 28.7951 19.9989C29.0298 20.2215 29.2149 20.5106 29.3504 20.8663C29.4859 21.2195 29.5536 21.649 29.5536 22.1547V22.5394H25.1223V21.7264H28.4902C28.4902 21.4409 28.4322 21.1881 28.316 20.9679C28.1999 20.7453 28.0366 20.5699 27.8261 20.4416C27.618 20.3134 27.3736 20.2493 27.093 20.2493C26.7881 20.2493 26.522 20.3243 26.2945 20.4743C26.0695 20.6219 25.8953 20.8155 25.7719 21.055C25.6509 21.2921 25.5904 21.5498 25.5904 21.828V22.4631C25.5904 22.8358 25.6558 23.1527 25.7864 23.414C25.9195 23.6753 26.1046 23.8749 26.3417 24.0128C26.5788 24.1483 26.8558 24.2161 27.1728 24.2161C27.3785 24.2161 27.566 24.187 27.7353 24.129C27.9047 24.0685 28.0511 23.979 28.1745 23.8604C28.2979 23.7419 28.3922 23.5955 28.4576 23.4213L29.4846 23.6064C29.4024 23.9088 29.2548 24.1737 29.0419 24.4012C28.8314 24.6262 28.5664 24.8016 28.2471 24.9274C27.9301 25.0508 27.5684 25.1125 27.1619 25.1125ZM31.2955 17.5673V25H30.2103V17.5673H31.2955ZM33.2932 17.5673V25H32.2081V17.5673H33.2932ZM37.8694 15.172V27.3953H36.8968V15.172H37.8694ZM45.6176 19.5198C45.5789 19.1762 45.4192 18.9101 45.1385 18.7214C44.8579 18.5302 44.5046 18.4347 44.0788 18.4347C43.7739 18.4347 43.5102 18.4831 43.2876 18.5798C43.065 18.6742 42.892 18.8049 42.7686 18.9718C42.6477 19.1363 42.5872 19.3238 42.5872 19.5343C42.5872 19.711 42.6283 19.8634 42.7106 19.9916C42.7952 20.1199 42.9053 20.2275 43.0408 20.3146C43.1787 20.3993 43.3263 20.4707 43.4836 20.5287C43.6409 20.5844 43.7921 20.6304 43.9373 20.6667L44.6631 20.8554C44.9002 20.9135 45.1434 20.9921 45.3926 21.0913C45.6418 21.1905 45.8729 21.3211 46.0858 21.4832C46.2987 21.6454 46.4705 21.8462 46.6011 22.0857C46.7342 22.3252 46.8007 22.6119 46.8007 22.9458C46.8007 23.3668 46.6919 23.7406 46.4741 24.0673C46.2588 24.3939 45.9454 24.6516 45.5341 24.8403C45.1252 25.029 44.6304 25.1234 44.0498 25.1234C43.4933 25.1234 43.0118 25.0351 42.6053 24.8585C42.1988 24.6818 41.8807 24.4314 41.6508 24.1072C41.421 23.7806 41.2939 23.3934 41.2697 22.9458H42.3948C42.4166 23.2144 42.5037 23.4382 42.6561 23.6173C42.811 23.7939 43.0082 23.9257 43.2477 24.0128C43.4896 24.0975 43.7546 24.1399 44.0425 24.1399C44.3595 24.1399 44.6413 24.0903 44.8881 23.9911C45.1373 23.8894 45.3333 23.7491 45.4761 23.5701C45.6188 23.3886 45.6902 23.1769 45.6902 22.935C45.6902 22.7148 45.6273 22.5345 45.5015 22.3942C45.3781 22.2539 45.2099 22.1377 44.997 22.0458C44.7865 21.9538 44.5482 21.8728 44.282 21.8026L43.4037 21.5631C42.8086 21.401 42.3367 21.1627 41.9883 20.8481C41.6423 20.5336 41.4694 20.1174 41.4694 19.5997C41.4694 19.1714 41.5855 18.7976 41.8178 18.4782C42.05 18.1588 42.3646 17.9108 42.7614 17.7342C43.1582 17.5552 43.6058 17.4657 44.1042 17.4657C44.6075 17.4657 45.0514 17.554 45.4361 17.7306C45.8233 17.9072 46.1281 18.1504 46.3507 18.4601C46.5733 18.7673 46.6894 19.1206 46.6991 19.5198H45.6176ZM48.5916 21.6901V25H47.5065V17.5673H48.5771V20.3328H48.6461C48.7767 20.0328 48.9763 19.7944 49.2449 19.6178C49.5135 19.4412 49.8643 19.3529 50.2974 19.3529C50.6797 19.3529 51.0136 19.4315 51.2991 19.5888C51.587 19.746 51.8096 19.9807 51.9668 20.2928C52.1265 20.6025 52.2064 20.9897 52.2064 21.4542V25H51.1212V21.5849C51.1212 21.176 51.016 20.859 50.8055 20.634C50.595 20.4066 50.3022 20.2928 49.9272 20.2928C49.6707 20.2928 49.4409 20.3473 49.2376 20.4562C49.0368 20.565 48.8783 20.7247 48.7622 20.9352C48.6485 21.1433 48.5916 21.3949 48.5916 21.6901ZM55.4553 25.1125C54.9327 25.1125 54.4766 24.9927 54.0871 24.7532C53.6975 24.5137 53.3951 24.1786 53.1798 23.7479C52.9644 23.3172 52.8568 22.814 52.8568 22.2381C52.8568 21.6599 52.9644 21.1542 53.1798 20.7211C53.3951 20.288 53.6975 19.9517 54.0871 19.7122C54.4766 19.4726 54.9327 19.3529 55.4553 19.3529C55.9779 19.3529 56.434 19.4726 56.8235 19.7122C57.2131 19.9517 57.5155 20.288 57.7309 20.7211C57.9462 21.1542 58.0539 21.6599 58.0539 22.2381C58.0539 22.814 57.9462 23.3172 57.7309 23.7479C57.5155 24.1786 57.2131 24.5137 56.8235 24.7532C56.434 24.9927 55.9779 25.1125 55.4553 25.1125ZM55.4589 24.2016C55.7977 24.2016 56.0783 24.112 56.3009 23.933C56.5235 23.754 56.6881 23.5156 56.7945 23.218C56.9034 22.9204 56.9578 22.5926 56.9578 22.2345C56.9578 21.8788 56.9034 21.5522 56.7945 21.2546C56.6881 20.9546 56.5235 20.7138 56.3009 20.5324C56.0783 20.3509 55.7977 20.2602 55.4589 20.2602C55.1178 20.2602 54.8347 20.3509 54.6097 20.5324C54.3871 20.7138 54.2214 20.9546 54.1125 21.2546C54.006 21.5522 53.9528 21.8788 53.9528 22.2345C53.9528 22.5926 54.006 22.9204 54.1125 23.218C54.2214 23.5156 54.3871 23.754 54.6097 23.933C54.8347 24.112 55.1178 24.2016 55.4589 24.2016ZM58.7179 25V19.4255H59.7667V20.311H59.8248C59.9264 20.011 60.1054 19.7751 60.3619 19.6033C60.6208 19.4291 60.9136 19.342 61.2402 19.342C61.3079 19.342 61.3878 19.3444 61.4797 19.3492C61.5741 19.3541 61.6479 19.3601 61.7011 19.3674V20.4054C61.6576 20.3933 61.5801 20.38 61.4688 20.3654C61.3575 20.3485 61.2462 20.34 61.135 20.34C60.8785 20.34 60.6498 20.3945 60.449 20.5033C60.2506 20.6098 60.0934 20.7586 59.9772 20.9497C59.8611 21.1385 59.803 21.3538 59.803 21.5958V25H58.7179ZM65.0245 19.4255V20.2965H61.9795V19.4255H65.0245ZM62.7961 18.0899H63.8812V23.3632C63.8812 23.5737 63.9127 23.7322 63.9756 23.8386C64.0385 23.9427 64.1196 24.0141 64.2188 24.0528C64.3204 24.0891 64.4305 24.1072 64.549 24.1072C64.6361 24.1072 64.7123 24.1012 64.7777 24.0891C64.843 24.077 64.8938 24.0673 64.9301 24.06L65.1261 24.9564C65.0632 24.9806 64.9736 25.0048 64.8575 25.029C64.7414 25.0556 64.5962 25.0702 64.422 25.0726C64.1365 25.0774 63.8704 25.0266 63.6236 24.9202C63.3768 24.8137 63.1772 24.6492 63.0247 24.4266C62.8723 24.204 62.7961 23.9245 62.7961 23.5882V18.0899Z" fill="white"/>
<path d="M74 6C73.2089 6 72.4355 6.2346 71.7777 6.67412C71.1199 7.11365 70.6072 7.73836 70.3045 8.46927C70.0017 9.20017 69.9225 10.0044 70.0769 10.7804C70.2312 11.5563 70.6122 12.269 71.1716 12.8284C71.731 13.3878 72.4437 13.7688 73.2196 13.9231C73.9956 14.0775 74.7998 13.9983 75.5307 13.6955C76.2616 13.3928 76.8864 12.8801 77.3259 12.2223C77.7654 11.5645 78 10.7911 78 10C78 9.47471 77.8965 8.95457 77.6955 8.46927C77.4945 7.98396 77.1999 7.54301 76.8284 7.17157C76.457 6.80014 76.016 6.5055 75.5307 6.30448C75.0454 6.10346 74.5253 6 74 6ZM74 12.4C73.9209 12.4 73.8436 12.3765 73.7778 12.3326C73.712 12.2886 73.6607 12.2262 73.6304 12.1531C73.6002 12.08 73.5923 11.9996 73.6077 11.922C73.6231 11.8444 73.6612 11.7731 73.7172 11.7172C73.7731 11.6612 73.8444 11.6231 73.922 11.6077C73.9996 11.5922 74.08 11.6002 74.1531 11.6304C74.2262 11.6607 74.2886 11.712 74.3326 11.7778C74.3765 11.8435 74.4 11.9209 74.4 12C74.4 12.1061 74.3579 12.2078 74.2828 12.2828C74.2078 12.3579 74.1061 12.4 74 12.4ZM74.4 10.336V10.8C74.4 10.9061 74.3579 11.0078 74.2828 11.0828C74.2078 11.1579 74.1061 11.2 74 11.2C73.8939 11.2 73.7922 11.1579 73.7172 11.0828C73.6421 11.0078 73.6 10.9061 73.6 10.8V10C73.6 9.89391 73.6421 9.79217 73.7172 9.71716C73.7922 9.64214 73.8939 9.6 74 9.6C74.1187 9.6 74.2347 9.56481 74.3333 9.49888C74.432 9.43295 74.5089 9.33924 74.5543 9.22961C74.5997 9.11997 74.6116 8.99933 74.5885 8.88294C74.5653 8.76656 74.5082 8.65965 74.4243 8.57574C74.3404 8.49182 74.2334 8.43468 74.1171 8.41153C74.0007 8.38838 73.88 8.40026 73.7704 8.44567C73.6608 8.49108 73.567 8.56799 73.5011 8.66666C73.4352 8.76533 73.4 8.88133 73.4 9C73.4 9.10609 73.3579 9.20783 73.2828 9.28284C73.2078 9.35786 73.1061 9.4 73 9.4C72.8939 9.4 72.7922 9.35786 72.7172 9.28284C72.6421 9.20783 72.6 9.10609 72.6 9C72.599 8.74012 72.6703 8.48508 72.8059 8.26343C72.9416 8.04178 73.1363 7.86227 73.3682 7.745C73.6002 7.62773 73.8601 7.57733 74.1191 7.59944C74.378 7.62155 74.6257 7.71529 74.8344 7.87018C75.0431 8.02507 75.2045 8.23498 75.3007 8.47643C75.3968 8.71787 75.4238 8.98131 75.3788 9.23725C75.3337 9.49319 75.2182 9.73153 75.0454 9.92558C74.8725 10.1196 74.649 10.2617 74.4 10.336Z" fill="white"/>
</svg>
