<svg width="12" height="12" viewBox="0 0 12 12" fill="none" xmlns="http://www.w3.org/2000/svg">
<g clip-path="url(#clip0_0_1994)">
<path d="M6.65745 0.501526C6.91137 0.501526 7.14051 0.646391 7.25389 0.876652L7.74409 1.89711C7.7546 1.91897 7.77988 1.93011 7.80284 1.92323L9.03248 1.55334C9.26098 1.48614 9.51001 1.54557 9.68075 1.71289L10.4974 2.50601C10.6769 2.6786 10.7427 2.93612 10.6712 3.17424L10.3263 4.31155C10.3197 4.33345 10.3286 4.35644 10.3487 4.36824L11.402 4.99055C11.6073 5.10884 11.732 5.32785 11.732 5.56255V6.63515C11.732 6.89458 11.5804 7.13115 11.3468 7.23607L10.2509 7.74011C10.2277 7.75078 10.2164 7.77767 10.225 7.8017L10.6468 8.98181C10.7292 9.21168 10.6779 9.46797 10.5153 9.64755L9.70649 10.5454C9.52601 10.7502 9.24033 10.8204 8.98535 10.7286L7.91272 10.339C7.88963 10.3307 7.86332 10.341 7.85197 10.3631L7.28118 11.4734C7.16772 11.6934 6.94038 11.8317 6.69281 11.8317H5.52828C5.27936 11.8317 5.05116 11.692 4.93845 11.4699L4.37316 10.3576C4.36168 10.335 4.33572 10.3247 4.31251 10.3331L3.24065 10.7225C3.00034 10.8118 2.73083 10.7538 2.55033 10.5767L1.70517 9.75576C1.53331 9.58727 1.46542 9.33833 1.53059 9.10508L1.86127 7.92204C1.86745 7.9 1.85788 7.87692 1.83805 7.86578L0.761045 7.25933C0.551481 7.14253 0.421875 6.92115 0.421875 6.68171V5.60027C0.421875 5.37468 0.537152 5.16381 0.725024 5.04426L1.81227 4.34321C1.82992 4.33186 1.83834 4.31001 1.83268 4.2891L1.56055 3.27732C1.50204 3.05705 1.56112 2.82167 1.71644 2.65622L2.56045 1.75164C2.72969 1.56859 2.98751 1.49671 3.22693 1.56511L4.29367 1.86981C4.31618 1.87625 4.34001 1.8663 4.35098 1.84634L4.89874 0.845172C5.01474 0.633641 5.23744 0.501526 5.47877 0.501526H6.65745ZM6.38488 1.59606H5.73473L5.31073 2.37253C5.07057 2.80967 4.57836 3.03754 4.09611 2.94664L3.99302 2.92224L3.18155 2.68986L2.68026 3.22691L2.88943 4.00401C3.01019 4.4503 2.84944 4.92177 2.49107 5.2022L2.4049 5.26342L1.51641 5.83554V6.42805L2.37454 6.91174C2.80348 7.15263 3.02668 7.63849 2.93893 8.11505L2.91533 8.21693L2.65399 9.15124L3.11807 9.60219L3.93948 9.30414C4.44898 9.11983 5.01205 9.31836 5.29604 9.76859L5.34902 9.86195L5.79383 10.7369H6.42866L6.87859 9.86253C7.12547 9.38255 7.67108 9.14435 8.18428 9.27845L8.28639 9.31027L9.084 9.6L9.52911 9.10673L9.19445 8.17051C9.00612 7.64487 9.22604 7.06555 9.70176 6.79298L9.79391 6.74556L10.6375 6.35727V5.81L9.7929 5.31117C9.36776 5.06114 9.15478 4.56977 9.25317 4.09486L9.27905 3.99343L9.54735 3.1087L9.10078 2.67527L8.11764 2.97151C7.61234 3.12299 7.0737 2.90894 6.8072 2.46346L6.75762 2.37132L6.38488 1.59606ZM6.06853 3.6331C7.46005 3.6331 8.58831 4.76113 8.58831 6.15289C8.58831 7.54465 7.46005 8.67268 6.06853 8.67268C4.67659 8.67268 3.54874 7.54483 3.54874 6.15289C3.54874 4.76095 4.67659 3.6331 6.06853 3.6331ZM6.06853 4.72763C5.28108 4.72763 4.64327 5.36545 4.64327 6.15289C4.64327 6.94033 5.28108 7.57815 6.06853 7.57815C6.85561 7.57815 7.49378 6.94011 7.49378 6.15289C7.49378 5.36568 6.85561 4.72763 6.06853 4.72763Z" fill="white"/>
</g>
<defs>
<clipPath id="clip0_0_1994">
<rect width="11.675" height="11.675" fill="white" transform="translate(0.238281 0.318909)"/>
</clipPath>
</defs>
</svg>
