<svg width="21" height="21" viewBox="0 0 21 21" fill="none" xmlns="http://www.w3.org/2000/svg">
<path d="M10.7496 12.4226C10.4621 12.4226 10.1775 12.366 9.91189 12.256C9.6463 12.1459 9.40498 11.9847 9.20171 11.7814C8.99843 11.5782 8.83719 11.3368 8.72718 11.0712C8.61717 10.8057 8.56055 10.521 8.56055 10.2335C8.56055 9.94605 8.61717 9.6614 8.72718 9.39581C8.83719 9.13022 8.99843 8.8889 9.20171 8.68563C9.40498 8.48235 9.6463 8.32111 9.91189 8.2111C10.1775 8.10109 10.4621 8.04446 10.7496 8.04446C11.3302 8.04446 11.887 8.2751 12.2975 8.68563C12.708 9.09615 12.9387 9.65295 12.9387 10.2335C12.9387 10.8141 12.708 11.3709 12.2975 11.7814C11.887 12.192 11.3302 12.4226 10.7496 12.4226ZM10.7496 11.6929C11.1367 11.6929 11.5079 11.5391 11.7815 11.2655C12.0552 10.9918 12.209 10.6206 12.209 10.2335C12.209 9.84648 12.0552 9.47528 11.7815 9.20159C11.5079 8.92791 11.1367 8.77415 10.7496 8.77415C10.3626 8.77415 9.99136 8.92791 9.71768 9.20159C9.44399 9.47528 9.29023 9.84648 9.29023 10.2335C9.29023 10.6206 9.44399 10.9918 9.71768 11.2655C9.99136 11.5391 10.3626 11.6929 10.7496 11.6929Z" fill="white"/>
<path fill-rule="evenodd" clip-rule="evenodd" d="M4.1865 11.6933C4.08996 11.6935 3.99433 11.6746 3.90513 11.6377C3.81592 11.6007 3.73491 11.5465 3.66674 11.4782C3.59858 11.4098 3.54462 11.3286 3.50796 11.2393C3.4713 11.15 3.45268 11.0543 3.45316 10.9578V9.51007C3.4522 9.4137 3.47037 9.3181 3.50662 9.22881C3.54288 9.13951 3.5965 9.05831 3.66437 8.98989C3.73224 8.92147 3.81302 8.86721 3.90202 8.83024C3.99102 8.79328 4.08648 8.77434 4.18285 8.77454H5.09642C5.23151 8.24649 5.44108 7.74036 5.71884 7.27139L5.04826 6.59643C4.78849 6.30674 4.79433 5.86674 5.07015 5.59019L6.10631 4.55403C6.17442 4.48641 6.25521 4.43289 6.34404 4.39655C6.43287 4.3602 6.528 4.34173 6.62398 4.34221C6.71996 4.34268 6.81491 4.36209 6.90337 4.39931C6.99184 4.43654 7.0721 4.49085 7.13954 4.55914L7.78824 5.20272C8.25742 4.92607 8.76318 4.71679 9.29066 4.58103V3.66673C9.29066 3.29167 9.62632 2.93704 10.0203 2.93704H11.4797C11.8862 2.93704 12.2094 3.2581 12.2094 3.66673V4.58103C12.7371 4.71672 13.2432 4.92601 13.7126 5.20272L14.3605 4.55914C14.428 4.4909 14.5083 4.43664 14.5968 4.39948C14.6853 4.36232 14.7803 4.34298 14.8762 4.34257C14.9722 4.34217 15.0673 4.3607 15.1561 4.39711C15.2449 4.43352 15.3257 4.48709 15.3938 4.55476L16.4299 5.59092C16.5617 5.72369 16.6374 5.90205 16.6413 6.08908C16.6453 6.27611 16.5772 6.45749 16.4511 6.5957C16.4511 6.5957 16.1592 6.89195 15.7812 7.27139C16.059 7.74036 16.2686 8.24649 16.4037 8.77454H17.3172C17.7237 8.77454 18.0469 9.10071 18.0469 9.51007V10.9578C18.0479 11.0541 18.0297 11.1497 17.9934 11.239C17.9572 11.3283 17.9036 11.4095 17.8357 11.4779C17.7678 11.5464 17.687 11.6006 17.598 11.6376C17.509 11.6746 17.4136 11.6935 17.3172 11.6933H16.4037C16.2686 12.2213 16.059 12.7275 15.7812 13.1964L16.4248 13.8444C16.4931 13.9119 16.5473 13.9922 16.5845 14.0807C16.6216 14.1692 16.641 14.2641 16.6414 14.3601C16.6418 14.4561 16.6233 14.5512 16.5868 14.64C16.5504 14.7288 16.4969 14.8096 16.4292 14.8776L15.393 15.9138C15.3249 15.9813 15.2442 16.0347 15.1554 16.071C15.0667 16.1073 14.9716 16.1257 14.8757 16.1253C14.7798 16.1248 14.685 16.1054 14.5966 16.0683C14.5082 16.0311 14.428 15.9769 14.3605 15.9087L13.7118 15.2651C13.2427 15.5418 12.7369 15.751 12.2094 15.8868V16.7975C12.2094 17.2061 11.8811 17.5308 11.4739 17.5308H10.0262C9.92967 17.5312 9.83403 17.5125 9.74477 17.4758C9.6555 17.4391 9.57436 17.3851 9.50601 17.317C9.43766 17.2488 9.38345 17.1679 9.3465 17.0787C9.30954 16.9896 9.29057 16.894 9.29066 16.7975V15.8868C8.76293 15.7511 8.25692 15.5418 7.78751 15.2651L7.13954 15.9087C7.07205 15.9769 6.99176 16.0312 6.90326 16.0684C6.81477 16.1055 6.71981 16.1249 6.62383 16.1253C6.52785 16.1257 6.43274 16.1071 6.34393 16.0707C6.25512 16.0343 6.17437 15.9807 6.10631 15.9131L5.07015 14.8769C5.00264 14.8088 4.94922 14.7281 4.91293 14.6393C4.87665 14.5505 4.85822 14.4555 4.85869 14.3596C4.85917 14.2637 4.87854 14.1689 4.9157 14.0805C4.95286 13.9921 5.00708 13.9118 5.07526 13.8444L5.71884 13.1964C5.44108 12.7275 5.23151 12.2213 5.09642 11.6933H4.1865ZM6.65138 7.17434L6.48574 7.42243C6.12481 7.96531 5.87301 8.57326 5.74438 9.21236L5.68455 9.50423H4.1865C4.18431 9.50423 4.18285 9.98874 4.18285 10.9578C4.18285 10.9614 4.68341 10.9636 5.68455 10.9636L5.74438 11.2555C5.87572 11.8998 6.12382 12.5032 6.48574 13.0454L6.65138 13.2935L5.59334 14.3588C5.59042 14.361 5.93337 14.7069 6.62219 15.3965L7.69046 14.3326L7.93855 14.4982C8.4823 14.858 9.09026 15.1097 9.7292 15.2396L10.0203 15.3001V16.7975C10.0203 16.7996 10.5049 16.8011 11.4739 16.8011C11.4775 16.8011 11.4797 16.3005 11.4797 15.3001L11.7709 15.2396C12.4098 15.1097 13.0178 14.858 13.5615 14.4982L13.8096 14.3326L14.875 15.3906C14.8771 15.3935 15.223 15.0506 15.9126 14.3618L14.8487 13.2935L15.0143 13.0454C15.3753 12.5025 15.6271 11.8946 15.7557 11.2555L15.8155 10.9636H17.3136C17.3158 10.9636 17.3172 10.4791 17.3172 9.51007C17.3172 9.50642 16.8167 9.50423 15.8155 9.50423L15.7557 9.21236C15.6271 8.57326 15.3753 7.96531 15.0143 7.42243L14.8487 7.17434L15.8527 6.16445L15.9118 6.10462L14.8786 5.07138L13.8096 6.13526L13.5615 5.96962C13.0178 5.60983 12.4098 5.35813 11.7709 5.22826L11.4797 5.1677V3.66673C11.4797 3.66454 10.9952 3.66454 10.0262 3.66673C10.0225 3.66673 10.0203 4.1673 10.0203 5.1677L9.7292 5.22826C9.09026 5.35813 8.4823 5.60983 7.93855 5.96962L7.69046 6.13526L6.62511 5.07722C6.62292 5.0743 6.27705 5.41725 5.58823 6.10462L6.65138 7.17434Z" fill="white"/>
</svg>
