<svg width="10" height="9" viewBox="0 0 10 9" fill="none" xmlns="http://www.w3.org/2000/svg">
<path d="M6.26667 4.36457C6.26667 3.96297 6.12456 3.62004 5.8403 3.33581C5.55603 3.05159 5.21308 2.90946 4.81144 2.90946C4.40978 2.90946 4.06683 3.05159 3.78257 3.33581C3.4983 3.62004 3.35618 3.96297 3.35618 4.36457C3.35618 4.76617 3.4983 5.10911 3.78257 5.39333C4.06683 5.67756 4.40978 5.81968 4.81144 5.81968C5.21308 5.81968 5.55603 5.67756 5.8403 5.39333C6.12456 5.10911 6.26667 4.76617 6.26667 4.36457ZM9.17719 3.74505V5.00701C9.17719 5.05235 9.16202 5.09588 9.1317 5.1376C9.1014 5.17931 9.06344 5.20392 9.01784 5.21144L7.96605 5.37077C7.89401 5.57546 7.82016 5.74791 7.74449 5.88808C7.87716 6.07747 8.07992 6.33892 8.35279 6.67238C8.39062 6.71772 8.40954 6.76513 8.40954 6.8146C8.40954 6.86408 8.39245 6.90761 8.35824 6.94521C8.2559 7.08538 8.06828 7.28995 7.79543 7.5589C7.52257 7.82785 7.34442 7.96233 7.26098 7.96233C7.21563 7.96233 7.16639 7.94522 7.11327 7.91102L6.32889 7.29733C6.16294 7.38402 5.98986 7.45632 5.81155 7.51342C5.75091 8.02878 5.69598 8.38116 5.64675 8.57055C5.62031 8.67679 5.55215 8.7299 5.44228 8.7299H4.18022C4.12709 8.7299 4.08066 8.71377 4.04086 8.68152C4.00109 8.64925 3.97927 8.60851 3.97539 8.55929L3.81604 7.51342C3.63025 7.45281 3.45974 7.3827 3.30451 7.30316L2.50304 7.9114C2.4652 7.9456 2.41779 7.96269 2.36078 7.96269C2.30766 7.96269 2.26025 7.94184 2.21853 7.90012C1.74096 7.4682 1.42834 7.1499 1.28063 6.94521C1.25417 6.90737 1.24097 6.86384 1.24097 6.8146C1.24097 6.76927 1.25612 6.72572 1.28644 6.68402C1.3432 6.60446 1.43984 6.47847 1.5764 6.30605C1.71295 6.13361 1.81531 6 1.88346 5.90517C1.78111 5.71576 1.70338 5.52818 1.65026 5.34241L0.610111 5.18888C0.560869 5.18138 0.521096 5.15773 0.490775 5.11796C0.460473 5.07819 0.445312 5.03369 0.445312 4.98445V3.72251C0.445312 3.67716 0.460473 3.63363 0.490775 3.59191C0.521096 3.55019 0.557128 3.52558 0.59883 3.51806L1.65609 3.35873C1.70921 3.18436 1.78304 3.01011 1.87765 2.83598C1.72604 2.61991 1.5233 2.35846 1.26935 2.05167C1.2315 2.00633 1.21258 1.96086 1.21258 1.91526C1.21258 1.87744 1.22969 1.83389 1.2639 1.78467C1.36236 1.64838 1.54901 1.44467 1.82379 1.17353C2.09859 0.902374 2.27772 0.766935 2.36114 0.767194C2.41038 0.767194 2.45963 0.786093 2.50885 0.823932L3.29323 1.43219C3.45919 1.34551 3.63227 1.27321 3.81059 1.2161C3.87121 0.700748 3.92614 0.348384 3.97539 0.158973C4.00183 0.0529977 4.06997 0 4.17986 0H5.44192C5.49503 0 5.54148 0.0161142 5.58126 0.0483823C5.62103 0.0806305 5.64287 0.121393 5.64675 0.170611L5.8061 1.21648C5.99189 1.2771 6.1624 1.34718 6.31761 1.42674L7.12491 0.8185C7.15911 0.784303 7.20459 0.767214 7.26136 0.767214C7.31058 0.767214 7.35799 0.786113 7.40359 0.823951C7.89256 1.27479 8.2052 1.59685 8.34151 1.79015C8.36795 1.82046 8.38116 1.86216 8.38116 1.91528C8.38116 1.96064 8.366 2.00417 8.33568 2.04588C8.27894 2.12542 8.18228 2.25141 8.04574 2.42385C7.90917 2.59627 7.80683 2.7299 7.73866 2.82474C7.83715 3.01413 7.91488 3.19978 7.97188 3.38167L9.01201 3.541C9.06125 3.54852 9.10102 3.57217 9.13134 3.61194C9.16167 3.65171 9.17683 3.69621 9.17683 3.74545L9.17719 3.74507V3.74505Z" fill="white"/>
</svg>
