<svg width="11" height="12" viewBox="0 0 11 12" fill="none" xmlns="http://www.w3.org/2000/svg">
<path d="M7.60398 0.795837C7.42954 0.795837 7.29614 0.929233 7.29614 1.10367C7.29614 1.27812 7.42954 1.41151 7.60398 1.41151H9.94354L5.18233 6.17272C5.05919 6.29586 5.05919 6.49082 5.18233 6.60369C5.2439 6.66526 5.32599 6.69605 5.39782 6.69605C5.46964 6.69605 5.55173 6.66526 5.6133 6.60369L10.3745 1.84248V4.18204C10.3745 4.35648 10.5079 4.48988 10.6823 4.48988C10.8568 4.48988 10.9902 4.35648 10.9902 4.18204V1.10367C10.9902 0.929233 10.8568 0.795837 10.6823 0.795837H7.60398ZM1.44724 2.84808C0.708433 2.84808 0.113281 3.44323 0.113281 4.18204V10.3388C0.113281 11.0776 0.708433 11.6727 1.44724 11.6727H7.60398C8.34279 11.6727 8.93794 11.0776 8.93794 10.3388V5.72123C8.93794 5.54679 8.80454 5.41339 8.6301 5.41339C8.45566 5.41339 8.32227 5.54679 8.32227 5.72123V10.3388C8.32227 10.739 8.00417 11.0571 7.60398 11.0571H1.44724C1.04705 11.0571 0.728955 10.739 0.728955 10.3388V4.18204C0.728955 3.78186 1.04705 3.46376 1.44724 3.46376H6.0648C6.23924 3.46376 6.37263 3.33036 6.37263 3.15592C6.37263 2.98148 6.23924 2.84808 6.0648 2.84808H1.44724Z" fill="white"/>
</svg>
