<svg width="12" height="13" viewBox="0 0 12 13" fill="none" xmlns="http://www.w3.org/2000/svg">
<g clip-path="url(#clip0_0_1924)">
<path d="M4.06918 3.86817L1.17337 4.28877L1.08822 4.30571C0.509309 4.4531 0.295461 5.19193 0.73944 5.62422L2.83455 7.66692L2.34025 10.5509L2.33025 10.6333C2.28835 11.2309 2.92633 11.665 3.47557 11.3765L6.0656 10.0143L8.65695 11.3764L8.73234 11.4114C9.28818 11.6354 9.8977 11.1622 9.79236 10.5506L9.29739 7.66619L11.3934 5.62406L11.4524 5.56033C11.8342 5.10102 11.5723 4.3778 10.9593 4.28877L8.06349 3.86744L6.76836 1.24382C6.48105 0.661565 5.65161 0.661565 5.3643 1.24382L4.06918 3.86817ZM6.06633 1.88123L7.27588 4.33285L7.32306 4.41576C7.44421 4.60104 7.64047 4.72747 7.86312 4.7608L10.5685 5.15315L8.61215 7.06121L8.54791 7.132C8.40919 7.30506 8.34953 7.53055 8.38692 7.75224L8.84863 10.447L6.43052 9.17534L6.34303 9.13612C6.13495 9.05767 5.90203 9.0707 5.70287 9.17496L3.2833 10.4463L3.74553 7.75349L3.75574 7.658C3.76591 7.43554 3.68146 7.21814 3.52056 7.06126L1.56343 5.15315L4.26756 4.76109C4.52334 4.7228 4.74266 4.56389 4.85691 4.33387L6.06633 1.88123Z" fill="#FFCC00"/>
</g>
<defs>
<clipPath id="clip0_0_1924">
<rect width="11.675" height="11.675" fill="white" transform="translate(0.228516 0.53418)"/>
</clipPath>
</defs>
</svg>
