<svg width="21" height="21" viewBox="0 0 21 21" fill="none" xmlns="http://www.w3.org/2000/svg">
<path d="M12.8859 8.04475V12.4229H15.075V8.04475H12.8859ZM12.5211 7.31506H15.4398C15.5366 7.31506 15.6294 7.3535 15.6978 7.42192C15.7662 7.49034 15.8047 7.58314 15.8047 7.67991V12.7877C15.8047 12.8845 15.7662 12.9773 15.6978 13.0457C15.6294 13.1141 15.5366 13.1526 15.4398 13.1526H12.5211C12.4243 13.1526 12.3315 13.1141 12.2631 13.0457C12.1947 12.9773 12.1563 12.8845 12.1562 12.7877V7.67991C12.1562 7.58314 12.1947 7.49034 12.2631 7.42192C12.3315 7.3535 12.4243 7.31506 12.5211 7.31506Z" fill="white"/>
<path d="M13.6152 5.12582H14.3449V7.67973H13.6152V5.12582ZM13.6152 12.7875H14.3449V15.3414H13.6152V12.7875Z" fill="white"/>
<path d="M7.04805 5.8556V14.6119H9.23711V5.8556H7.04805ZM6.6832 5.12592H9.60195C9.69872 5.12592 9.79152 5.16435 9.85994 5.23278C9.92836 5.3012 9.9668 5.394 9.9668 5.49076V14.9767C9.9668 15.0735 9.92836 15.1663 9.85994 15.2347C9.79152 15.3031 9.69872 15.3415 9.60195 15.3415H6.6832C6.58644 15.3415 6.49364 15.3031 6.42522 15.2347C6.3568 15.1663 6.31836 15.0735 6.31836 14.9767V5.49076C6.31836 5.394 6.3568 5.3012 6.42522 5.23278C6.49364 5.16435 6.58644 5.12592 6.6832 5.12592Z" fill="white"/>
<path d="M7.77734 2.93695H8.50703V5.49086H7.77734V2.93695ZM7.77734 14.9768H8.50703V17.5307H7.77734V14.9768Z" fill="white"/>
</svg>
