<svg width="49" height="17" viewBox="0 0 49 17" fill="none" xmlns="http://www.w3.org/2000/svg">
<path d="M10 12H14V8" stroke="#B1B5BB" stroke-linecap="round" stroke-linejoin="round"/>
<path d="M14 12L8.35 6.35C8.25654 6.25839 8.13088 6.20707 8 6.20707C7.86912 6.20707 7.74346 6.25839 7.65 6.35L5.35 8.65C5.25654 8.74161 5.13088 8.79293 5 8.79293C4.86912 8.79293 4.74346 8.74161 4.65 8.65L1 5" stroke="#B1B5BB" stroke-linecap="round" stroke-linejoin="round"/>
<rect x="22.002" y="0.607117" width="2.80599" height="15.7857" rx="0.607143" fill="#00DA85"/>
<rect x="27.8438" y="3.03564" width="2.63095" height="13.3571" rx="0.607143" fill="#00DA85"/>
<rect x="33.5098" y="6.07141" width="2.34184" height="10.3214" rx="0.607143" fill="#00DA85"/>
<rect x="38.8867" y="3.03564" width="2.63095" height="13.3571" rx="0.607143" fill="#00DA85"/>
<rect x="44.5547" y="4.24994" width="2.5265" height="12.1429" rx="0.607143" fill="#00DA85"/>
</svg>
