<svg width="29" height="28" viewBox="0 0 29 28" fill="none" xmlns="http://www.w3.org/2000/svg">
<circle cx="14.5" cy="14" r="13.5" stroke="#D4D4D8"/>
<path d="M20.7052 10.9831C20.2862 11.1693 19.8439 11.2857 19.3783 11.3556C19.8439 11.0762 20.2163 10.6339 20.3793 10.0985C19.937 10.3546 19.4481 10.5408 18.9127 10.6572C18.4937 10.2149 17.8884 9.93555 17.2366 9.93555C15.9795 9.93555 14.9553 10.9598 14.9553 12.2169C14.9553 12.4031 14.9785 12.5661 15.0251 12.729C13.1395 12.6359 11.4401 11.728 10.2995 10.3313C10.1132 10.6805 9.99683 11.0529 9.99683 11.472C9.99683 12.2634 10.3926 12.9618 11.0211 13.3808C10.6486 13.3576 10.2995 13.2644 9.97355 13.1015V13.1248C9.97355 14.2422 10.765 15.1733 11.8126 15.3828C11.6264 15.4294 11.4168 15.4527 11.2073 15.4527C11.0677 15.4527 10.9047 15.4294 10.765 15.4061C11.0677 16.314 11.9057 16.9891 12.9067 16.9891C12.1152 17.5943 11.1375 17.9668 10.0667 17.9668C9.88044 17.9668 9.6942 17.9668 9.53125 17.9435C10.5555 18.5953 11.7428 18.9678 13.0464 18.9678C17.2599 18.9678 19.5645 15.476 19.5645 12.4497C19.5645 12.3566 19.5645 12.2402 19.5645 12.1471C20.0068 11.8444 20.4025 11.4487 20.7052 10.9831Z" fill="white"/>
</svg>
