<svg width="10" height="8" viewBox="0 0 10 8" fill="none" xmlns="http://www.w3.org/2000/svg">
<path d="M1.41884 3.5043L3.35032 5.43505L2.83443 5.95167L0.0214844 3.13946L2.83297 0.32724L3.34959 0.843859L1.41884 2.77461H5.64592C6.17295 2.77461 6.69482 2.87842 7.18173 3.08011C7.66865 3.28179 8.11107 3.57741 8.48373 3.95007C8.8564 4.32274 9.15202 4.76516 9.3537 5.25208C9.55539 5.73899 9.6592 6.26086 9.6592 6.78789V7.88242H8.92951V6.78789C8.92951 6.35669 8.84458 5.9297 8.67956 5.53132C8.51454 5.13293 8.27268 4.77095 7.96777 4.46604C7.66286 4.16113 7.30088 3.91926 6.90249 3.75425C6.50411 3.58923 6.07712 3.5043 5.64592 3.5043H1.41884Z" fill="white"/>
</svg>
