<svg width="13" height="12" viewBox="0 0 13 12" fill="none" xmlns="http://www.w3.org/2000/svg">
<g clip-path="url(#clip0_0_1984)">
<path d="M11.0789 11.2639C11.8849 11.2639 12.5383 10.6106 12.5383 9.80457V3.60224C12.5383 2.99775 12.0482 2.50771 11.4437 2.50771H11.0789V2.14287C11.0789 1.53837 10.5888 1.04834 9.98435 1.04834H3.05234C1.84335 1.04834 0.863281 2.02841 0.863281 3.2374V9.07488C0.863281 10.2839 1.84335 11.2639 3.05234 11.2639H11.0789ZM11.0789 10.5343H3.05234C2.24763 10.5343 1.59297 9.87959 1.59297 9.07488V3.2374C1.59297 2.43269 2.24763 1.77803 3.05234 1.77803H9.98435C10.1855 1.77803 10.3492 1.94174 10.3492 2.14287V2.50771H3.41718C3.21561 2.50771 3.05234 2.67098 3.05234 2.87255C3.05234 3.07413 3.21561 3.2374 3.41718 3.2374H11.4437C11.6449 3.2374 11.8086 3.40111 11.8086 3.60224V9.80457C11.8086 10.2068 11.4811 10.5343 11.0789 10.5343ZM9.61951 7.61551C10.0224 7.61551 10.3492 7.28875 10.3492 6.88583C10.3492 6.4829 10.0224 6.15614 9.61951 6.15614C9.21659 6.15614 8.88982 6.4829 8.88982 6.88583C8.88982 7.28875 9.21659 7.61551 9.61951 7.61551Z" fill="white"/>
</g>
<defs>
<clipPath id="clip0_0_1984">
<rect width="11.675" height="11.675" fill="white" transform="translate(0.863281 0.318848)"/>
</clipPath>
</defs>
</svg>
