<svg width="19" height="12" viewBox="0 0 19 12" fill="none" xmlns="http://www.w3.org/2000/svg">
<rect x="0.646484" y="0.219727" width="17.7752" height="11.675" rx="1.45937" fill="#FF8E00"/>
<path d="M4.92117 3.89273L5.77731 5.33967H5.81047L6.67076 3.89273H7.68444L6.38884 6.01546L7.71347 8.13818H6.68112L5.81047 6.68917H5.77731L4.90666 8.13818H3.87846L5.20724 6.01546L3.90334 3.89273H4.92117ZM8.25244 8.13818V3.89273H9.95228C10.2646 3.89273 10.5251 3.93903 10.7338 4.03162C10.9425 4.12421 11.0993 4.25274 11.2044 4.41719C11.3094 4.58027 11.3619 4.76822 11.3619 4.98104C11.3619 5.14688 11.3287 5.29268 11.2624 5.41844C11.1961 5.54282 11.1049 5.64508 10.9888 5.72524C10.8741 5.80401 10.7428 5.85998 10.5949 5.89315V5.93461C10.7566 5.94152 10.9079 5.98713 11.0489 6.07143C11.1912 6.15573 11.3066 6.27389 11.3951 6.42591C11.4835 6.57654 11.5277 6.7562 11.5277 6.96488C11.5277 7.19014 11.4718 7.39122 11.3598 7.56812C11.2493 7.74363 11.0855 7.88252 10.8685 7.98478C10.6516 8.08705 10.3842 8.13818 10.0663 8.13818H8.25244ZM9.15004 7.40435H9.8818C10.1319 7.40435 10.3144 7.35667 10.4291 7.26131C10.5438 7.16458 10.6011 7.03605 10.6011 6.87574C10.6011 6.75827 10.5728 6.65462 10.5161 6.5648C10.4595 6.47497 10.3786 6.40448 10.2736 6.35335C10.1699 6.30222 10.0463 6.27665 9.90253 6.27665H9.15004V7.40435ZM9.15004 5.66927H9.81546C9.93846 5.66927 10.0476 5.64785 10.143 5.60501C10.2397 5.56078 10.3157 5.49859 10.371 5.41844C10.4277 5.33828 10.456 5.24224 10.456 5.1303C10.456 4.9769 10.4014 4.85321 10.2922 4.75923C10.1845 4.66526 10.0311 4.61827 9.83205 4.61827H9.15004V5.66927ZM11.9501 4.63278V3.89273H15.4369V4.63278H14.1371V8.13818H13.2499V4.63278H11.9501Z" fill="white"/>
</svg>
