<svg width="130" height="79" viewBox="0 0 130 79" fill="none" xmlns="http://www.w3.org/2000/svg">
<path d="M1 78.5L4.5 68L7 62L9.5 56L12.5 49.5L16 43.5L17.5 41.5L20 38L21 37L21.5 36.5L22 36L22.5 35.5L23 35L23.5 34.5L25 33.5L26 33V33C26.6658 32.6671 27.3544 32.3819 28.0607 32.1464L28.5 32L29.0513 31.8162C29.6797 31.6068 30.3377 31.5 31 31.5V31.5H32.5V31.5C33.1623 31.5 33.8203 31.6068 34.4487 31.8162L34.5432 31.8477C34.8473 31.9491 35.1439 32.072 35.4307 32.2154L37 33L39 34L41 35.5L49 41L54.5 44L59.5 47L65.4185 49.762C66.4712 50.2532 67.5611 50.6603 68.6781 50.9795L70.5 51.5L73 52L73.3639 52.0728C74.7845 52.3569 76.2297 52.5 77.6784 52.5H78H78.9384C80.3076 52.5 81.6717 52.3321 83 52V52L85 51.5L85.0616 51.4754C86.6704 50.8318 88.1318 49.8682 89.357 48.643V48.643C89.7851 48.2149 90.1823 47.7569 90.5456 47.2726L93 44L100 32.5L108 17L112.5 9L115.5 5L118.5 2.5L120.5 1.5L122.5 1H124L125.5 1.5L126.5 2L128 3L129 4" stroke="#0D59A7" stroke-width="1.5"/>
</svg>
