<svg width="42" height="42" viewBox="0 0 42 42" fill="none" xmlns="http://www.w3.org/2000/svg">
<g clip-path="url(#clip0_0_4167)">
<path d="M21 42C32.598 42 42 32.598 42 21C42 9.40202 32.598 0 21 0C9.40202 0 0 9.40202 0 21C0 32.598 9.40202 42 21 42Z" fill="#627EEA"/>
<path d="M20.998 7.5L20.8125 8.115V25.9685L20.998 26.149L29.4945 21.2505L20.998 7.5Z" fill="#D8DEF8"/>
<path d="M20.9965 7.5L12.5 21.2505L20.9965 26.149V7.5Z" fill="white"/>
<path d="M20.9995 27.7178L20.8945 27.8423V34.2018L20.9995 34.4998L29.501 22.8218L20.9995 27.7178Z" fill="#D8DEF8"/>
<path d="M20.9965 34.5V27.718L12.5 22.822L20.9965 34.5Z" fill="white"/>
<path d="M20.9961 26.1484L29.4926 21.2504L20.9966 17.4834L20.9961 26.1484Z" fill="#AAB8EA"/>
<path d="M12.5 21.25L20.9965 26.1485V17.4835L12.5 21.25Z" fill="#D8DEF8"/>
</g>
<defs>
<clipPath id="clip0_0_4167">
<rect width="42" height="42" fill="white"/>
</clipPath>
</defs>
</svg>
