<svg width="80" height="80" viewBox="0 0 80 80" fill="none" xmlns="http://www.w3.org/2000/svg">
<mask id="mask0_0_4117" style="mask-type:luminance" maskUnits="userSpaceOnUse" x="8" y="8" width="64" height="64">
<path d="M72 40C72 22.3269 57.6731 8 40 8C22.3269 8 8 22.3269 8 40C8 57.6731 22.3269 72 40 72C57.6731 72 72 57.6731 72 40Z" fill="white"/>
</mask>
<g mask="url(#mask0_0_4117)">
<path d="M72 40C72 22.3269 57.6731 8 40 8C22.3269 8 8 22.3269 8 40C8 57.6731 22.3269 72 40 72C57.6731 72 72 57.6731 72 40Z" fill="#0D59A7"/>
<path d="M41.6 28.7996C41.6 30.5666 37.66 31.9996 32.8 31.9996C27.94 31.9996 24 30.5666 24 28.7996M41.6 28.7996C41.6 27.0326 37.66 25.5996 32.8 25.5996C27.94 25.5996 24 27.0326 24 28.7996M41.6 28.7996V31.1996M24 28.7996V47.9996C24 49.7666 27.94 51.1996 32.8 51.1996M32.8 38.3996C32.53 38.3996 32.264 38.3956 32 38.3866C27.515 38.2396 24 36.8686 24 35.1996M32.8 44.7996C27.94 44.7996 24 43.3666 24 41.5996M56 39.1996C56 40.9666 52.06 42.3996 47.2 42.3996C42.34 42.3996 38.4 40.9666 38.4 39.1996M56 39.1996C56 37.4326 52.06 35.9996 47.2 35.9996C42.34 35.9996 38.4 37.4326 38.4 39.1996M56 39.1996V51.1996C56 52.9666 52.06 54.3996 47.2 54.3996C42.34 54.3996 38.4 52.9666 38.4 51.1996V39.1996M56 45.1996C56 46.9666 52.06 48.3996 47.2 48.3996C42.34 48.3996 38.4 46.9666 38.4 45.1996" stroke="url(#paint0_linear_0_4117)" stroke-width="3" stroke-linecap="round" stroke-linejoin="round"/>
<path d="M52 9H28C17.5066 9 9 16.2718 9 25.2419V45.7581C9 54.7282 17.5066 62 28 62H52C62.4934 62 71 54.7282 71 45.7581V25.2419C71 16.2718 62.4934 9 52 9Z" stroke="#0D59A7" stroke-width="2"/>
</g>
<defs>
<linearGradient id="paint0_linear_0_4117" x1="39.2" y1="43.1996" x2="48.8" y2="62.3996" gradientUnits="userSpaceOnUse">
<stop stop-color="white"/>
<stop offset="1" stop-color="white" stop-opacity="0"/>
</linearGradient>
</defs>
</svg>
