<svg width="134" height="36" viewBox="0 0 134 36" fill="none" xmlns="http://www.w3.org/2000/svg">
<rect x="0.878906" width="132.63" height="36" rx="6" fill="#F9F9F9"/>
<path d="M13.7638 22.5V12.3182H15.9165V16.5192H20.2866V12.3182H22.4343V22.5H20.2866V18.294H15.9165V22.5H13.7638ZM24.1694 22.5V14.8636H26.2873V22.5H24.1694ZM25.2333 13.8793C24.9184 13.8793 24.6483 13.7749 24.4229 13.5661C24.2009 13.3539 24.0898 13.1004 24.0898 12.8054C24.0898 12.5137 24.2009 12.2635 24.4229 12.0547C24.6483 11.8426 24.9184 11.7365 25.2333 11.7365C25.5482 11.7365 25.8166 11.8426 26.0387 12.0547C26.2641 12.2635 26.3768 12.5137 26.3768 12.8054C26.3768 13.1004 26.2641 13.3539 26.0387 13.5661C25.8166 13.7749 25.5482 13.8793 25.2333 13.8793ZM31.4242 25.5227C30.7381 25.5227 30.1498 25.4283 29.6593 25.2393C29.1721 25.0537 28.7843 24.8002 28.4959 24.4787C28.2076 24.1572 28.0203 23.7959 27.9341 23.3949L29.8929 23.1314C29.9526 23.2839 30.0471 23.4264 30.1763 23.5589C30.3056 23.6915 30.4763 23.7976 30.6884 23.8771C30.9038 23.96 31.1657 24.0014 31.4739 24.0014C31.9346 24.0014 32.3141 23.8887 32.6124 23.6634C32.914 23.4413 33.0648 23.0684 33.0648 22.5447V21.1477H32.9753C32.8825 21.3598 32.7433 21.5604 32.5577 21.7493C32.3721 21.9382 32.1335 22.0923 31.8418 22.2116C31.5501 22.331 31.2021 22.3906 30.7978 22.3906C30.2244 22.3906 29.7024 22.258 29.2317 21.9929C28.7644 21.7244 28.3915 21.3151 28.1131 20.7649C27.838 20.2114 27.7005 19.5121 27.7005 18.6669C27.7005 17.8018 27.8413 17.0793 28.123 16.4993C28.4048 15.9193 28.7793 15.4851 29.2466 15.1967C29.7173 14.9084 30.2327 14.7642 30.7928 14.7642C31.2203 14.7642 31.5783 14.8371 31.8667 14.983C32.155 15.1255 32.387 15.3045 32.5627 15.5199C32.7417 15.732 32.8792 15.9408 32.9753 16.1463H33.0549V14.8636H35.1578V22.5746C35.1578 23.2242 34.9988 23.7678 34.6806 24.2053C34.3624 24.6428 33.9216 24.9709 33.3581 25.1896C32.798 25.4117 32.1534 25.5227 31.4242 25.5227ZM31.4689 20.7997C31.8103 20.7997 32.0987 20.7152 32.334 20.5462C32.5726 20.3738 32.7549 20.1286 32.8809 19.8104C33.0101 19.4889 33.0748 19.1044 33.0748 18.657C33.0748 18.2095 33.0118 17.8217 32.8858 17.4936C32.7599 17.1622 32.5776 16.9053 32.339 16.723C32.1003 16.5407 31.8103 16.4496 31.4689 16.4496C31.1209 16.4496 30.8276 16.544 30.589 16.733C30.3503 16.9186 30.1697 17.1771 30.0471 17.5085C29.9244 17.84 29.8631 18.2228 29.8631 18.657C29.8631 19.0978 29.9244 19.4789 30.0471 19.8004C30.173 20.1186 30.3536 20.3655 30.589 20.5412C30.8276 20.7135 31.1209 20.7997 31.4689 20.7997ZM38.9611 18.0852V22.5H36.8432V12.3182H38.9015V16.2109H38.9909C39.1633 15.7602 39.4417 15.4072 39.8262 15.152C40.2106 14.8935 40.6929 14.7642 41.2729 14.7642C41.8032 14.7642 42.2656 14.8802 42.66 15.1122C43.0577 15.3409 43.3659 15.6707 43.5847 16.1016C43.8068 16.5291 43.9161 17.0412 43.9128 17.6378V22.5H41.7949V18.0156C41.7982 17.545 41.6789 17.1787 41.437 16.9169C41.1983 16.6551 40.8636 16.5241 40.4327 16.5241C40.1444 16.5241 39.8891 16.5855 39.6671 16.7081C39.4483 16.8307 39.276 17.0097 39.15 17.245C39.0274 17.477 38.9644 17.7571 38.9611 18.0852ZM49.0597 22.6491C48.2741 22.6491 47.598 22.4901 47.0312 22.1719C46.4678 21.8504 46.0336 21.3963 45.7287 20.8097C45.4238 20.2197 45.2713 19.522 45.2713 18.7166C45.2713 17.9311 45.4238 17.2417 45.7287 16.6484C46.0336 16.0552 46.4628 15.5928 47.0163 15.2614C47.5732 14.9299 48.2261 14.7642 48.9751 14.7642C49.4789 14.7642 49.9479 14.8454 50.3821 15.0078C50.8196 15.1669 51.2008 15.4072 51.5256 15.7287C51.8537 16.0502 52.1089 16.4545 52.2912 16.9418C52.4735 17.4257 52.5646 17.9924 52.5646 18.642V19.2237H46.1165V17.9112H50.571C50.571 17.6063 50.5047 17.3362 50.3722 17.1009C50.2396 16.8655 50.0556 16.6816 49.8203 16.549C49.5883 16.4131 49.3182 16.3452 49.0099 16.3452C48.6884 16.3452 48.4034 16.4197 48.1548 16.5689C47.9096 16.7147 47.7173 16.9119 47.5781 17.1605C47.4389 17.4058 47.3677 17.6792 47.3643 17.9808V19.2287C47.3643 19.6065 47.4339 19.933 47.5732 20.2081C47.7157 20.4832 47.9162 20.6953 48.1747 20.8445C48.4332 20.9936 48.7398 21.0682 49.0945 21.0682C49.3298 21.0682 49.5452 21.035 49.7408 20.9688C49.9363 20.9025 50.1037 20.803 50.2429 20.6705C50.3821 20.5379 50.4882 20.3755 50.5611 20.1832L52.5199 20.3125C52.4205 20.7831 52.2166 21.1941 51.9084 21.5455C51.6035 21.8935 51.209 22.1652 50.7251 22.3608C50.2446 22.553 49.6894 22.6491 49.0597 22.6491ZM60.3004 17.0412L58.3615 17.1605C58.3284 16.9948 58.2571 16.8456 58.1477 16.7131C58.0384 16.5772 57.8942 16.4695 57.7152 16.3899C57.5395 16.3071 57.3291 16.2656 57.0838 16.2656C56.7557 16.2656 56.4789 16.3352 56.2536 16.4744C56.0282 16.6103 55.9155 16.7926 55.9155 17.0213C55.9155 17.2036 55.9884 17.3577 56.1342 17.4837C56.2801 17.6096 56.5303 17.7107 56.8849 17.7869L58.267 18.0653C59.0095 18.2178 59.563 18.4631 59.9276 18.8011C60.2921 19.1392 60.4744 19.5833 60.4744 20.1335C60.4744 20.634 60.3269 21.0732 60.032 21.451C59.7403 21.8288 59.3393 22.1238 58.8288 22.3359C58.3217 22.5447 57.7367 22.6491 57.0739 22.6491C56.063 22.6491 55.2576 22.4387 54.6577 22.0178C54.0611 21.5935 53.7114 21.0168 53.6087 20.2876L55.6918 20.1783C55.7547 20.4865 55.9072 20.7218 56.1491 20.8842C56.3911 21.0433 56.701 21.1229 57.0788 21.1229C57.45 21.1229 57.7483 21.0516 57.9737 20.9091C58.2024 20.7633 58.3184 20.576 58.3217 20.3473C58.3184 20.1551 58.2372 19.9976 58.0781 19.875C57.919 19.7491 57.6738 19.6529 57.3423 19.5866L56.0199 19.3232C55.2741 19.174 54.719 18.9155 54.3544 18.5476C53.9931 18.1797 53.8125 17.7107 53.8125 17.1406C53.8125 16.6501 53.9451 16.2275 54.2102 15.8729C54.4787 15.5182 54.8549 15.2448 55.3388 15.0526C55.826 14.8603 56.3961 14.7642 57.049 14.7642C58.0135 14.7642 58.7725 14.968 59.326 15.3757C59.8828 15.7834 60.2076 16.3385 60.3004 17.0412ZM65.8699 14.8636V16.4545H61.2711V14.8636H65.8699ZM62.3152 13.0341H64.4331V20.1534C64.4331 20.349 64.4629 20.5014 64.5225 20.6108C64.5822 20.7169 64.6651 20.7914 64.7711 20.8345C64.8805 20.8776 65.0065 20.8991 65.149 20.8991C65.2484 20.8991 65.3478 20.8909 65.4473 20.8743C65.5467 20.8544 65.6229 20.8395 65.676 20.8295L66.0091 22.4055C65.903 22.4387 65.7538 22.4768 65.5616 22.5199C65.3694 22.5663 65.1357 22.5945 64.8606 22.6044C64.3502 22.6243 63.9028 22.5563 63.5183 22.4006C63.1371 22.2448 62.8405 22.0028 62.6284 21.6747C62.4163 21.3466 62.3118 20.9323 62.3152 20.4318V13.0341ZM72.369 12.3182L74.8299 20.054H74.9244L77.3903 12.3182H79.7766L76.2667 22.5H73.4925L69.9776 12.3182H72.369ZM83.5513 22.6491C82.7791 22.6491 82.1112 22.4851 81.5478 22.157C80.9876 21.8255 80.5551 21.3648 80.2502 20.7749C79.9453 20.1816 79.7928 19.4938 79.7928 18.7116C79.7928 17.9228 79.9453 17.2334 80.2502 16.6435C80.5551 16.0502 80.9876 15.5895 81.5478 15.2614C82.1112 14.9299 82.7791 14.7642 83.5513 14.7642C84.3236 14.7642 84.9898 14.9299 85.5499 15.2614C86.1133 15.5895 86.5475 16.0502 86.8525 16.6435C87.1574 17.2334 87.3098 17.9228 87.3098 18.7116C87.3098 19.4938 87.1574 20.1816 86.8525 20.7749C86.5475 21.3648 86.1133 21.8255 85.5499 22.157C84.9898 22.4851 84.3236 22.6491 83.5513 22.6491ZM83.5613 21.0085C83.9126 21.0085 84.2059 20.9091 84.4412 20.7102C84.6766 20.508 84.8539 20.233 84.9732 19.8849C85.0958 19.5369 85.1571 19.1409 85.1571 18.6967C85.1571 18.2526 85.0958 17.8565 84.9732 17.5085C84.8539 17.1605 84.6766 16.8854 84.4412 16.6832C84.2059 16.4811 83.9126 16.38 83.5613 16.38C83.2066 16.38 82.9083 16.4811 82.6664 16.6832C82.4277 16.8854 82.2471 17.1605 82.1245 17.5085C82.0051 17.8565 81.9455 18.2526 81.9455 18.6967C81.9455 19.1409 82.0051 19.5369 82.1245 19.8849C82.2471 20.233 82.4277 20.508 82.6664 20.7102C82.9083 20.9091 83.2066 21.0085 83.5613 21.0085ZM90.8049 12.3182V22.5H88.687V12.3182H90.8049ZM97.3984 19.2486V14.8636H99.5163V22.5H97.483V21.1129H97.4034C97.2311 21.5604 96.9444 21.92 96.5433 22.1918C96.1456 22.4635 95.66 22.5994 95.0866 22.5994C94.5762 22.5994 94.1271 22.4834 93.7393 22.2514C93.3516 22.0194 93.0483 21.6896 92.8295 21.2621C92.6141 20.8345 92.5047 20.3224 92.5014 19.7259V14.8636H94.6193V19.348C94.6226 19.7988 94.7436 20.1551 94.9822 20.4169C95.2209 20.6787 95.5407 20.8097 95.9418 20.8097C96.197 20.8097 96.4356 20.7517 96.6577 20.6357C96.8797 20.5163 97.0587 20.3407 97.1946 20.1087C97.3338 19.8767 97.4018 19.59 97.3984 19.2486ZM101.21 22.5V14.8636H103.229V16.2109H103.318C103.477 15.7635 103.743 15.4105 104.114 15.152C104.485 14.8935 104.929 14.7642 105.446 14.7642C105.97 14.7642 106.416 14.8951 106.784 15.157C107.151 15.4155 107.397 15.7668 107.519 16.2109H107.599C107.755 15.7734 108.036 15.4238 108.444 15.1619C108.855 14.8968 109.341 14.7642 109.901 14.7642C110.613 14.7642 111.192 14.9912 111.636 15.4453C112.083 15.8961 112.307 16.5357 112.307 17.3643V22.5H110.194V17.782C110.194 17.3577 110.081 17.0395 109.856 16.8274C109.631 16.6153 109.349 16.5092 109.011 16.5092C108.626 16.5092 108.326 16.6319 108.111 16.8771C107.896 17.1191 107.788 17.4389 107.788 17.8366V22.5H105.735V17.7372C105.735 17.3627 105.627 17.0644 105.411 16.8423C105.199 16.6203 104.919 16.5092 104.571 16.5092C104.336 16.5092 104.124 16.5689 103.935 16.6882C103.749 16.8042 103.602 16.9683 103.492 17.1804C103.383 17.3892 103.328 17.6345 103.328 17.9162V22.5H101.21ZM117.46 22.6491C116.675 22.6491 115.998 22.4901 115.432 22.1719C114.868 21.8504 114.434 21.3963 114.129 20.8097C113.824 20.2197 113.672 19.522 113.672 18.7166C113.672 17.9311 113.824 17.2417 114.129 16.6484C114.434 16.0552 114.863 15.5928 115.417 15.2614C115.974 14.9299 116.626 14.7642 117.376 14.7642C117.879 14.7642 118.348 14.8454 118.782 15.0078C119.22 15.1669 119.601 15.4072 119.926 15.7287C120.254 16.0502 120.509 16.4545 120.692 16.9418C120.874 17.4257 120.965 17.9924 120.965 18.642V19.2237H114.517V17.9112H118.971C118.971 17.6063 118.905 17.3362 118.773 17.1009C118.64 16.8655 118.456 16.6816 118.221 16.549C117.989 16.4131 117.719 16.3452 117.41 16.3452C117.089 16.3452 116.804 16.4197 116.555 16.5689C116.31 16.7147 116.118 16.9119 115.979 17.1605C115.839 17.4058 115.768 17.6792 115.765 17.9808V19.2287C115.765 19.6065 115.834 19.933 115.974 20.2081C116.116 20.4832 116.317 20.6953 116.575 20.8445C116.834 20.9936 117.14 21.0682 117.495 21.0682C117.73 21.0682 117.946 21.035 118.141 20.9688C118.337 20.9025 118.504 20.803 118.643 20.6705C118.782 20.5379 118.889 20.3755 118.961 20.1832L120.92 20.3125C120.821 20.7831 120.617 21.1941 120.309 21.5455C120.004 21.8935 119.609 22.1652 119.126 22.3608C118.645 22.553 118.09 22.6491 117.46 22.6491Z" fill="#667085"/>
</svg>
