<svg width="14" height="14" viewBox="0 0 14 14" fill="none" xmlns="http://www.w3.org/2000/svg">
<path d="M9.8 3.5C9.8 4.42826 9.43125 5.3185 8.77487 5.97487C8.1185 6.63125 7.22826 7 6.3 7C5.37174 7 4.4815 6.63125 3.82513 5.97487C3.16875 5.3185 2.8 4.42826 2.8 3.5C2.8 2.57174 3.16875 1.6815 3.82513 1.02513C4.4815 0.368749 5.37174 0 6.3 0C7.22826 0 8.1185 0.368749 8.77487 1.02513C9.43125 1.6815 9.8 2.57174 9.8 3.5ZM6.3 7.7C7.9772 7.7 9.5025 8.1858 10.6246 8.8704C11.1846 9.212 11.6634 9.6152 12.0092 10.0534C12.3494 10.4839 12.6 10.9991 12.6 11.55C12.6 12.1415 12.3123 12.6077 11.8979 12.9402C11.5059 13.2552 10.9886 13.4638 10.4391 13.6094C9.3345 13.9013 7.8603 14 6.3 14C4.7397 14 3.2655 13.902 2.1609 13.6094C1.6114 13.4638 1.0941 13.2552 0.7021 12.9402C0.287 12.607 0 12.1415 0 11.55C0 10.9991 0.2506 10.4839 0.5908 10.0527C0.9366 9.6152 1.4147 9.2127 1.9754 8.8697C3.0975 8.1865 4.6235 7.7 6.3 7.7ZM13.3 7.7C13.4784 7.7002 13.65 7.76852 13.7798 7.89099C13.9095 8.01347 13.9876 8.18087 13.998 8.35898C14.0085 8.53709 13.9505 8.71247 13.836 8.84928C13.7215 8.9861 13.5591 9.07403 13.3819 9.0951L13.3 9.1H12.6C12.4216 9.0998 12.25 9.03148 12.1202 8.90901C11.9905 8.78653 11.9124 8.61913 11.902 8.44102C11.8915 8.26291 11.9495 8.08753 12.064 7.95072C12.1785 7.8139 12.3409 7.72597 12.5181 7.7049L12.6 7.7H13.3ZM11.2 6.3C11.2 6.11435 11.2737 5.9363 11.405 5.80503C11.5363 5.67375 11.7143 5.6 11.9 5.6H13.3C13.4857 5.6 13.6637 5.67375 13.795 5.80503C13.9263 5.9363 14 6.11435 14 6.3C14 6.48565 13.9263 6.6637 13.795 6.79497C13.6637 6.92625 13.4857 7 13.3 7H11.9C11.7143 7 11.5363 6.92625 11.405 6.79497C11.2737 6.6637 11.2 6.48565 11.2 6.3ZM11.2 3.5C11.0143 3.5 10.8363 3.57375 10.705 3.70503C10.5737 3.8363 10.5 4.01435 10.5 4.2C10.5 4.38565 10.5737 4.5637 10.705 4.69497C10.8363 4.82625 11.0143 4.9 11.2 4.9H13.3C13.4857 4.9 13.6637 4.82625 13.795 4.69497C13.9263 4.5637 14 4.38565 14 4.2C14 4.01435 13.9263 3.8363 13.795 3.70503C13.6637 3.57375 13.4857 3.5 13.3 3.5H11.2Z" fill="white"/>
</svg>
