<svg width="80" height="80" viewBox="0 0 80 80" fill="none" xmlns="http://www.w3.org/2000/svg">
<path d="M71 40C71 22.8792 57.1208 9 40 9C22.8792 9 9 22.8792 9 40C9 57.1208 22.8792 71 40 71C57.1208 71 71 57.1208 71 40Z" fill="#0D59A7"/>
<path d="M38.4016 25.6H33.2816C30.5936 25.6 29.2496 25.6 28.2216 26.123C27.3186 26.5834 26.5845 27.3178 26.1246 28.221C25.6016 29.248 25.6016 30.591 25.6016 33.28V46.72C25.6016 49.408 25.6016 50.752 26.1246 51.78C26.585 52.683 27.3194 53.417 28.2226 53.877C29.2496 54.4 30.5926 54.4 33.2816 54.4H46.7216C49.4096 54.4 50.7536 54.4 51.7816 53.877C52.6845 53.4166 53.4186 52.6822 53.8786 51.779C54.4016 50.752 54.4016 49.409 54.4016 46.72V41.6M40.0016 33.6H46.4016V40M45.6016 26.4V24M51.9046 28.097L53.6016 26.4M53.6176 34.4H56.0176M25.6016 42.155C26.6446 42.316 27.7136 42.4 28.8016 42.4C35.8196 42.4 42.0266 38.924 45.7926 33.6" stroke="url(#paint0_linear_0_4129)" stroke-width="3" stroke-linecap="round" stroke-linejoin="round"/>
<path d="M71 40C71 22.8792 57.1208 9 40 9C22.8792 9 9 22.8792 9 40C9 57.1208 22.8792 71 40 71C57.1208 71 71 57.1208 71 40Z" stroke="#0D59A7" stroke-width="2"/>
<defs>
<linearGradient id="paint0_linear_0_4129" x1="40.0496" y1="42.578" x2="50.8006" y2="61.941" gradientUnits="userSpaceOnUse">
<stop stop-color="white"/>
<stop offset="1" stop-color="white" stop-opacity="0"/>
</linearGradient>
</defs>
</svg>
