<svg width="131" height="36" viewBox="0 0 131 36" fill="none" xmlns="http://www.w3.org/2000/svg">
<rect x="0.941406" width="129.94" height="36" rx="6" fill="#0D59A7"/>
<path d="M13.4386 14.093V12.3182H21.8008V14.093H18.6836V22.5H16.5558V14.093H13.4386ZM25.481 22.6491C24.7087 22.6491 24.0409 22.4851 23.4775 22.157C22.9173 21.8255 22.4848 21.3648 22.1799 20.7749C21.8749 20.1816 21.7225 19.4938 21.7225 18.7116C21.7225 17.9228 21.8749 17.2334 22.1799 16.6435C22.4848 16.0502 22.9173 15.5895 23.4775 15.2614C24.0409 14.9299 24.7087 14.7642 25.481 14.7642C26.2533 14.7642 26.9194 14.9299 27.4796 15.2614C28.043 15.5895 28.4772 16.0502 28.7821 16.6435C29.0871 17.2334 29.2395 17.9228 29.2395 18.7116C29.2395 19.4938 29.0871 20.1816 28.7821 20.7749C28.4772 21.3648 28.043 21.8255 27.4796 22.157C26.9194 22.4851 26.2533 22.6491 25.481 22.6491ZM25.4909 21.0085C25.8423 21.0085 26.1356 20.9091 26.3709 20.7102C26.6062 20.508 26.7836 20.233 26.9029 19.8849C27.0255 19.5369 27.0868 19.1409 27.0868 18.6967C27.0868 18.2526 27.0255 17.8565 26.9029 17.5085C26.7836 17.1605 26.6062 16.8854 26.3709 16.6832C26.1356 16.4811 25.8423 16.38 25.4909 16.38C25.1363 16.38 24.838 16.4811 24.5961 16.6832C24.3574 16.8854 24.1768 17.1605 24.0542 17.5085C23.9348 17.8565 23.8752 18.2526 23.8752 18.6967C23.8752 19.1409 23.9348 19.5369 24.0542 19.8849C24.1768 20.233 24.3574 20.508 24.5961 20.7102C24.838 20.9091 25.1363 21.0085 25.4909 21.0085ZM30.6167 25.3636V14.8636H32.7047V16.1463H32.7992C32.892 15.9408 33.0262 15.732 33.2019 15.5199C33.3809 15.3045 33.6129 15.1255 33.8979 14.983C34.1863 14.8371 34.5442 14.7642 34.9718 14.7642C35.5286 14.7642 36.0423 14.91 36.513 15.2017C36.9836 15.4901 37.3598 15.9259 37.6415 16.5092C37.9232 17.0893 38.0641 17.8168 38.0641 18.6918C38.0641 19.5436 37.9266 20.2628 37.6515 20.8494C37.3797 21.4328 37.0085 21.8752 36.5378 22.1768C36.0705 22.4751 35.5468 22.6243 34.9668 22.6243C34.5558 22.6243 34.2061 22.5563 33.9178 22.4205C33.6328 22.2846 33.3991 22.1139 33.2168 21.9084C33.0345 21.6996 32.8953 21.4891 32.7992 21.277H32.7346V25.3636H30.6167ZM32.6898 18.6818C32.6898 19.1359 32.7528 19.532 32.8787 19.87C33.0047 20.2081 33.187 20.4716 33.4256 20.6605C33.6642 20.8461 33.9542 20.9389 34.2956 20.9389C34.6403 20.9389 34.932 20.8445 35.1706 20.6555C35.4093 20.4633 35.5899 20.1982 35.7125 19.8601C35.8385 19.5187 35.9015 19.1259 35.9015 18.6818C35.9015 18.241 35.8401 17.8532 35.7175 17.5185C35.5949 17.1837 35.4142 16.9219 35.1756 16.733C34.937 16.544 34.6436 16.4496 34.2956 16.4496C33.9509 16.4496 33.6593 16.5407 33.4206 16.723C33.1853 16.9053 33.0047 17.1638 32.8787 17.4986C32.7528 17.8333 32.6898 18.2277 32.6898 18.6818ZM42.756 22.5V12.3182H46.7731C47.5453 12.3182 48.2032 12.4657 48.7468 12.7607C49.2904 13.0523 49.7047 13.4583 49.9897 13.9787C50.2781 14.4957 50.4222 15.0923 50.4222 15.7685C50.4222 16.4446 50.2764 17.0412 49.9847 17.5582C49.6931 18.0753 49.2705 18.478 48.717 18.7663C48.1668 19.0547 47.5006 19.1989 46.7184 19.1989H44.158V17.4737H46.3704C46.7847 17.4737 47.1261 17.4025 47.3945 17.2599C47.6663 17.1141 47.8685 16.9136 48.0011 16.6584C48.137 16.3999 48.2049 16.1032 48.2049 15.7685C48.2049 15.4304 48.137 15.1354 48.0011 14.8835C47.8685 14.6283 47.6663 14.4311 47.3945 14.2919C47.1228 14.1494 46.7781 14.0781 46.3604 14.0781H44.9087V22.5H42.756ZM55.1378 22.6491C54.3523 22.6491 53.6761 22.4901 53.1094 22.1719C52.5459 21.8504 52.1117 21.3963 51.8068 20.8097C51.5019 20.2197 51.3494 19.522 51.3494 18.7166C51.3494 17.9311 51.5019 17.2417 51.8068 16.6484C52.1117 16.0552 52.541 15.5928 53.0945 15.2614C53.6513 14.9299 54.3042 14.7642 55.0533 14.7642C55.5571 14.7642 56.026 14.8454 56.4602 15.0078C56.8977 15.1669 57.2789 15.4072 57.6037 15.7287C57.9318 16.0502 58.187 16.4545 58.3693 16.9418C58.5516 17.4257 58.6428 17.9924 58.6428 18.642V19.2237H52.1946V17.9112H56.6491C56.6491 17.6063 56.5829 17.3362 56.4503 17.1009C56.3177 16.8655 56.1338 16.6816 55.8984 16.549C55.6664 16.4131 55.3963 16.3452 55.0881 16.3452C54.7666 16.3452 54.4815 16.4197 54.233 16.5689C53.9877 16.7147 53.7955 16.9119 53.6562 17.1605C53.517 17.4058 53.4458 17.6792 53.4425 17.9808V19.2287C53.4425 19.6065 53.5121 19.933 53.6513 20.2081C53.7938 20.4832 53.9943 20.6953 54.2528 20.8445C54.5114 20.9936 54.8179 21.0682 55.1726 21.0682C55.4079 21.0682 55.6233 21.035 55.8189 20.9688C56.0144 20.9025 56.1818 20.803 56.321 20.6705C56.4602 20.5379 56.5663 20.3755 56.6392 20.1832L58.598 20.3125C58.4986 20.7831 58.2947 21.1941 57.9865 21.5455C57.6816 21.8935 57.2872 22.1652 56.8033 22.3608C56.3227 22.553 55.7675 22.6491 55.1378 22.6491ZM60.0249 22.5V14.8636H62.0781V16.196H62.1577C62.2969 15.7221 62.5305 15.3641 62.8587 15.1222C63.1868 14.8769 63.5646 14.7543 63.9922 14.7543C64.0982 14.7543 64.2126 14.7609 64.3352 14.7741C64.4579 14.7874 64.5656 14.8056 64.6584 14.8288V16.7081C64.5589 16.6783 64.4214 16.6518 64.2457 16.6286C64.0701 16.6054 63.9093 16.5938 63.7635 16.5938C63.4519 16.5938 63.1735 16.6617 62.9283 16.7976C62.6863 16.9302 62.4941 17.1158 62.3516 17.3544C62.2124 17.593 62.1428 17.8681 62.1428 18.1797V22.5H60.0249ZM70.2427 14.8636V16.4545H65.5297V14.8636H70.2427ZM66.6085 22.5V14.3118C66.6085 13.7583 66.7162 13.2992 66.9316 12.9347C67.1504 12.5701 67.4487 12.2966 67.8265 12.1143C68.2044 11.9321 68.6336 11.8409 69.1142 11.8409C69.439 11.8409 69.7356 11.8658 70.0041 11.9155C70.2759 11.9652 70.478 12.0099 70.6106 12.0497L70.2328 13.6406C70.1499 13.6141 70.0472 13.5893 69.9245 13.5661C69.8052 13.5429 69.6826 13.5312 69.5566 13.5312C69.2451 13.5312 69.028 13.6042 68.9054 13.75C68.7827 13.8925 68.7214 14.093 68.7214 14.3516V22.5H66.6085ZM74.7134 22.6491C73.9412 22.6491 73.2733 22.4851 72.7099 22.157C72.1497 21.8255 71.7172 21.3648 71.4123 20.7749C71.1074 20.1816 70.9549 19.4938 70.9549 18.7116C70.9549 17.9228 71.1074 17.2334 71.4123 16.6435C71.7172 16.0502 72.1497 15.5895 72.7099 15.2614C73.2733 14.9299 73.9412 14.7642 74.7134 14.7642C75.4857 14.7642 76.1519 14.9299 76.712 15.2614C77.2754 15.5895 77.7096 16.0502 78.0146 16.6435C78.3195 17.2334 78.4719 17.9228 78.4719 18.7116C78.4719 19.4938 78.3195 20.1816 78.0146 20.7749C77.7096 21.3648 77.2754 21.8255 76.712 22.157C76.1519 22.4851 75.4857 22.6491 74.7134 22.6491ZM74.7234 21.0085C75.0747 21.0085 75.368 20.9091 75.6033 20.7102C75.8387 20.508 76.016 20.233 76.1353 19.8849C76.2579 19.5369 76.3192 19.1409 76.3192 18.6967C76.3192 18.2526 76.2579 17.8565 76.1353 17.5085C76.016 17.1605 75.8387 16.8854 75.6033 16.6832C75.368 16.4811 75.0747 16.38 74.7234 16.38C74.3687 16.38 74.0704 16.4811 73.8285 16.6832C73.5898 16.8854 73.4092 17.1605 73.2866 17.5085C73.1673 17.8565 73.1076 18.2526 73.1076 18.6967C73.1076 19.1409 73.1673 19.5369 73.2866 19.8849C73.4092 20.233 73.5898 20.508 73.8285 20.7102C74.0704 20.9091 74.3687 21.0085 74.7234 21.0085ZM79.8491 22.5V14.8636H81.9023V16.196H81.9819C82.1211 15.7221 82.3548 15.3641 82.6829 15.1222C83.011 14.8769 83.3888 14.7543 83.8164 14.7543C83.9225 14.7543 84.0368 14.7609 84.1594 14.7741C84.2821 14.7874 84.3898 14.8056 84.4826 14.8288V16.7081C84.3832 16.6783 84.2456 16.6518 84.07 16.6286C83.8943 16.6054 83.7335 16.5938 83.5877 16.5938C83.2762 16.5938 82.9978 16.6617 82.7525 16.7976C82.5105 16.9302 82.3183 17.1158 82.1758 17.3544C82.0366 17.593 81.967 17.8681 81.967 18.1797V22.5H79.8491ZM85.5776 22.5V14.8636H87.5961V16.2109H87.6855C87.8446 15.7635 88.1098 15.4105 88.481 15.152C88.8522 14.8935 89.2963 14.7642 89.8134 14.7642C90.3371 14.7642 90.7828 14.8951 91.1507 15.157C91.5186 15.4155 91.7639 15.7668 91.8865 16.2109H91.9661C92.1219 15.7734 92.4036 15.4238 92.8113 15.1619C93.2222 14.8968 93.7078 14.7642 94.2679 14.7642C94.9805 14.7642 95.5589 14.9912 96.003 15.4453C96.4505 15.8961 96.6742 16.5357 96.6742 17.3643V22.5H94.5613V17.782C94.5613 17.3577 94.4486 17.0395 94.2232 16.8274C93.9978 16.6153 93.7161 16.5092 93.378 16.5092C92.9935 16.5092 92.6936 16.6319 92.4782 16.8771C92.2627 17.1191 92.155 17.4389 92.155 17.8366V22.5H90.1017V17.7372C90.1017 17.3627 89.994 17.0644 89.7786 16.8423C89.5665 16.6203 89.2864 16.5092 88.9384 16.5092C88.7031 16.5092 88.4909 16.5689 88.302 16.6882C88.1164 16.8042 87.9689 16.9683 87.8596 17.1804C87.7502 17.3892 87.6955 17.6345 87.6955 17.9162V22.5H85.5776ZM98.3471 22.5V14.8636H100.465V22.5H98.3471ZM99.411 13.8793C99.0962 13.8793 98.8261 13.7749 98.6007 13.5661C98.3786 13.3539 98.2676 13.1004 98.2676 12.8054C98.2676 12.5137 98.3786 12.2635 98.6007 12.0547C98.8261 11.8426 99.0962 11.7365 99.411 11.7365C99.7259 11.7365 99.9944 11.8426 100.216 12.0547C100.442 12.2635 100.555 12.5137 100.555 12.8054C100.555 13.1004 100.442 13.3539 100.216 13.5661C99.9944 13.7749 99.7259 13.8793 99.411 13.8793ZM104.279 18.0852V22.5H102.162V14.8636H104.18V16.2109H104.27C104.439 15.7668 104.722 15.4155 105.12 15.157C105.517 14.8951 106 14.7642 106.566 14.7642C107.097 14.7642 107.559 14.8802 107.953 15.1122C108.348 15.3442 108.654 15.6757 108.873 16.1065C109.092 16.5341 109.201 17.0445 109.201 17.6378V22.5H107.083V18.0156C107.087 17.5483 106.967 17.1837 106.725 16.9219C106.484 16.6567 106.15 16.5241 105.726 16.5241C105.441 16.5241 105.189 16.5855 104.971 16.7081C104.755 16.8307 104.586 17.0097 104.463 17.245C104.344 17.477 104.283 17.7571 104.279 18.0852ZM114.311 25.5227C113.625 25.5227 113.037 25.4283 112.546 25.2393C112.059 25.0537 111.671 24.8002 111.383 24.4787C111.094 24.1572 110.907 23.7959 110.821 23.3949L112.78 23.1314C112.839 23.2839 112.934 23.4264 113.063 23.5589C113.192 23.6915 113.363 23.7976 113.575 23.8771C113.791 23.96 114.052 24.0014 114.361 24.0014C114.821 24.0014 115.201 23.8887 115.499 23.6634C115.801 23.4413 115.952 23.0684 115.952 22.5447V21.1477H115.862C115.769 21.3598 115.63 21.5604 115.444 21.7493C115.259 21.9382 115.02 22.0923 114.729 22.2116C114.437 22.331 114.089 22.3906 113.684 22.3906C113.111 22.3906 112.589 22.258 112.118 21.9929C111.651 21.7244 111.278 21.3151 111 20.7649C110.725 20.2114 110.587 19.5121 110.587 18.6669C110.587 17.8018 110.728 17.0793 111.01 16.4993C111.291 15.9193 111.666 15.4851 112.133 15.1967C112.604 14.9084 113.119 14.7642 113.68 14.7642C114.107 14.7642 114.465 14.8371 114.753 14.983C115.042 15.1255 115.274 15.3045 115.449 15.5199C115.628 15.732 115.766 15.9408 115.862 16.1463H115.942V14.8636H118.045V22.5746C118.045 23.2242 117.885 23.7678 117.567 24.2053C117.249 24.6428 116.808 24.9709 116.245 25.1896C115.685 25.4117 115.04 25.5227 114.311 25.5227ZM114.356 20.7997C114.697 20.7997 114.985 20.7152 115.221 20.5462C115.459 20.3738 115.642 20.1286 115.768 19.8104C115.897 19.4889 115.961 19.1044 115.961 18.657C115.961 18.2095 115.898 17.8217 115.773 17.4936C115.647 17.1622 115.464 16.9053 115.226 16.723C114.987 16.5407 114.697 16.4496 114.356 16.4496C114.008 16.4496 113.714 16.544 113.476 16.733C113.237 16.9186 113.056 17.1771 112.934 17.5085C112.811 17.84 112.75 18.2228 112.75 18.657C112.75 19.0978 112.811 19.4789 112.934 19.8004C113.06 20.1186 113.24 20.3655 113.476 20.5412C113.714 20.7135 114.008 20.7997 114.356 20.7997Z" fill="white"/>
</svg>
