<svg width="81" height="80" viewBox="0 0 81 80" fill="none" xmlns="http://www.w3.org/2000/svg">
<path d="M72.1211 40C72.1211 22.3269 57.7942 8 40.1211 8C22.448 8 8.12109 22.3269 8.12109 40C8.12109 57.6731 22.448 72 40.1211 72C57.7942 72 72.1211 57.6731 72.1211 40Z" fill="#0D59A7"/>
<path d="M40.1195 57.6004C49.8397 57.6004 57.7195 49.7206 57.7195 40.0004C57.7195 30.2802 49.8397 22.4004 40.1195 22.4004C30.3993 22.4004 22.5195 30.2802 22.5195 40.0004C22.5195 49.7206 30.3993 57.6004 40.1195 57.6004Z" fill="url(#paint0_linear_0_4109)"/>
<path d="M35.8729 32.2854C36.9459 31.1494 38.4539 30.5234 40.1229 30.5234C41.7919 30.5234 43.2869 31.1534 44.3629 32.2954C45.4529 33.4534 45.9839 35.0084 45.8589 36.6804C45.6089 40.0004 43.0359 42.7084 40.1229 42.7084C37.2099 42.7084 34.6329 40.0004 34.3869 36.6794C34.2629 34.9944 34.7909 33.4334 35.8729 32.2854ZM40.1229 54.8934C38.1347 54.8948 36.1665 54.4968 34.335 53.7231C32.5035 52.9494 30.846 51.8158 29.4609 50.3894C30.2544 49.2579 31.2654 48.2958 32.4349 47.5594C34.5919 46.1774 37.3209 45.4154 40.1229 45.4154C42.9249 45.4154 45.6539 46.1774 47.8089 47.5604C48.9792 48.2965 49.991 49.2586 50.7849 50.3904C49.3996 51.8163 47.742 52.9494 45.9106 53.7226C44.0791 54.4957 42.1109 54.8932 40.1229 54.8914V54.8934Z" fill="#0D59A7"/>
<defs>
<linearGradient id="paint0_linear_0_4109" x1="33.9385" y1="42.8094" x2="45.3975" y2="78.7084" gradientUnits="userSpaceOnUse">
<stop stop-color="white"/>
<stop offset="1" stop-color="white" stop-opacity="0"/>
</linearGradient>
</defs>
</svg>
