<svg width="147" height="36" viewBox="0 0 147 36" fill="none" xmlns="http://www.w3.org/2000/svg">
<rect x="0.5" width="145.55" height="36" rx="6" fill="#F9F9F9"/>
<path d="M15.6768 22.5L12.7635 12.3182H15.1151L16.8004 19.3928H16.8849L18.7443 12.3182H20.7578L22.6122 19.4077H22.7017L24.3871 12.3182H26.7386L23.8253 22.5H21.7273L19.7884 15.843H19.7088L17.7749 22.5H15.6768ZM30.481 22.6491C29.7087 22.6491 29.0409 22.4851 28.4775 22.157C27.9173 21.8255 27.4848 21.3648 27.1799 20.7749C26.8749 20.1816 26.7225 19.4938 26.7225 18.7116C26.7225 17.9228 26.8749 17.2334 27.1799 16.6435C27.4848 16.0502 27.9173 15.5895 28.4775 15.2614C29.0409 14.9299 29.7087 14.7642 30.481 14.7642C31.2533 14.7642 31.9194 14.9299 32.4796 15.2614C33.043 15.5895 33.4772 16.0502 33.7821 16.6435C34.0871 17.2334 34.2395 17.9228 34.2395 18.7116C34.2395 19.4938 34.0871 20.1816 33.7821 20.7749C33.4772 21.3648 33.043 21.8255 32.4796 22.157C31.9194 22.4851 31.2533 22.6491 30.481 22.6491ZM30.4909 21.0085C30.8423 21.0085 31.1356 20.9091 31.3709 20.7102C31.6062 20.508 31.7836 20.233 31.9029 19.8849C32.0255 19.5369 32.0868 19.1409 32.0868 18.6967C32.0868 18.2526 32.0255 17.8565 31.9029 17.5085C31.7836 17.1605 31.6062 16.8854 31.3709 16.6832C31.1356 16.4811 30.8423 16.38 30.4909 16.38C30.1363 16.38 29.838 16.4811 29.5961 16.6832C29.3574 16.8854 29.1768 17.1605 29.0542 17.5085C28.9348 17.8565 28.8752 18.2526 28.8752 18.6967C28.8752 19.1409 28.9348 19.5369 29.0542 19.8849C29.1768 20.233 29.3574 20.508 29.5961 20.7102C29.838 20.9091 30.1363 21.0085 30.4909 21.0085ZM35.6167 22.5V14.8636H37.6699V16.196H37.7495C37.8887 15.7221 38.1223 15.3641 38.4505 15.1222C38.7786 14.8769 39.1564 14.7543 39.584 14.7543C39.69 14.7543 39.8044 14.7609 39.927 14.7741C40.0497 14.7874 40.1574 14.8056 40.2502 14.8288V16.7081C40.1507 16.6783 40.0132 16.6518 39.8375 16.6286C39.6619 16.6054 39.5011 16.5938 39.3553 16.5938C39.0437 16.5938 38.7653 16.6617 38.5201 16.7976C38.2781 16.9302 38.0859 17.1158 37.9434 17.3544C37.8042 17.593 37.7346 17.8681 37.7346 18.1797V22.5H35.6167ZM47.6989 17.0412L45.7599 17.1605C45.7268 16.9948 45.6555 16.8456 45.5462 16.7131C45.4368 16.5772 45.2926 16.4695 45.1136 16.3899C44.938 16.3071 44.7275 16.2656 44.4822 16.2656C44.1541 16.2656 43.8774 16.3352 43.652 16.4744C43.4266 16.6103 43.3139 16.7926 43.3139 17.0213C43.3139 17.2036 43.3868 17.3577 43.5327 17.4837C43.6785 17.6096 43.9287 17.7107 44.2834 17.7869L45.6655 18.0653C46.4079 18.2178 46.9614 18.4631 47.326 18.8011C47.6906 19.1392 47.8729 19.5833 47.8729 20.1335C47.8729 20.634 47.7254 21.0732 47.4304 21.451C47.1387 21.8288 46.7377 22.1238 46.2273 22.3359C45.7202 22.5447 45.1352 22.6491 44.4723 22.6491C43.4614 22.6491 42.656 22.4387 42.0561 22.0178C41.4595 21.5935 41.1098 21.0168 41.0071 20.2876L43.0902 20.1783C43.1532 20.4865 43.3056 20.7218 43.5476 20.8842C43.7895 21.0433 44.0994 21.1229 44.4773 21.1229C44.8485 21.1229 45.1468 21.0516 45.3722 20.9091C45.6009 20.7633 45.7169 20.576 45.7202 20.3473C45.7169 20.1551 45.6357 19.9976 45.4766 19.875C45.3175 19.7491 45.0722 19.6529 44.7408 19.5866L43.4183 19.3232C42.6726 19.174 42.1174 18.9155 41.7528 18.5476C41.3916 18.1797 41.2109 17.7107 41.2109 17.1406C41.2109 16.6501 41.3435 16.2275 41.6087 15.8729C41.8771 15.5182 42.2533 15.2448 42.7372 15.0526C43.2244 14.8603 43.7945 14.7642 44.4474 14.7642C45.4119 14.7642 46.1709 14.968 46.7244 15.3757C47.2813 15.7834 47.6061 16.3385 47.6989 17.0412ZM53.2683 14.8636V16.4545H48.6696V14.8636H53.2683ZM49.7136 13.0341H51.8315V20.1534C51.8315 20.349 51.8613 20.5014 51.921 20.6108C51.9806 20.7169 52.0635 20.7914 52.1696 20.8345C52.2789 20.8776 52.4049 20.8991 52.5474 20.8991C52.6468 20.8991 52.7463 20.8909 52.8457 20.8743C52.9451 20.8544 53.0214 20.8395 53.0744 20.8295L53.4075 22.4055C53.3014 22.4387 53.1523 22.4768 52.96 22.5199C52.7678 22.5663 52.5342 22.5945 52.2591 22.6044C51.7486 22.6243 51.3012 22.5563 50.9167 22.4006C50.5356 22.2448 50.2389 22.0028 50.0268 21.6747C49.8147 21.3466 49.7103 20.9323 49.7136 20.4318V13.0341ZM57.9279 22.5V12.3182H61.945C62.7172 12.3182 63.3751 12.4657 63.9187 12.7607C64.4622 13.0523 64.8765 13.4583 65.1616 13.9787C65.4499 14.4957 65.5941 15.0923 65.5941 15.7685C65.5941 16.4446 65.4483 17.0412 65.1566 17.5582C64.8649 18.0753 64.4424 18.478 63.8888 18.7663C63.3387 19.0547 62.6725 19.1989 61.8903 19.1989H59.3299V17.4737H61.5423C61.9566 17.4737 62.2979 17.4025 62.5664 17.2599C62.8382 17.1141 63.0404 16.9136 63.1729 16.6584C63.3088 16.3999 63.3768 16.1032 63.3768 15.7685C63.3768 15.4304 63.3088 15.1354 63.1729 14.8835C63.0404 14.6283 62.8382 14.4311 62.5664 14.2919C62.2946 14.1494 61.9499 14.0781 61.5323 14.0781H60.0806V22.5H57.9279ZM70.3097 22.6491C69.5241 22.6491 68.848 22.4901 68.2812 22.1719C67.7178 21.8504 67.2836 21.3963 66.9787 20.8097C66.6738 20.2197 66.5213 19.522 66.5213 18.7166C66.5213 17.9311 66.6738 17.2417 66.9787 16.6484C67.2836 16.0552 67.7128 15.5928 68.2663 15.2614C68.8232 14.9299 69.4761 14.7642 70.2251 14.7642C70.7289 14.7642 71.1979 14.8454 71.6321 15.0078C72.0696 15.1669 72.4508 15.4072 72.7756 15.7287C73.1037 16.0502 73.3589 16.4545 73.5412 16.9418C73.7235 17.4257 73.8146 17.9924 73.8146 18.642V19.2237H67.3665V17.9112H71.821C71.821 17.6063 71.7547 17.3362 71.6222 17.1009C71.4896 16.8655 71.3056 16.6816 71.0703 16.549C70.8383 16.4131 70.5682 16.3452 70.2599 16.3452C69.9384 16.3452 69.6534 16.4197 69.4048 16.5689C69.1596 16.7147 68.9673 16.9119 68.8281 17.1605C68.6889 17.4058 68.6177 17.6792 68.6143 17.9808V19.2287C68.6143 19.6065 68.6839 19.933 68.8232 20.2081C68.9657 20.4832 69.1662 20.6953 69.4247 20.8445C69.6832 20.9936 69.9898 21.0682 70.3445 21.0682C70.5798 21.0682 70.7952 21.035 70.9908 20.9688C71.1863 20.9025 71.3537 20.803 71.4929 20.6705C71.6321 20.5379 71.7382 20.3755 71.8111 20.1832L73.7699 20.3125C73.6705 20.7831 73.4666 21.1941 73.1584 21.5455C72.8535 21.8935 72.459 22.1652 71.9751 22.3608C71.4946 22.553 70.9394 22.6491 70.3097 22.6491ZM75.1967 22.5V14.8636H77.25V16.196H77.3295C77.4688 15.7221 77.7024 15.3641 78.0305 15.1222C78.3587 14.8769 78.7365 14.7543 79.1641 14.7543C79.2701 14.7543 79.3845 14.7609 79.5071 14.7741C79.6297 14.7874 79.7375 14.8056 79.8303 14.8288V16.7081C79.7308 16.6783 79.5933 16.6518 79.4176 16.6286C79.242 16.6054 79.0812 16.5938 78.9354 16.5938C78.6238 16.5938 78.3454 16.6617 78.1001 16.7976C77.8582 16.9302 77.666 17.1158 77.5234 17.3544C77.3842 17.593 77.3146 17.8681 77.3146 18.1797V22.5H75.1967ZM85.4146 14.8636V16.4545H80.7015V14.8636H85.4146ZM81.7804 22.5V14.3118C81.7804 13.7583 81.8881 13.2992 82.1035 12.9347C82.3223 12.5701 82.6206 12.2966 82.9984 12.1143C83.3762 11.9321 83.8055 11.8409 84.286 11.8409C84.6109 11.8409 84.9075 11.8658 85.176 11.9155C85.4477 11.9652 85.6499 12.0099 85.7825 12.0497L85.4047 13.6406C85.3218 13.6141 85.219 13.5893 85.0964 13.5661C84.9771 13.5429 84.8545 13.5312 84.7285 13.5312C84.417 13.5312 84.1999 13.6042 84.0772 13.75C83.9546 13.8925 83.8933 14.093 83.8933 14.3516V22.5H81.7804ZM89.8853 22.6491C89.113 22.6491 88.4452 22.4851 87.8817 22.157C87.3216 21.8255 86.8891 21.3648 86.5842 20.7749C86.2792 20.1816 86.1268 19.4938 86.1268 18.7116C86.1268 17.9228 86.2792 17.2334 86.5842 16.6435C86.8891 16.0502 87.3216 15.5895 87.8817 15.2614C88.4452 14.9299 89.113 14.7642 89.8853 14.7642C90.6576 14.7642 91.3237 14.9299 91.8839 15.2614C92.4473 15.5895 92.8815 16.0502 93.1864 16.6435C93.4914 17.2334 93.6438 17.9228 93.6438 18.7116C93.6438 19.4938 93.4914 20.1816 93.1864 20.7749C92.8815 21.3648 92.4473 21.8255 91.8839 22.157C91.3237 22.4851 90.6576 22.6491 89.8853 22.6491ZM89.8952 21.0085C90.2466 21.0085 90.5399 20.9091 90.7752 20.7102C91.0105 20.508 91.1879 20.233 91.3072 19.8849C91.4298 19.5369 91.4911 19.1409 91.4911 18.6967C91.4911 18.2526 91.4298 17.8565 91.3072 17.5085C91.1879 17.1605 91.0105 16.8854 90.7752 16.6832C90.5399 16.4811 90.2466 16.38 89.8952 16.38C89.5406 16.38 89.2423 16.4811 89.0004 16.6832C88.7617 16.8854 88.5811 17.1605 88.4585 17.5085C88.3391 17.8565 88.2795 18.2526 88.2795 18.6967C88.2795 19.1409 88.3391 19.5369 88.4585 19.8849C88.5811 20.233 88.7617 20.508 89.0004 20.7102C89.2423 20.9091 89.5406 21.0085 89.8952 21.0085ZM95.021 22.5V14.8636H97.0742V16.196H97.1538C97.293 15.7221 97.5266 15.3641 97.8548 15.1222C98.1829 14.8769 98.5607 14.7543 98.9883 14.7543C99.0943 14.7543 99.2087 14.7609 99.3313 14.7741C99.454 14.7874 99.5617 14.8056 99.6545 14.8288V16.7081C99.555 16.6783 99.4175 16.6518 99.2418 16.6286C99.0662 16.6054 98.9054 16.5938 98.7596 16.5938C98.448 16.5938 98.1696 16.6617 97.9244 16.7976C97.6824 16.9302 97.4902 17.1158 97.3477 17.3544C97.2085 17.593 97.1388 17.8681 97.1388 18.1797V22.5H95.021ZM100.749 22.5V14.8636H102.768V16.2109H102.857C103.017 15.7635 103.282 15.4105 103.653 15.152C104.024 14.8935 104.468 14.7642 104.985 14.7642C105.509 14.7642 105.955 14.8951 106.323 15.157C106.691 15.4155 106.936 15.7668 107.058 16.2109H107.138C107.294 15.7734 107.575 15.4238 107.983 15.1619C108.394 14.8968 108.88 14.7642 109.44 14.7642C110.152 14.7642 110.731 14.9912 111.175 15.4453C111.622 15.8961 111.846 16.5357 111.846 17.3643V22.5H109.733V17.782C109.733 17.3577 109.62 17.0395 109.395 16.8274C109.17 16.6153 108.888 16.5092 108.55 16.5092C108.165 16.5092 107.865 16.6319 107.65 16.8771C107.435 17.1191 107.327 17.4389 107.327 17.8366V22.5H105.274V17.7372C105.274 17.3627 105.166 17.0644 104.95 16.8423C104.738 16.6203 104.458 16.5092 104.11 16.5092C103.875 16.5092 103.663 16.5689 103.474 16.6882C103.288 16.8042 103.141 16.9683 103.031 17.1804C102.922 17.3892 102.867 17.6345 102.867 17.9162V22.5H100.749ZM113.519 22.5V14.8636H115.637V22.5H113.519ZM114.583 13.8793C114.268 13.8793 113.998 13.7749 113.773 13.5661C113.55 13.3539 113.439 13.1004 113.439 12.8054C113.439 12.5137 113.55 12.2635 113.773 12.0547C113.998 11.8426 114.268 11.7365 114.583 11.7365C114.898 11.7365 115.166 11.8426 115.388 12.0547C115.614 12.2635 115.726 12.5137 115.726 12.8054C115.726 13.1004 115.614 13.3539 115.388 13.5661C115.166 13.7749 114.898 13.8793 114.583 13.8793ZM119.451 18.0852V22.5H117.333V14.8636H119.352V16.2109H119.441C119.61 15.7668 119.894 15.4155 120.292 15.157C120.689 14.8951 121.172 14.7642 121.738 14.7642C122.269 14.7642 122.731 14.8802 123.125 15.1122C123.52 15.3442 123.826 15.6757 124.045 16.1065C124.264 16.5341 124.373 17.0445 124.373 17.6378V22.5H122.255V18.0156C122.259 17.5483 122.139 17.1837 121.897 16.9219C121.655 16.6567 121.322 16.5241 120.898 16.5241C120.613 16.5241 120.361 16.5855 120.142 16.7081C119.927 16.8307 119.758 17.0097 119.635 17.245C119.516 17.477 119.455 17.7571 119.451 18.0852ZM129.483 25.5227C128.797 25.5227 128.208 25.4283 127.718 25.2393C127.231 25.0537 126.843 24.8002 126.555 24.4787C126.266 24.1572 126.079 23.7959 125.993 23.3949L127.952 23.1314C128.011 23.2839 128.106 23.4264 128.235 23.5589C128.364 23.6915 128.535 23.7976 128.747 23.8771C128.962 23.96 129.224 24.0014 129.532 24.0014C129.993 24.0014 130.373 23.8887 130.671 23.6634C130.973 23.4413 131.123 23.0684 131.123 22.5447V21.1477H131.034C130.941 21.3598 130.802 21.5604 130.616 21.7493C130.431 21.9382 130.192 22.0923 129.9 22.2116C129.609 22.331 129.261 22.3906 128.856 22.3906C128.283 22.3906 127.761 22.258 127.29 21.9929C126.823 21.7244 126.45 21.3151 126.172 20.7649C125.897 20.2114 125.759 19.5121 125.759 18.6669C125.759 17.8018 125.9 17.0793 126.182 16.4993C126.463 15.9193 126.838 15.4851 127.305 15.1967C127.776 14.9084 128.291 14.7642 128.851 14.7642C129.279 14.7642 129.637 14.8371 129.925 14.983C130.214 15.1255 130.446 15.3045 130.621 15.5199C130.8 15.732 130.938 15.9408 131.034 16.1463H131.113V14.8636H133.216V22.5746C133.216 23.2242 133.057 23.7678 132.739 24.2053C132.421 24.6428 131.98 24.9709 131.417 25.1896C130.857 25.4117 130.212 25.5227 129.483 25.5227ZM129.528 20.7997C129.869 20.7997 130.157 20.7152 130.393 20.5462C130.631 20.3738 130.814 20.1286 130.939 19.8104C131.069 19.4889 131.133 19.1044 131.133 18.657C131.133 18.2095 131.07 17.8217 130.944 17.4936C130.818 17.1622 130.636 16.9053 130.398 16.723C130.159 16.5407 129.869 16.4496 129.528 16.4496C129.18 16.4496 128.886 16.544 128.648 16.733C128.409 16.9186 128.228 17.1771 128.106 17.5085C127.983 17.84 127.922 18.2228 127.922 18.657C127.922 19.0978 127.983 19.4789 128.106 19.8004C128.232 20.1186 128.412 20.3655 128.648 20.5412C128.886 20.7135 129.18 20.7997 129.528 20.7997Z" fill="#667085"/>
</svg>
